{
.appVersion = "3202";
.formatVersion = 3;
DisplayStrings = (
OHa
);
axes = (
{
name = Weight;
tag = wght;
},
{
name = Width;
tag = wdth;
}
);
classes = (
{
automatic = 1;
code = "A Aacute Acircumflex Adieresis Agrave Aring Atilde AE B C Ccedilla D Eth E Eacute Ecircumflex Edieresis Egrave F G H I Iacute Icircumflex Idieresis Igrave J K L M N Ntilde O Oacute Ocircumflex Odieresis Ograve Oslash Otilde OE P Thorn Q R S Scaron T U Uacute Ucircumflex Udieresis Ugrave V W X Y Yacute Ydieresis Z Zcaron";
name = Uppercase;
}
);
customParameters = (
{
name = "EditView Line Height";
value = 1100;
},
{
name = "Axis Mappings";
value = {
wdth = {
100 = 100;
125 = 125;
};
wght = {
100 = 100;
300 = 300;
550 = 400;
900 = 700;
};
};
},
{
name = "Use Line Breaks";
value = 1;
},
{
name = "Use Typo Metrics";
value = 1;
},
{
name = fsType;
value = (
);
},
{
name = "Export morx Table";
value = 1;
},
{
name = "Enforce Compatibility Check";
value = 1;
},
{
name = "Color Palettes";
value = (
(
(115,250,121,255),
(255,138,216,255)
)
);
}
);
date = "2022-03-23 12:33:01 +0000";
familyName = "Kalnia-Color";
featurePrefixes = (
{
automatic = 1;
code = "languagesystem DFLT dflt;

languagesystem latn dflt;
";
name = Languagesystems;
}
);
features = (
{
automatic = 1;
code = "feature sups;
feature frac;
feature ordn;
feature ss01;
";
tag = aalt;
},
{
automatic = 1;
code = "lookup ccmp_latn_1 {
	sub fi by f i;
	sub fl by f l;
} ccmp_latn_1;

script latn;
lookup ccmp_latn_1;
";
tag = ccmp;
},
{
automatic = 1;
code = "sub one by onesuperior;
sub two by twosuperior;
sub three by threesuperior;
sub four by foursuperior;
";
tag = sups;
},
{
automatic = 1;
code = "sub one slash four by onequarter;
sub one slash two by onehalf;
sub three slash four by threequarters;
";
tag = frac;
},
{
automatic = 1;
code = "sub [zero one two three four five six seven eight nine] [A a]' by ordfeminine;
sub [zero one two three four five six seven eight nine] [O o]' by ordmasculine;
";
tag = ordn;
},
{
automatic = 1;

glyphs = (
{
color = 4;
glyphname = A;
kernLeft = A;
kernRight = AA;
lastChange = "2022-08-05 06:04:53 +0000";
layers = (
{
layerId = "2660E96A-9963-4076-AFCB-E451BC6EE103";
shapes = (
{
closed = 1;
nodes = (
(378,0,l),
(378,10,l),
(262,23,o),
(212,105,o),
(212,222,cs),
(212,300,o),
(235,407,o),
(281,521,cs),
(285,531,l),
(298,531,l),
(502,19,l),
(432,5,l),
(432,0,l),
(815,0,l),
(815,10,l),
(767,20,l),
(493,708,l),
(341,708,l),
(56,20,l),
(5,10,l),
(5,0,l)
);
},
{
closed = 1;
nodes = (
(201,320,l),
(195,284,o),
(192,251,o),
(192,222,cs),
(192,128,o),
(223,53,o),
(284,20,c),
(77,20,l)
);
},
{
closed = 1;
nodes = (
(402,285,l),
(402,315,l),
(205,298,l),
(204,285,l)
);
},
{
closed = 1;
nodes = (
(387,303,l),
(387,296,l),
(295,296,l)
);
},
{
closed = 1;
nodes = (
(312,551,l),
(297,551,l),
(354,688,l),
(479,688,l),
(746,20,l),
(523,20,l)
);
}
);
width = 820;
},
{
layerId = "DF54607F-DD82-41E6-B2E3-81CA6D0E5C47";
shapes = (
{
closed = 1;
nodes = (
(574,0,l),
(574,10,l),
(423,19,o),
(301,83,o),
(301,235,cs),
(301,317,o),
(333,428,o),
(412,533,cs),
(418,541,l),
(439,541,l),
(773,19,l),
(703,5,l),
(703,0,l),
(1246,0,l),
(1246,10,l),
(1198,20,l),
(758,708,l),
(514,708,l),
(57,20,l),
(5,10,l),
(5,0,l)
);
},
{
closed = 1;
nodes = (
(296,343,l),
(286,304,o),
(281,268,o),
(281,235,cs),
(281,120,o),
(321,61,o),
(427,20,c),
(81,20,l)
);
},
{
closed = 1;
nodes = (
(612,285,l),
(597,315,l),
(295,298,l),
(295,285,l)
);
},
{
closed = 1;
nodes = (
(581,303,l),
(581,296,l),
(489,296,l)
);
},
{
closed = 1;
nodes = (
(450,561,l),
(441,561,l),
(525,688,l),
(747,688,l),
(1175,20,l),
(796,20,l)
);
}
);
width = 1251;
},
{
background = {
shapes = (
{
closed = 1;
nodes = (
(222,-5,l),
(222,15,l),
(148,15,o),
(127,24,o),
(127,54,cs),
(127,65,o),
(132,82,o),
(139,101,cs),
(353,675,l),
(356,675,l),
(597,28,l),
(528,14,l),
(528,-5,l),
(694,-5,l),
(694,14,l),
(623,29,l),
(366,713,l),
(342,713,l),
(86,29,l),
(15,14,l),
(15,-5,l)
);
},
{
closed = 1;
nodes = (
(25,6,l),
(94,21,l),
(348,703,l),
(360,703,l),
(615,21,l),
(684,6,l),
(684,5,l),
(538,5,l),
(538,6,l),
(611,20,l),
(362,685,l),
(347,685,l),
(129,105,ls),
(122,86,o),
(117,67,o),
(117,54,cs),
(117,18,o),
(281,5,o),
(212,5,cs),
(25,5,l)
);
},
{
closed = 1;
nodes = (
(516,285,l),
(516,310,l),
(190,305,l),
(190,285,l)
);
},
{
closed = 1;
nodes = (
(506,300,l),
(506,295,l),
(200,295,l)
);
},
{
closed = 1;
nodes = (
(25,6,l),
(94,21,l),
(348,703,l),
(360,703,l),
(615,21,l),
(684,6,l),
(684,5,l),
(538,5,l),
(538,6,l),
(611,20,l),
(362,685,l),
(347,685,l),
(129,105,ls),
(122,86,o),
(117,67,o),
(117,54,cs),
(117,18,o),
(281,5,o),
(212,5,cs),
(25,5,l)
);
},
{
closed = 1;
nodes = (
(516,285,l),
(516,310,l),
(190,305,l),
(190,285,l)
);
},
{
closed = 1;
nodes = (
(506,300,l),
(506,295,l),
(200,295,l)
);
},
{
closed = 1;
nodes = (
(348,703,l),
(360,703,l),
(621,7,l),
(616,7,l),
(362,689,l),
(343,689,l)
);
}
);
};
layerId = "A5088515-37FF-452F-BD44-18A7A5EF88F0";
shapes = (
{
closed = 1;
nodes = (
(217,0,l),
(217,10,l),
(146,10,o),
(122,21,o),
(122,54,cs),
(122,66,o),
(126,84,o),
(134,103,c),
(350,680,l),
(359,680,l),
(604,24,l),
(533,10,l),
(533,0,l),
(689,0,l),
(689,10,l),
(619,25,l),
(363,708,l),
(345,708,l),
(90,25,l),
(20,10,l),
(20,0,l)
);
},
{
closed = 1;
nodes = (
(126,103,l),
(117,80,o),
(113,65,o),
(113,50,cs),
(113,24,o),
(128,11,o),
(160,5,c),
(89,5,l)
);
},
{
closed = 1;
nodes = (
(507,290,l),
(501,305,l),
(195,300,l),
(195,290,l)
);
},
{
closed = 1;
nodes = (
(494,300,l),
(494,295,l),
(200,295,l)
);
},
{
closed = 1;
nodes = (
(362,686,l),
(342,686,l),
(348,703,l),
(360,703,l),
(621,7,l),
(616,7,l)
);
}
);
width = 709;
},
{
background = {
shapes = (
{
closed = 1;
nodes = (
(332,0,l),
(332,10,l),
(223,10,o),
(187,21,o),
(187,53,cs),
(187,65,o),
(193,83,o),
(205,103,cs),
(534,680,l),
(549,680,l),
(922,24,l),
(814,10,l),
(814,0,l),
(1044,0,l),
(1044,10,l),
(937,25,l),
(547,708,l),
(535,708,l),
(147,25,l),
(40,10,l),
(40,0,l)
);
},
{
closed = 1;
nodes = (
(773,290,l),
(773,305,l),
(307,300,l),
(307,290,l)
);
},
{
closed = 1;
nodes = (
(44,7,l),
(150,21,l),
(537,704,l),
(545,704,l),
(935,21,l),
(1040,7,l),
(1040,4,l),
(818,4,l),
(818,6,l),
(928,21,l),
(551,684,l),
(532,684,l),
(202,105,l),
(189,85,o),
(183,66,o),
(183,53,cs),
(183,18,o),
(221,6,o),
(328,6,c),
(328,4,l),
(44,4,l)
);
},
{
closed = 1;
nodes = (
(777,286,l),
(777,309,l),
(303,304,l),
(303,286,l)
);
},
{
closed = 1;
nodes = (
(311,296,l),
(769,301,l),
(769,294,l),
(311,294,l)
);
}
);
};
layerId = "35A90D60-3AD4-435C-9F8B-D1CA483F6F66";
shapes = (
{
closed = 1;
nodes = (
(332,0,l),
(332,10,l),
(223,10,o),
(187,21,o),
(187,53,cs),
(187,65,o),
(193,83,o),
(205,103,cs),
(534,680,l),
(549,680,l),
(922,24,l),
(814,10,l),
(814,0,l),
(1044,0,l),
(1044,10,l),
(937,25,l),
(547,708,l),
(535,708,l),
(147,25,l),
(40,10,l),
(40,0,l)
);
},
{
closed = 1;
nodes = (
(198,103,l),
(184,80,o),
(179,66,o),
(179,50,cs),
(179,24,o),
(201,11,o),
(248,5,c),
(142,5,l)
);
},
{
closed = 1;
nodes = (
(773,290,l),
(765,305,l),
(307,300,l),
(307,290,l)
);
},
{
closed = 1;
nodes = (
(763,300,l),
(763,294,l),
(316,295,l)
);
},
{
closed = 1;
nodes = (
(552,684,l),
(526,684,l),
(537,703,l),
(545,703,l),
(942,7,l),
(937,7,l)
);
}
);
width = 1084;
}
);
unicode = 65;
},
{
color = 4;
glyphname = AE;
kernLeft = A;
kernRight = E;
lastChange = "2022-08-05 06:04:53 +0000";
layers = (
{
background = {
shapes = (
{
closed = 1;
nodes = (
(278,410,l),
(244,313,o),
(227,233,o),
(227,167,cs),
(227,106,o),
(247,54,o),
(290,20,c),
(78,20,l)
);
}
);
};
layerId = "2660E96A-9963-4076-AFCB-E451BC6EE103";
shapes = (
{
closed = 1;
nodes = (
(348,0,l),
(348,10,l),
(279,36,o),
(247,93,o),
(247,167,cs),
(247,282,o),
(302,447,o),
(414,667,c),
(420,678,l),
(465,666,l),
(465,708,l),
(347,708,l),
(347,698,l),
(397,684,l),
(58,25,l),
(5,10,l),
(5,0,l)
);
},
{
closed = 1;
nodes = (
(455,315,l),
(455,345,l),
(261,325,l),
(261,315,l)
);
},
{
closed = 1;
nodes = (
(797,692,o),
(847,659,o),
(880,598,cs),
(975,424,l),
(985,424,l),
(1020,708,l),
(388,708,l),
(388,698,l),
(438,683,l),
(438,25,l),
(388,10,l),
(388,0,l),
(1020,0,l),
(985,284,l),
(975,284,l),
(906,138,ls),
(870,62,o),
(810,17,o),
(765,16,cs),
(683,15,l),
(683,356,l),
(693,356,l),
(839,246,l),
(849,246,l),
(849,506,l),
(839,506,l),
(833,486,o),
(811,439,o),
(777,405,cs),
(757,384,o),
(731,368,o),
(703,366,c),
(683,366,l),
(683,693,l),
(765,692,ls)
);
},
{
closed = 1;
nodes = (
(458,688,l),
(663,688,l),
(663,20,l),
(458,20,l)
);
},
{
closed = 1;
nodes = (
(771,362,o),
(796,384,o),
(827,433,c),
(827,282,l),
(736,351,l)
);
},
{
closed = 1;
nodes = (
(874,43,o),
(901,76,o),
(926,129,cs),
(971,223,l),
(995,20,l),
(841,20,l)
);
},
{
closed = 1;
nodes = (
(899,609,ls),
(878,648,o),
(860,669,o),
(835,688,c),
(995,688,l),
(970,479,l)
);
},
{
closed = 1;
nodes = (
(278,410,l),
(281,410,l),
(248,315,o),
(227,232,o),
(227,167,cs),
(227,106,o),
(247,54,o),
(290,20,c),
(78,20,l)
);
}
);
width = 1070;
},
{
background = {
shapes = (
{
closed = 1;
nodes = (
(550,573,l),
(442,421,o),
(345,273,o),
(345,164,cs),
(344,91,o),
(386,46,o),
(445,20,c),
(88,20,l)
);
}
);
};
layerId = "DF54607F-DD82-41E6-B2E3-81CA6D0E5C47";
shapes = (
{
closed = 1;
nodes = (
(578,0,l),
(578,10,l),
(471,17,o),
(363,57,o),
(365,164,cs),
(365,292,o),
(509,482,o),
(643,670,c),
(649,678,l),
(675,673,l),
(675,708,l),
(543,708,l),
(543,698,l),
(616,684,l),
(61,20,l),
(5,10,l),
(5,0,l)
);
},
{
closed = 1;
nodes = (
(384,285,l),
(686,285,l),
(686,315,l),
(388,297,l)
);
},
{
closed = 1;
nodes = (
(1431,691,o),
(1533,657,o),
(1623,579,cs),
(1800,424,l),
(1810,424,l),
(1884,708,l),
(618,708,l),
(618,698,l),
(668,688,l),
(668,20,l),
(618,10,l),
(618,0,l),
(1884,0,l),
(1810,284,l),
(1800,284,l),
(1652,140,ls),
(1565,55,o),
(1451,17,o),
(1343,16,cs),
(1188,15,l),
(1188,356,l),
(1200,356,l),
(1511,246,l),
(1521,246,l),
(1521,506,l),
(1511,506,l),
(1499,488,o),
(1454,449,o),
(1393,416,cs),
(1343,390,o),
(1282,368,o),
(1221,366,c),
(1188,366,l),
(1188,693,l),
(1343,692,ls)
);
},
{
closed = 1;
nodes = (
(688,688,l),
(1168,688,l),
(1168,20,l),
(688,20,l)
);
},
{
closed = 1;
nodes = (
(1371,372,o),
(1426,399,o),
(1499,462,c),
(1499,274,l),
(1279,351,l)
);
},
{
closed = 1;
nodes = (
(1555,39,o),
(1615,73,o),
(1667,124,cs),
(1796,250,l),
(1856,20,l),
(1484,20,l)
);
},
{
closed = 1;
nodes = (
(1637,596,ls),
(1585,642,o),
(1529,672,o),
(1469,688,c),
(1856,688,l),
(1796,457,l)
);
},
{
closed = 1;
nodes = (
(469,468,l),
(471,468,l),
(380,330,o),
(345,246,o),
(345,164,cs),
(344,91,o),
(386,46,o),
(445,20,c),
(88,20,l)
);
}
);
width = 1934;
},
{
background = {
shapes = (
{
closed = 1;
nodes = (
(624,285,l),
(624,310,l),
(332,305,l),
(332,285,l)
);
},
{
closed = 1;
nodes = (
(614,300,l),
(614,295,l),
(342,295,l)
);
}
);
};
layerId = "35A90D60-3AD4-435C-9F8B-D1CA483F6F66";
name = "Thin Extended";
shapes = (
{
closed = 1;
nodes = (
(328,0,l),
(328,10,l),
(224,10,o),
(189,20,o),
(188,51,cs),
(188,64,o),
(195,81,o),
(210,103,c),
(603,680,l),
(613,678,l),
(613,708,l),
(516,708,l),
(516,698,l),
(591,687,l),
(140,25,l),
(40,10,l),
(40,0,l)
);
},
{
closed = 1;
nodes = (
(612,290,l),
(612,305,l),
(341,300,l),
(335,290,l)
);
},
{
closed = 1;
nodes = (
(1300,693,o),
(1316,676,o),
(1310,625,c),
(1293,484,l),
(1308,484,l),
(1342,708,l),
(506,708,l),
(506,698,l),
(610,683,l),
(610,25,l),
(501,10,l),
(501,0,l),
(1342,0,l),
(1308,243,l),
(1293,243,l),
(1314,91,l),
(1322,34,o),
(1310,15,o),
(1265,15,cs),
(625,15,l),
(625,353,l),
(995,353,l),
(1001,256,l),
(1011,256,l),
(1011,498,l),
(1001,498,l),
(1001,434,o),
(997,392,o),
(990,381,cs),
(985,372,o),
(976,368,o),
(964,368,cs),
(625,368,l),
(625,693,l),
(1248,693,ls)
);
},
{
closed = 1;
nodes = (
(615,703,l),
(620,703,l),
(620,5,l),
(615,5,l)
);
},
{
closed = 1;
nodes = (
(1001,369,o),
(1003,379,o),
(1004,388,c),
(1004,288,l),
(1000,360,l)
);
},
{
closed = 1;
nodes = (
(1315,8,o),
(1329,31,o),
(1321,92,cs),
(1302,236,l),
(1334,7,l),
(1265,7,l)
);
},
{
closed = 1;
nodes = (
(1317,624,ls),
(1323,679,o),
(1304,700,o),
(1248,701,c),
(1334,701,l),
(1302,491,l)
);
},
{
closed = 1;
nodes = (
(233,153,l),
(236,153,l),
(195,92,o),
(181,66,o),
(181,50,cs),
(181,24,o),
(203,11,o),
(250,5,c),
(136,5,l)
);
}
);
width = 1457;
},
{
background = {
shapes = (
{
closed = 1;
nodes = (
(423,703,l),
(139,105,l),
(128,85,o),
(123,66,o),
(123,52,cs),
(123,18,o),
(150,6,o),
(221,5,c),
(86,5,l),
(419,703,l)
);
},
{
closed = 1;
nodes = (
(232,295,l),
(425,300,l),
(425,295,l),
(232,295,l)
);
}
);
};
layerId = "A5088515-37FF-452F-BD44-18A7A5EF88F0";
name = Thin;
shapes = (
{
closed = 1;
nodes = (
(226,0,l),
(226,10,l),
(153,10,o),
(128,21,o),
(128,52,cs),
(128,65,o),
(133,83,o),
(143,103,cs),
(419,680,l),
(426,678,l),
(426,708,l),
(354,708,l),
(354,698,l),
(407,687,l),
(90,25,l),
(20,10,l),
(20,0,l)
);
},
{
closed = 1;
nodes = (
(427,290,l),
(427,305,l),
(227,300,l),
(227,290,l)
);
},
{
closed = 1;
nodes = (
(822,693,o),
(838,679,o),
(833,635,c),
(817,484,l),
(832,484,l),
(866,708,l),
(354,708,l),
(354,698,l),
(424,683,l),
(424,25,l),
(354,10,l),
(354,0,l),
(866,0,l),
(832,243,l),
(817,243,l),
(839,83,l),
(846,32,o),
(834,15,o),
(789,15,cs),
(439,15,l),
(439,353,l),
(659,353,l),
(665,256,l),
(675,256,l),
(675,498,l),
(665,498,l),
(665,436,o),
(662,399,o),
(656,385,cs),
(651,374,o),
(641,368,o),
(628,368,c),
(439,368,l),
(439,693,l),
(772,693,ls)
);
},
{
closed = 1;
nodes = (
(429,703,l),
(434,703,l),
(434,5,l),
(429,5,l)
);
},
{
closed = 1;
nodes = (
(665,369,o),
(667,379,o),
(668,388,c),
(668,288,l),
(664,360,l)
);
},
{
closed = 1;
nodes = (
(839,8,o),
(854,29,o),
(846,84,cs),
(825,236,l),
(858,7,l),
(789,7,l)
);
},
{
closed = 1;
nodes = (
(840,634,ls),
(845,683,o),
(826,700,o),
(772,701,c),
(858,701,l),
(826,491,l)
);
},
{
closed = 1;
nodes = (
(157,153,l),
(160,153,l),
(131,88,o),
(121,62,o),
(121,50,cs),
(121,24,o),
(136,11,o),
(168,5,c),
(90,5,l)
);
}
);
width = 941;
}
);
metricLeft = A;
metricRight = E;
unicode = 198;
},
{
color = 4;
glyphname = B;
kernLeft = HH;
kernRight = B;
lastChange = "2022-08-05 06:04:53 +0000";
layers = (
{
layerId = "2660E96A-9963-4076-AFCB-E451BC6EE103";
shapes = (
{
closed = 1;
nodes = (
(441,0,ls),
(638,0,o),
(746,58,o),
(746,192,cs),
(746,326,o),
(584,370,o),
(438,370,c),
(438,380,l),
(553,380,o),
(720,423,o),
(720,554,cs),
(720,655,o),
(625,708,o),
(463,708,cs),
(20,708,l),
(20,698,l),
(70,683,l),
(70,25,l),
(20,10,l),
(20,0,l)
);
},
{
closed = 1;
nodes = (
(90,688,l),
(295,688,l),
(295,20,l),
(90,20,l)
);
},
{
closed = 1;
nodes = (
(383,14,o),
(329,15,o),
(315,20,c),
(315,686,l),
(322,690,o),
(379,692,o),
(405,692,cs),
(465,691,o),
(505,638,o),
(505,554,cs),
(505,427,o),
(449,384,o),
(379,382,cs),
(309,380,l),
(309,370,l),
(379,367,ls),
(467,363,o),
(515,324,o),
(515,208,cs),
(515,59,o),
(452,16,o),
(394,14,cs)
);
},
{
closed = 1;
nodes = (
(518,59,o),
(535,112,o),
(535,208,cs),
(535,276,o),
(520,319,o),
(488,350,c),
(615,341,o),
(726,297,o),
(726,192,cs),
(726,76,o),
(642,24,o),
(472,19,c)
);
},
{
closed = 1;
nodes = (
(508,431,o),
(525,482,o),
(525,554,cs),
(525,615,o),
(508,660,o),
(473,688,c),
(623,686,o),
(700,641,o),
(700,554,cs),
(700,453,o),
(583,407,o),
(476,399,c)
);
}
);
width = 776;
},
{
layerId = "DF54607F-DD82-41E6-B2E3-81CA6D0E5C47";
shapes = (
{
closed = 1;
nodes = (
(716,0,ls),
(1073,0,o),
(1335,80,o),
(1335,192,cs),
(1335,296,o),
(1092,370,o),
(783,370,c),
(783,380,l),
(1100,380,o),
(1309,445,o),
(1309,554,cs),
(1309,651,o),
(1091,708,o),
(738,708,cs),
(20,708,l),
(20,698,l),
(70,683,l),
(70,25,l),
(20,10,l),
(20,0,l)
);
},
{
closed = 1;
nodes = (
(90,688,l),
(570,688,l),
(570,20,l),
(90,20,l)
);
},
{
closed = 1;
nodes = (
(658,14,o),
(604,15,o),
(590,20,c),
(590,686,l),
(597,690,o),
(654,692,o),
(680,692,cs),
(740,691,o),
(780,638,o),
(780,554,cs),
(780,427,o),
(724,384,o),
(654,382,cs),
(584,380,l),
(584,370,l),
(654,367,ls),
(742,363,o),
(790,324,o),
(790,208,cs),
(790,59,o),
(727,16,o),
(669,14,cs)
);
},
{
closed = 1;
nodes = (
(789,50,o),
(810,113,o),
(810,208,cs),
(810,270,o),
(795,318,o),
(769,350,c),
(1089,350,o),
(1315,281,o),
(1315,192,cs),
(1315,97,o),
(1081,22,o),
(746,19,c)
);
},
{
closed = 1;
nodes = (
(784,433,o),
(800,484,o),
(800,554,cs),
(800,618,o),
(783,662,o),
(748,688,c),
(1090,688,o),
(1289,636,o),
(1289,554,cs),
(1289,460,o),
(1097,399,o),
(756,400,c)
);
}
);
width = 1365;
},
{
background = {
shapes = (
{
closed = 1;
nodes = (
(100,708,l),
(100,698,l),
(209,683,l),
(209,25,l),
(100,10,l),
(100,0,l),
(546,0,l),
(819,2,o),
(953,63,o),
(953,187,cs),
(953,314,o),
(823,361,o),
(649,369,c),
(649,374,l),
(775,384,o),
(879,437,o),
(879,537,cs),
(879,652,o),
(766,708,o),
(536,708,cs)
);
},
{
closed = 1;
nodes = (
(750,692,o),
(864,641,o),
(864,537,cs),
(864,458,o),
(780,377,o),
(544,377,c),
(210,374,l),
(210,364,l),
(544,361,l),
(823,361,o),
(938,298,o),
(938,187,cs),
(938,72,o),
(803,15,o),
(546,15,cs),
(462,15,o),
(296,18,o),
(224,24,c),
(224,683,l),
(302,691,o),
(447,692,o),
(536,692,cs)
);
},
{
closed = 1;
nodes = (
(527,10,l),
(534,10,o),
(540,10,o),
(546,10,cs),
(805,10,o),
(943,68,o),
(943,187,cs),
(943,286,o),
(856,347,o),
(653,362,c),
(653,364,l),
(824,355,o),
(948,310,o),
(948,187,cs),
(948,66,o),
(818,7,o),
(546,5,cs),
(526,5,l)
);
},
{
closed = 1;
nodes = (
(524,703,l),
(536,703,ls),
(765,703,o),
(874,649,o),
(874,537,cs),
(874,442,o),
(777,391,o),
(655,380,c),
(655,379,l),
(810,401,o),
(869,469,o),
(869,537,cs),
(869,645,o),
(752,697,o),
(536,697,cs),
(532,697,o),
(529,697,o),
(525,697,c)
);
}
);
};
layerId = "35A90D60-3AD4-435C-9F8B-D1CA483F6F66";
name = "Thin Extended";
shapes = (
{
closed = 1;
nodes = (
(546,0,l),
(819,2,o),
(953,63,o),
(953,187,cs),
(953,314,o),
(823,361,o),
(649,369,c),
(649,374,l),
(775,384,o),
(879,437,o),
(879,537,cs),
(879,652,o),
(766,708,o),
(536,708,cs),
(100,708,l),
(100,698,l),
(209,683,l),
(209,25,l),
(100,10,l),
(100,0,l)
);
},
{
closed = 1;
nodes = (
(214,703,l),
(219,703,l),
(219,5,l),
(214,5,l)
);
},
{
closed = 1;
nodes = (
(462,15,o),
(296,18,o),
(224,24,c),
(224,683,l),
(302,691,o),
(447,692,o),
(536,692,cs),
(750,692,o),
(864,641,o),
(864,537,cs),
(864,458,o),
(780,377,o),
(544,377,c),
(210,374,l),
(210,364,l),
(544,361,l),
(823,361,o),
(938,298,o),
(938,187,cs),
(938,72,o),
(803,15,o),
(546,15,cs)
);
},
{
closed = 1;
nodes = (
(848,34,o),
(943,88,o),
(943,187,cs),
(943,278,o),
(870,337,o),
(701,359,c),
(853,343,o),
(948,295,o),
(948,187,cs),
(948,89,o),
(863,34,o),
(685,15,c)
);
},
{
closed = 1;
nodes = (
(817,410,o),
(869,473,o),
(869,537,cs),
(869,618,o),
(805,669,o),
(676,692,c),
(808,672,o),
(874,620,o),
(874,537,cs),
(874,452,o),
(796,402,o),
(690,384,c)
);
}
);
width = 1023;
},
{
layerId = "A5088515-37FF-452F-BD44-18A7A5EF88F0";
name = Thin;
shapes = (
{
closed = 1;
nodes = (
(361,0,ls),
(528,0,o),
(609,63,o),
(609,187,cs),
(609,314,o),
(530,361,o),
(424,369,c),
(424,374,l),
(501,384,o),
(564,437,o),
(564,537,cs),
(564,652,o),
(495,708,o),
(355,708,cs),
(80,708,l),
(80,698,l),
(150,683,l),
(150,25,l),
(80,10,l),
(80,0,l)
);
},
{
closed = 1;
nodes = (
(155,703,l),
(160,703,l),
(160,5,l),
(155,5,l)
);
},
{
closed = 1;
nodes = (
(310,15,o),
(209,18,o),
(165,24,c),
(165,683,l),
(213,691,o),
(301,692,o),
(355,692,cs),
(485,692,o),
(549,641,o),
(549,537,cs),
(549,458,o),
(503,379,o),
(360,377,cs),
(162,374,l),
(162,364,l),
(360,361,ls),
(530,358,o),
(594,298,o),
(594,187,cs),
(594,72,o),
(517,15,o),
(361,15,cs)
);
},
{
closed = 1;
nodes = (
(544,34,o),
(599,89,o),
(599,187,cs),
(599,279,o),
(552,339,o),
(455,359,c),
(540,344,o),
(604,296,o),
(604,187,cs),
(604,89,o),
(553,34,o),
(445,15,c)
);
},
{
closed = 1;
nodes = (
(521,410,o),
(554,474,o),
(554,537,cs),
(554,623,o),
(511,674,o),
(434,692,c),
(521,674,o),
(559,623,o),
(559,537,cs),
(559,451,o),
(508,402,o),
(447,384,c)
);
}
);
width = 669;
}
);
metricLeft = H;
unicode = 66;
},
{
color = 4;
glyphname = C;
kernLeft = OO;
kernRight = C;
lastChange = "2022-08-05 06:04:53 +0000";
layers = (
{
layerId = "2660E96A-9963-4076-AFCB-E451BC6EE103";
shapes = (
{
closed = 1;
nodes = (
(690,134,l),
(649,105,o),
(601,93,o),
(552,93,cs),
(348,93,o),
(272,263,o),
(272,428,cs),
(271,574,o),
(309,711,o),
(374,711,cs),
(441,711,o),
(502,645,o),
(558,513,cs),
(621,364,l),
(641,364,l),
(701,660,l),
(644,685,o),
(535,723,o),
(425,723,cs),
(178,723,o),
(30,584,o),
(30,352,cs),
(30,120,o),
(198,-17,o),
(403,-15,cs),
(509,-14,o),
(618,21,o),
(700,127,c)
);
},
{
closed = 1;
nodes = (
(270,650,o),
(250,555,o),
(250,428,cs),
(250,256,o),
(332,71,o),
(552,71,cs),
(576,71,o),
(600,74,o),
(624,80,c),
(558,27,o),
(481,8,o),
(403,7,cs),
(206,5,o),
(52,130,o),
(52,352,cs),
(52,533,o),
(142,651,o),
(306,692,c)
);
},
{
closed = 1;
nodes = (
(543,605,o),
(504,665,o),
(461,699,c),
(546,693,o),
(625,668,o),
(676,647,c),
(627,407,l),
(624,414,l),
(578,522,ls)
);
}
);
width = 731;
},
{
layerId = "DF54607F-DD82-41E6-B2E3-81CA6D0E5C47";
shapes = (
{
closed = 1;
nodes = (
(1211,134,l),
(1138,105,o),
(1052,93,o),
(964,93,cs),
(712,93,o),
(533,232,o),
(532,448,cs),
(531,618,o),
(594,711,o),
(726,711,cs),
(819,711,o),
(906,647,o),
(989,518,cs),
(1088,364,l),
(1124,364,l),
(1231,660,l),
(1129,685,o),
(944,723,o),
(747,723,cs),
(296,723,o),
(30,585,o),
(30,352,cs),
(30,135,o),
(307,-17,o),
(698,-15,cs),
(887,-14,o),
(1082,21,o),
(1229,127,c)
);
},
{
closed = 1;
nodes = (
(541,653,o),
(509,571,o),
(510,448,cs),
(511,218,o),
(701,71,o),
(964,71,cs),
(1012,71,o),
(1061,75,o),
(1107,83,c),
(984,28,o),
(841,8,o),
(698,7,cs),
(313,5,o),
(52,148,o),
(52,352,cs),
(52,547,o),
(247,670,o),
(607,698,c)
);
},
{
closed = 1;
nodes = (
(957,609,o),
(904,665,o),
(847,698,c),
(989,689,o),
(1117,664,o),
(1202,644,c),
(1109,386,l),
(1100,386,l),
(1008,530,ls)
);
}
);
width = 1261;
},
{
layerId = "A5088515-37FF-452F-BD44-18A7A5EF88F0";
shapes = (
{
closed = 1;
nodes = (
(633,144,l),
(578,53,o),
(484,0,o),
(379,0,cs),
(201,0,o),
(96,130,o),
(95,350,cs),
(94,560,o),
(215,708,o),
(387,708,cs),
(558,708,o),
(624,652,o),
(604,525,cs),
(582,384,l),
(598,384,l),
(645,616,l),
(590,688,o),
(505,723,o),
(387,723,cs),
(207,723,o),
(80,568,o),
(80,350,cs),
(80,121,o),
(191,-15,o),
(379,-15,cs),
(496,-15,o),
(594,41,o),
(643,137,c)
);
},
{
closed = 1;
nodes = (
(165,649,o),
(89,515,o),
(90,350,cs),
(91,127,o),
(197,-5,o),
(379,-5,cs),
(447,-5,o),
(513,16,o),
(565,54,c),
(518,13,o),
(451,-10,o),
(379,-10,cs),
(194,-10,o),
(85,123,o),
(85,350,cs),
(85,518,o),
(163,652,o),
(288,698,c)
);
},
{
closed = 1;
nodes = (
(624,605,o),
(601,659,o),
(543,688,c),
(580,671,o),
(613,646,o),
(638,614,c),
(592,391,l),
(590,391,l),
(611,524,ls)
);
}
);
width = 725;
},
{
layerId = "35A90D60-3AD4-435C-9F8B-D1CA483F6F66";
shapes = (
{
closed = 1;
nodes = (
(986,144,l),
(897,53,o),
(744,0,o),
(574,0,cs),
(287,0,o),
(107,130,o),
(105,350,cs),
(104,560,o),
(309,708,o),
(587,708,cs),
(846,708,o),
(987,634,o),
(953,517,cs),
(914,384,l),
(929,384,l),
(1005,616,l),
(916,688,o),
(778,723,o),
(587,723,cs),
(296,723,o),
(90,568,o),
(90,350,cs),
(90,121,o),
(270,-15,o),
(574,-15,cs),
(764,-15,o),
(923,41,o),
(1002,137,c)
);
},
{
closed = 1;
nodes = (
(224,650,o),
(99,516,o),
(100,350,cs),
(102,126,o),
(284,-5,o),
(574,-5,cs),
(684,-5,o),
(792,16,o),
(875,54,c),
(801,13,o),
(693,-10,o),
(574,-10,cs),
(272,-10,o),
(95,124,o),
(95,350,cs),
(95,519,o),
(222,653,o),
(424,698,c)
);
},
{
closed = 1;
nodes = (
(984,595,o),
(940,653,o),
(828,688,c),
(903,671,o),
(955,647,o),
(997,614,c),
(924,391,l),
(923,391,l),
(960,515,ls)
);
}
);
width = 1095;
}
);
metricLeft = O;
metricRight = O;
unicode = 67;
},
{
color = 4;
glyphname = D;
kernLeft = HH;
kernRight = O;
lastChange = "2022-08-05 06:04:53 +0000";
layers = (
{
background = {
shapes = (
{
closed = 1;
nodes = (
(461,23,c),
(527,77,o),
(557,202,o),
(557,377,cs),
(557,521,o),
(527,635,o),
(462,685,c),
(635,676,o),
(763,563,o),
(763,361,cs),
(763,152,o),
(640,32,o)
);
}
);
};
layerId = "2660E96A-9963-4076-AFCB-E451BC6EE103";
shapes = (
{
closed = 1;
nodes = (
(20,708,l),
(20,698,l),
(70,693,l),
(70,20,l),
(20,10,l),
(20,0,l),
(437,0,ls),
(637,0,o),
(785,133,o),
(785,361,cs),
(785,584,o),
(630,708,o),
(437,708,cs)
);
},
{
closed = 1;
nodes = (
(483,692,o),
(535,566,o),
(535,377,cs),
(535,146,o),
(483,15,o),
(377,15,cs),
(335,15,l),
(315,35,l),
(315,689,l),
(334,691,o),
(360,692,o),
(377,692,cs)
);
},
{
closed = 1;
nodes = (
(90,688,l),
(295,688,l),
(295,20,l),
(90,20,l)
);
},
{
closed = 1;
nodes = (
(527,77,o),
(557,202,o),
(557,377,cs),
(557,521,o),
(527,635,o),
(462,685,c),
(635,676,o),
(763,563,o),
(763,361,cs),
(763,152,o),
(640,32,o),
(461,23,c)
);
}
);
width = 815;
},
{
layerId = "DF54607F-DD82-41E6-B2E3-81CA6D0E5C47";
shapes = (
{
closed = 1;
nodes = (
(20,708,l),
(20,698,l),
(70,683,l),
(70,20,l),
(20,10,l),
(20,0,l),
(712,0,ls),
(1110,0,o),
(1345,134,o),
(1345,361,cs),
(1345,579,o),
(1110,708,o),
(712,708,cs)
);
},
{
closed = 1;
nodes = (
(758,692,o),
(810,566,o),
(810,377,cs),
(810,146,o),
(758,15,o),
(652,15,cs),
(610,15,l),
(590,35,l),
(590,689,l),
(609,691,o),
(635,692,o),
(652,692,cs)
);
},
{
closed = 1;
nodes = (
(90,689,l),
(570,689,l),
(570,20,l),
(90,20,l)
);
},
{
closed = 1;
nodes = (
(802,77,o),
(832,202,o),
(832,377,cs),
(832,521,o),
(802,635,o),
(737,686,c),
(1113,681,o),
(1323,562,o),
(1323,361,cs),
(1323,151,o),
(1113,27,o),
(736,22,c)
);
}
);
width = 1375;
},
{
layerId = "A5088515-37FF-452F-BD44-18A7A5EF88F0";
shapes = (
{
closed = 1;
nodes = (
(80,708,l),
(80,698,l),
(150,683,l),
(150,25,l),
(80,10,l),
(80,0,l),
(351,0,l),
(556,0,o),
(656,117,o),
(656,357,cs),
(656,593,o),
(554,708,o),
(346,708,c)
);
},
{
closed = 1;
nodes = (
(544,692,o),
(641,582,o),
(641,357,cs),
(641,127,o),
(546,15,o),
(351,15,c),
(185,15,l),
(165,35,l),
(165,683,l),
(194,691,o),
(247,692,o),
(346,692,c)
);
},
{
closed = 1;
nodes = (
(155,703,l),
(160,703,l),
(160,5,l),
(155,5,l)
);
},
{
closed = 1;
nodes = (
(593,78,o),
(646,186,o),
(646,357,cs),
(646,522,o),
(594,628,o),
(490,677,c),
(598,629,o),
(652,523,o),
(652,357,cs),
(652,185,o),
(597,77,o),
(487,31,c)
);
}
);
width = 736;
},
{
layerId = "35A90D60-3AD4-435C-9F8B-D1CA483F6F66";
shapes = (
{
closed = 1;
nodes = (
(100,708,l),
(100,698,l),
(209,683,l),
(209,25,l),
(100,10,l),
(100,0,l),
(535,0,l),
(879,0,o),
(1037,117,o),
(1037,357,cs),
(1037,593,o),
(876,708,o),
(527,708,c)
);
},
{
closed = 1;
nodes = (
(859,692,o),
(1022,582,o),
(1022,357,cs),
(1022,127,o),
(862,15,o),
(535,15,c),
(257,15,l),
(224,35,l),
(224,683,l),
(272,691,o),
(361,692,o),
(527,692,c)
);
},
{
closed = 1;
nodes = (
(214,703,l),
(219,703,l),
(219,5,l),
(214,5,l)
);
},
{
closed = 1;
nodes = (
(938,74,o),
(1027,182,o),
(1027,358,cs),
(1027,528,o),
(939,634,o),
(760,677,c),
(942,635,o),
(1032,529,o),
(1032,358,cs),
(1032,179,o),
(942,71,o),
(759,31,c)
);
}
);
width = 1127;
}
);
metricLeft = H;
metricRight = O;
unicode = 68;
},
{
color = 3;
glyphname = Eth;
kernLeft = HH;
kernRight = O;
lastChange = "2022-08-05 06:04:53 +0000";
layers = (
{
hints = (
{
horizontal = 1;
place = (34535,100);
type = Stem;
},
{
horizontal = 1;
place = (366.355,0);
type = Stem;
}
);
layerId = "2660E96A-9963-4076-AFCB-E451BC6EE103";
shapes = (
{
closed = 1;
nodes = (
(24,350,l),
(387,350,l),
(387,365,l),
(24,365,l)
);
},
{
ref = D;
}
);
width = 815;
},
{
hints = (
{
horizontal = 1;
place = (34535,100);
type = Stem;
},
{
horizontal = 1;
place = (366.355,0);
type = Stem;
}
);
layerId = "DF54607F-DD82-41E6-B2E3-81CA6D0E5C47";
shapes = (
{
closed = 1;
nodes = (
(24,350,l),
(666,350,l),
(666,365,l),
(24,365,l)
);
},
{
ref = D;
}
);
width = 1375;
},
{
hints = (
{
horizontal = 1;
place = (34535,100);
type = Stem;
},
{
horizontal = 1;
place = (366.355,0);
type = Stem;
}
);
layerId = "A5088515-37FF-452F-BD44-18A7A5EF88F0";
shapes = (
{
closed = 1;
nodes = (
(100,350,l),
(357,350,l),
(357,365,l),
(100,365,l)
);
},
{
ref = D;
}
);
width = 736;
},
{
hints = (
{
horizontal = 1;
place = (34535,100);
type = Stem;
},
{
horizontal = 1;
place = (366.355,0);
type = Stem;
}
);
layerId = "35A90D60-3AD4-435C-9F8B-D1CA483F6F66";
shapes = (
{
closed = 1;
nodes = (
(100,350,l),
(530,350,l),
(530,365,l),
(100,365,l)
);
},
{
ref = D;
}
);
width = 1127;
}
);
metricLeft = D;
metricRight = D;
unicode = 208;
},
{
color = 4;
glyphname = E;
kernLeft = HH;
kernRight = E;
lastChange = "2022-08-05 06:04:53 +0000";
layers = (
{
layerId = "2660E96A-9963-4076-AFCB-E451BC6EE103";
shapes = (
{
closed = 1;
nodes = (
(652,0,l),
(617,284,l),
(607,284,l),
(538,138,ls),
(502,62,o),
(442,17,o),
(397,16,cs),
(315,15,l),
(315,356,l),
(325,356,l),
(471,246,l),
(481,246,l),
(481,506,l),
(471,506,l),
(465,485,o),
(442,438,o),
(408,404,cs),
(387,383,o),
(363,366,o),
(335,366,cs),
(315,366,l),
(315,693,l),
(397,692,ls),
(429,692,o),
(479,659,o),
(512,598,cs),
(607,424,l),
(617,424,l),
(652,708,l),
(20,708,l),
(20,698,l),
(70,683,l),
(70,25,l),
(20,10,l),
(20,0,l)
);
},
{
closed = 1;
nodes = (
(90,688,l),
(295,688,l),
(295,20,l),
(90,20,l)
);
},
{
closed = 1;
nodes = (
(403,362,o),
(428,384,o),
(459,433,c),
(459,282,l),
(368,351,l)
);
},
{
closed = 1;
nodes = (
(506,43,o),
(532,76,o),
(558,129,cs),
(603,223,l),
(627,20,l),
(473,20,l)
);
},
{
closed = 1;
nodes = (
(531,609,ls),
(510,648,o),
(492,669,o),
(467,688,c),
(627,688,l),
(602,479,l)
);
}
);
width = 702;
},
{
layerId = "DF54607F-DD82-41E6-B2E3-81CA6D0E5C47";
shapes = (
{
closed = 1;
nodes = (
(1286,0,l),
(1212,284,l),
(1202,284,l),
(1054,140,ls),
(967,55,o),
(853,17,o),
(745,16,cs),
(590,15,l),
(590,356,l),
(602,356,l),
(913,246,l),
(923,246,l),
(923,506,l),
(913,506,l),
(901,488,o),
(856,449,o),
(795,416,cs),
(745,390,o),
(685,366,o),
(623,366,cs),
(590,366,l),
(590,693,l),
(745,692,ls),
(833,691,o),
(935,657,o),
(1025,579,cs),
(1202,424,l),
(1212,424,l),
(1286,708,l),
(20,708,l),
(20,698,l),
(70,688,l),
(70,20,l),
(20,10,l),
(20,0,l)
);
},
{
closed = 1;
nodes = (
(90,688,l),
(570,688,l),
(570,20,l),
(90,20,l)
);
},
{
closed = 1;
nodes = (
(773,372,o),
(828,399,o),
(901,462,c),
(901,274,l),
(681,351,l)
);
},
{
closed = 1;
nodes = (
(957,39,o),
(1017,73,o),
(1069,124,cs),
(1198,250,l),
(1258,20,l),
(886,20,l)
);
},
{
closed = 1;
nodes = (
(1039,596,ls),
(987,642,o),
(931,672,o),
(871,688,c),
(1258,688,l),
(1198,457,l)
);
}
);
width = 1336;
},
{
layerId = "A5088515-37FF-452F-BD44-18A7A5EF88F0";
shapes = (
{
closed = 1;
nodes = (
(592,0,l),
(558,243,l),
(543,243,l),
(565,83,ls),
(572,32,o),
(560,15,o),
(515,15,cs),
(165,15,l),
(165,353,l),
(385,353,l),
(391,256,l),
(401,256,l),
(401,498,l),
(391,498,l),
(391,433,o),
(388,395,o),
(382,385,cs),
(376,374,o),
(366,368,o),
(354,368,cs),
(165,368,l),
(165,693,l),
(498,693,ls),
(548,693,o),
(564,679,o),
(559,635,cs),
(543,484,l),
(558,484,l),
(592,708,l),
(80,708,l),
(80,698,l),
(150,683,l),
(150,25,l),
(80,10,l),
(80,0,l)
);
},
{
closed = 1;
nodes = (
(155,703,l),
(160,703,l),
(160,5,l),
(155,5,l)
);
},
{
closed = 1;
nodes = (
(391,369,o),
(393,379,o),
(394,388,c),
(394,288,l),
(390,360,l)
);
},
{
closed = 1;
nodes = (
(565,8,o),
(580,29,o),
(572,84,cs),
(551,236,l),
(584,7,l),
(515,7,l)
);
},
{
closed = 1;
nodes = (
(566,634,ls),
(571,683,o),
(552,700,o),
(498,701,c),
(584,701,l),
(552,491,l)
);
}
);
width = 667;
},
{
background = {
shapes = (
{
closed = 1;
nodes = (
(600,376,o),
(602,392,o),
(603,408,c),
(603,288,l),
(599,360,l)
);
}
);
};
layerId = "35A90D60-3AD4-435C-9F8B-D1CA483F6F66";
shapes = (
{
closed = 1;
nodes = (
(941,0,l),
(907,243,l),
(892,243,l),
(913,91,ls),
(921,34,o),
(909,15,o),
(864,15,cs),
(224,15,l),
(224,353,l),
(594,353,l),
(600,256,l),
(610,256,l),
(610,498,l),
(600,498,l),
(600,434,o),
(596,392,o),
(589,381,cs),
(585,373,o),
(575,368,o),
(563,368,cs),
(224,368,l),
(224,693,l),
(847,693,ls),
(899,693,o),
(915,676,o),
(909,625,cs),
(892,484,l),
(907,484,l),
(941,708,l),
(100,708,l),
(100,698,l),
(209,683,l),
(209,25,l),
(100,10,l),
(100,0,l)
);
},
{
closed = 1;
nodes = (
(214,703,l),
(219,703,l),
(219,5,l),
(214,5,l)
);
},
{
closed = 1;
nodes = (
(600,369,o),
(602,379,o),
(603,388,c),
(603,288,l),
(599,360,l)
);
},
{
closed = 1;
nodes = (
(914,8,o),
(928,31,o),
(920,92,cs),
(901,236,l),
(933,7,l),
(864,7,l)
);
},
{
closed = 1;
nodes = (
(916,624,ls),
(922,679,o),
(903,700,o),
(847,701,c),
(933,701,l),
(901,491,l)
);
}
);
width = 1056;
}
);
metricLeft = H;
unicode = 69;
},
{
color = 4;
glyphname = F;
kernLeft = HH;
kernRight = F;
lastChange = "2022-08-05 06:04:53 +0000";
layers = (
{
background = {
shapes = (
{
closed = 1;
nodes = (
(40,-5,l),
(90,10,l),
(90,688,l),
(295,688,l),
(295,20,l),
(40,20,l)
);
},
{
closed = 1;
nodes = (
(90,688,l),
(90,698,l),
(40,713,l),
(40,688,l)
);
},
{
closed = 1;
nodes = (
(345,-6,l),
(345,20,l),
(295,20,l),
(295,4,l)
);
},
{
closed = 1;
nodes = (
(629,688,l),
(603,474,l),
(530,608,ls),
(511,643,o),
(486,670,o),
(461,688,cs),
(439,704,o),
(416,712,o),
(397,712,cs),
(295,713,l),
(295,688,l)
);
},
{
closed = 1;
nodes = (
(387,359,o),
(406,374,o),
(422,390,cs),
(440,408,o),
(457,429,o),
(471,448,c),
(471,277,l),
(366,351,l)
);
},
{
closed = 1;
nodes = (
(619,444,l),
(603,474,l),
(599,444,l)
);
}
);
};
layerId = "2660E96A-9963-4076-AFCB-E451BC6EE103";
shapes = (
{
closed = 1;
nodes = (
(365,0,l),
(365,10,l),
(315,20,l),
(315,356,l),
(325,356,l),
(481,246,l),
(491,246,l),
(491,506,l),
(481,506,l),
(475,485,o),
(442,438,o),
(408,404,cs),
(387,383,o),
(363,366,o),
(335,366,cs),
(315,366,l),
(315,693,l),
(397,692,ls),
(429,692,o),
(479,659,o),
(512,598,cs),
(607,424,l),
(617,424,l),
(652,708,l),
(20,708,l),
(20,698,l),
(70,683,l),
(70,25,l),
(20,10,l),
(20,0,l)
);
},
{
closed = 1;
nodes = (
(90,688,l),
(295,688,l),
(295,20,l),
(90,20,l)
);
},
{
closed = 1;
nodes = (
(408,367,o),
(446,414,o),
(471,448,c),
(471,277,l),
(366,351,l)
);
},
{
closed = 1;
nodes = (
(531,609,ls),
(510,648,o),
(492,669,o),
(467,688,c),
(627,688,l),
(602,479,l)
);
}
);
width = 652;
},
{
background = {
shapes = (
{
closed = 1;
nodes = (
(40,-6,l),
(90,4,l),
(90,688,l),
(570,688,l),
(570,20,l),
(40,20,l)
);
},
{
closed = 1;
nodes = (
(90,688,l),
(90,704,l),
(40,714,l),
(40,688,l)
);
},
{
closed = 1;
nodes = (
(610,-6,l),
(610,20,l),
(570,20,l),
(570,4,l)
);
},
{
closed = 1;
nodes = (
(1260,688,l),
(1199,453,l),
(1038,594,ls),
(987,638,o),
(932,669,o),
(877,688,cs),
(832,704,o),
(787,712,o),
(745,712,cs),
(570,713,l),
(570,688,l)
);
},
{
closed = 1;
nodes = (
(718,361,o),
(762,378,o),
(801,397,cs),
(851,421,o),
(895,449,o),
(923,470,c),
(923,270,l),
(677,352,l)
);
},
{
closed = 1;
nodes = (
(1210,444,l),
(1199,453,l),
(1197,444,l)
);
}
);
};
layerId = "DF54607F-DD82-41E6-B2E3-81CA6D0E5C47";
shapes = (
{
closed = 1;
nodes = (
(630,0,l),
(630,10,l),
(590,20,l),
(590,356,l),
(602,356,l),
(933,246,l),
(943,246,l),
(943,506,l),
(933,506,l),
(923,492,o),
(864,450,o),
(792,415,cs),
(737,388,o),
(674,366,o),
(623,366,cs),
(590,366,l),
(590,693,l),
(745,692,ls),
(833,691,o),
(935,657,o),
(1025,579,cs),
(1202,424,l),
(1212,424,l),
(1286,708,l),
(20,708,l),
(20,698,l),
(70,688,l),
(70,20,l),
(20,10,l),
(20,0,l)
);
},
{
closed = 1;
nodes = (
(90,688,l),
(570,688,l),
(570,20,l),
(90,20,l)
);
},
{
closed = 1;
nodes = (
(757,369,o),
(858,421,o),
(923,470,c),
(923,270,l),
(677,352,l)
);
},
{
closed = 1;
nodes = (
(1039,596,ls),
(987,642,o),
(931,672,o),
(871,688,c),
(1258,688,l),
(1198,457,l)
);
}
);
width = 1276;
},
{
background = {
shapes = (
{
closed = 1;
nodes = (
(235,0,l),
(235,10,l),
(165,25,l),
(165,353,l),
(385,353,l),
(391,254,l),
(401,254,l),
(401,499,l),
(391,499,l),
(391,435,o),
(388,397,o),
(382,385,cs),
(377,374,o),
(368,368,o),
(354,368,c),
(165,368,l),
(165,693,l),
(498,693,l),
(544,693,o),
(560,683,o),
(561,652,cs),
(563,629,o),
(556,569,o),
(543,484,c),
(558,484,l),
(592,708,l),
(80,708,l),
(80,698,l),
(150,683,l),
(150,25,l),
(80,10,l),
(80,0,l)
);
},
{
closed = 1;
nodes = (
(155,703,l),
(160,703,l),
(160,5,l),
(155,5,l)
);
},
{
closed = 1;
nodes = (
(391,369,o),
(393,379,o),
(394,388,c),
(394,288,l),
(390,360,l)
);
},
{
closed = 1;
nodes = (
(567,634,ls),
(572,683,o),
(553,700,o),
(499,701,c),
(585,701,l),
(553,491,l)
);
}
);
};
layerId = "A5088515-37FF-452F-BD44-18A7A5EF88F0";
shapes = (
{
closed = 1;
nodes = (
(235,0,l),
(235,10,l),
(165,25,l),
(165,353,l),
(405,353,l),
(411,256,l),
(421,256,l),
(421,498,l),
(411,498,l),
(411,433,o),
(408,395,o),
(402,385,cs),
(396,374,o),
(386,368,o),
(374,368,cs),
(165,368,l),
(165,693,l),
(498,693,ls),
(548,693,o),
(564,679,o),
(559,635,cs),
(543,484,l),
(558,484,l),
(592,708,l),
(80,708,l),
(80,698,l),
(150,683,l),
(150,25,l),
(80,10,l),
(80,0,l)
);
},
{
closed = 1;
nodes = (
(155,703,l),
(160,703,l),
(160,5,l),
(155,5,l)
);
},
{
closed = 1;
nodes = (
(411,369,o),
(413,379,o),
(414,388,c),
(414,288,l),
(410,360,l)
);
},
{
closed = 1;
nodes = (
(566,634,ls),
(571,683,o),
(552,700,o),
(498,701,c),
(584,701,l),
(552,491,l)
);
}
);
width = 598;
},
{
background = {
shapes = (
{
closed = 1;
nodes = (
(342,0,l),
(342,10,l),
(224,25,l),
(224,353,l),
(594,353,l),
(600,254,l),
(610,254,l),
(610,499,l),
(600,499,l),
(600,434,o),
(596,392,o),
(589,381,cs),
(583,373,o),
(574,368,o),
(563,368,cs),
(224,368,l),
(224,693,l),
(809,693,ls),
(848,693,o),
(871,679,o),
(872,654,cs),
(874,624,o),
(868,568,o),
(854,484,c),
(869,484,l),
(903,708,l),
(100,708,l),
(100,698,l),
(209,683,l),
(209,25,l),
(100,10,l),
(100,0,l)
);
},
{
closed = 1;
nodes = (
(214,703,l),
(219,703,l),
(219,5,l),
(214,5,l)
);
},
{
closed = 1;
nodes = (
(600,369,o),
(602,379,o),
(603,388,c),
(603,288,l),
(599,360,l)
);
},
{
closed = 1;
nodes = (
(878,624,ls),
(884,679,o),
(865,700,o),
(809,701,c),
(895,701,l),
(863,491,l)
);
}
);
};
layerId = "35A90D60-3AD4-435C-9F8B-D1CA483F6F66";
shapes = (
{
closed = 1;
nodes = (
(342,0,l),
(342,10,l),
(224,25,l),
(224,353,l),
(614,353,l),
(620,256,l),
(630,256,l),
(630,498,l),
(620,498,l),
(620,434,o),
(616,392,o),
(609,381,cs),
(605,373,o),
(595,368,o),
(583,368,cs),
(224,368,l),
(224,693,l),
(847,693,ls),
(899,693,o),
(915,676,o),
(909,625,cs),
(892,484,l),
(907,484,l),
(941,708,l),
(100,708,l),
(100,698,l),
(209,683,l),
(209,25,l),
(100,10,l),
(100,0,l)
);
},
{
closed = 1;
nodes = (
(214,703,l),
(219,703,l),
(219,5,l),
(214,5,l)
);
},
{
closed = 1;
nodes = (
(620,369,o),
(622,379,o),
(623,388,c),
(623,288,l),
(619,360,l)
);
},
{
closed = 1;
nodes = (
(916,624,ls),
(922,679,o),
(903,700,o),
(847,701,c),
(933,701,l),
(901,491,l)
);
}
);
width = 996;
}
);
metricLeft = H;
unicode = 70;
},
{
color = 4;
glyphname = G;
kernLeft = OO;
kernRight = G;
lastChange = "2022-08-05 06:04:53 +0000";
layers = (
{
layerId = "2660E96A-9963-4076-AFCB-E451BC6EE103";
shapes = (
{
closed = 1;
nodes = (
(509,-14,o),
(648,21,o),
(730,127,c),
(730,306,l),
(365,306,l),
(365,296,l),
(485,271,l),
(485,0,l),
(483,0,o),
(481,0,o),
(478,0,cs),
(320,0,o),
(272,294,o),
(272,428,cs),
(272,574,o),
(309,711,o),
(374,711,cs),
(441,711,o),
(486,666,o),
(561,509,cs),
(621,384,l),
(641,384,l),
(701,660,l),
(644,685,o),
(535,723,o),
(425,723,cs),
(178,723,o),
(30,584,o),
(30,352,cs),
(30,120,o),
(198,-17,o),
(403,-15,cs)
);
},
{
closed = 1;
nodes = (
(202,4,o),
(50,131,o),
(50,352,cs),
(50,535,o),
(142,655,o),
(309,691,c),
(273,656,o),
(251,541,o),
(252,428,cs),
(252,228,o),
(315,52,o),
(405,1,c)
);
},
{
closed = 1;
nodes = (
(505,287,l),
(710,286,l),
(710,134,l),
(662,74,o),
(594,35,o),
(505,16.437,c)
);
},
{
closed = 1;
nodes = (
(588,501,ls),
(545,594,o),
(491,683,o),
(456,702,c),
(540,697,o),
(624,670,o),
(678,648,c),
(628,415,l)
);
}
);
width = 760;
},
{
layerId = "DF54607F-DD82-41E6-B2E3-81CA6D0E5C47";
shapes = (
{
closed = 1;
nodes = (
(1022,-14,o),
(1322,21,o),
(1492,127,c),
(1492,306,l),
(724,306,l),
(724,296,l),
(972,271,l),
(972,0,l),
(965,0,o),
(958,0,o),
(951,0,cs),
(630,0,o),
(562,275,o),
(562,408,c),
(560,554,o),
(608,711,o),
(743,711,cs),
(881,711,o),
(970,668,o),
(1120,518,cs),
(1254,384,l),
(1296,384,l),
(1460,660,l),
(1342,685,o),
(1076,723,o),
(848,723,cs),
(337,723,o),
(30,584,o),
(30,352,cs),
(30,120,o),
(378,-17,o),
(803,-15,cs)
);
},
{
closed = 1;
nodes = (
(359,4,o),
(52,148,o),
(52,352,cs),
(52,537,o),
(260,659,o),
(632,692,c),
(564,631,o),
(539,514,o),
(540,408,cs),
(540,220,o),
(639,64,o),
(796,4,c)
);
},
{
closed = 1;
nodes = (
(994,284,l),
(1470,284,l),
(1470,139,l),
(1366,79,o),
(1196,34,o),
(994,15,c)
);
},
{
closed = 1;
nodes = (
(1139,536,ls),
(1055,622,o),
(1000,662,o),
(926,701,c),
(1095,696,o),
(1308,667,o),
(1425,645,c),
(1274,398,l)
);
}
);
width = 1522;
},
{
layerId = "A5088515-37FF-452F-BD44-18A7A5EF88F0";
shapes = (
{
closed = 1;
nodes = (
(467,-15,o),
(557,9,o),
(623,47,c),
(623,306,l),
(498,306,l),
(498,296,l),
(608,281,l),
(608,48,l),
(529,15,o),
(457,0,o),
(394,0,cs),
(209,0,o),
(96,135,o),
(95,370,cs),
(94,568,o),
(211,708,o),
(378,708,cs),
(531,708,o),
(635,646,o),
(612,505,cs),
(592,384,l),
(608,384,l),
(655,616,l),
(580,687,o),
(498,723,o),
(378,723,cs),
(203,723,o),
(80,577,o),
(80,370,cs),
(80,128,o),
(195,-15,o),
(389,-15,cs)
);
},
{
closed = 1;
nodes = (
(167,35,o),
(85,165,o),
(85,370,cs),
(85,517,o),
(148,632,o),
(247,683,c),
(150,630,o),
(89,515,o),
(90,370,cs),
(91,168,o),
(173,38,o),
(313,2,c)
);
},
{
closed = 1;
nodes = (
(613,301,l),
(618,301,l),
(618,51,l),
(616,50,o),
(615,50,o),
(613,49,c)
);
},
{
closed = 1;
nodes = (
(621,505,ls),
(637,601,o),
(594,670,o),
(500,699,c),
(556,683,o),
(603,655,o),
(647,614,c),
(603,394,l)
);
}
);
width = 735;
},
{
layerId = "35A90D60-3AD4-435C-9F8B-D1CA483F6F66";
shapes = (
{
closed = 1;
nodes = (
(719,-15,o),
(842,6,o),
(954,47,c),
(954,306,l),
(755,306,l),
(755,296,l),
(939,281,l),
(939,48,l),
(814,15,o),
(699,0,o),
(597,0,cs),
(297,0,o),
(106,134,o),
(105,370,cs),
(103,568,o),
(298,708,o),
(564,708,cs),
(794,708,o),
(978,636,o),
(954,542,cs),
(914,384,l),
(930,384,l),
(1005,616,l),
(886,687,o),
(755,723,o),
(564,723,cs),
(286,723,o),
(90,577,o),
(90,370,cs),
(90,128,o),
(273,-15,o),
(582,-15,cs)
);
},
{
closed = 1;
nodes = (
(223,38,o),
(95,168,o),
(95,370,cs),
(95,515,o),
(194,630,o),
(352,682,c),
(197,627,o),
(98,514,o),
(100,370,cs),
(101,169,o),
(236,41,o),
(457,3,c)
);
},
{
closed = 1;
nodes = (
(944,301,l),
(949,301,l),
(949,51,l),
(947,50,o),
(946,50,o),
(944,49,c)
);
},
{
closed = 1;
nodes = (
(964,542,ls),
(983,614,o),
(885,677,o),
(709,707,c),
(824,693,o),
(913,661,o),
(997,613,c),
(924,391,l)
);
}
);
width = 1095;
}
);
metricLeft = O;
metricRight = O;
unicode = 71;
},
{
color = 4;
glyphname = H;
kernLeft = HH;
kernRight = H;
lastChange = "2023-07-10 05:27:45 +0000";
layers = (
{
layerId = "A5088515-37FF-452F-BD44-18A7A5EF88F0";
shapes = (
{
closed = 1;
nodes = (
(545,708,l),
(545,698,l),
(615,683,l),
(615,25,l),
(545,10,l),
(545,0,l),
(700,0,l),
(700,10,l),
(630,25,l),
(630,683,l),
(700,698,l),
(700,708,l)
);
},
{
closed = 1;
nodes = (
(80,708,l),
(80,698,l),
(150,683,l),
(150,25,l),
(80,10,l),
(80,0,l),
(235,0,l),
(235,10,l),
(165,25,l),
(165,683,l),
(235,698,l),
(235,708,l)
);
},
{
closed = 1;
nodes = (
(159,342,l),
(159,332,l),
(620,332,l),
(620,348,l)
);
},
{
closed = 1;
nodes = (
(155,703,l),
(160,703,l),
(160,5,l),
(155,5,l)
);
},
{
closed = 1;
nodes = (
(620,703,l),
(625,703,l),
(625,5,l),
(620,5,l)
);
},
{
closed = 1;
nodes = (
(615,337,l),
(173,337,l),
(615,343,l)
);
}
);
width = 780;
},
{
associatedMasterId = "A5088515-37FF-452F-BD44-18A7A5EF88F0";
attr = {
colorPalette = 0;
};
layerId = "F7C482FB-C674-457B-9C70-DCA066FE1A94";
name = "9 Jul 23 10:26 p.m.";
shapes = (
{
closed = 1;
nodes = (
(545,708,l),
(545,698,l),
(615,683,l),
(615,25,l),
(545,10,l),
(545,0,l),
(700,0,l),
(700,10,l),
(630,25,l),
(630,683,l),
(700,698,l),
(700,708,l)
);
},
{
closed = 1;
nodes = (
(80,708,l),
(80,698,l),
(150,683,l),
(150,25,l),
(80,10,l),
(80,0,l),
(235,0,l),
(235,10,l),
(165,25,l),
(165,683,l),
(235,698,l),
(235,708,l)
);
},
{
closed = 1;
nodes = (
(159,342,l),
(159,332,l),
(620,332,l),
(620,348,l)
);
}
);
width = 780;
},
{
associatedMasterId = "A5088515-37FF-452F-BD44-18A7A5EF88F0";
attr = {
colorPalette = 1;
};
layerId = "77879BC8-8A79-4884-8325-601A57297140";
name = "9 Jul 23 10:26 p.m.";
shapes = (
{
closed = 1;
nodes = (
(155,703,l),
(160,703,l),
(160,5,l),
(155,5,l)
);
},
{
closed = 1;
nodes = (
(620,703,l),
(625,703,l),
(625,5,l),
(620,5,l)
);
},
{
closed = 1;
nodes = (
(615,337,l),
(173,337,l),
(615,343,l)
);
}
);
width = 780;
},
{
layerId = "2660E96A-9963-4076-AFCB-E451BC6EE103";
shapes = (
{
closed = 1;
nodes = (
(495,708,l),
(495,698,l),
(535,688,l),
(535,20,l),
(495,10,l),
(495,0,l),
(830,0,l),
(830,10,l),
(780,20,l),
(780,688,l),
(830,698,l),
(830,708,l)
);
},
{
closed = 1;
nodes = (
(20,708,l),
(20,698,l),
(70,688,l),
(70,20,l),
(20,10,l),
(20,0,l),
(355,0,l),
(355,10,l),
(315,20,l),
(315,688,l),
(355,698,l),
(355,708,l)
);
},
{
closed = 1;
nodes = (
(303,340,l),
(303,330,l),
(545,330,l),
(545,360,l)
);
},
{
closed = 1;
nodes = (
(90,688,l),
(295,688,l),
(295,20,l),
(90,20,l)
);
},
{
closed = 1;
nodes = (
(555,688,l),
(760,688,l),
(760,20,l),
(555,20,l)
);
},
{
closed = 1;
nodes = (
(535,341,l),
(443,341,l),
(535,348,l)
);
}
);
width = 850;
},
{
associatedMasterId = "2660E96A-9963-4076-AFCB-E451BC6EE103";
attr = {
colorPalette = 0;
};
layerId = "1501C7B5-DB64-4BF5-8C2C-40C236557CC5";
name = "9 Jul 23 10:22 p.m.";
shapes = (
{
closed = 1;
nodes = (
(495,708,l),
(495,698,l),
(535,688,l),
(535,20,l),
(495,10,l),
(495,0,l),
(830,0,l),
(830,10,l),
(780,20,l),
(780,688,l),
(830,698,l),
(830,708,l)
);
},
{
closed = 1;
nodes = (
(20,708,l),
(20,698,l),
(70,688,l),
(70,20,l),
(20,10,l),
(20,0,l),
(355,0,l),
(355,10,l),
(315,20,l),
(315,688,l),
(355,698,l),
(355,708,l)
);
},
{
closed = 1;
nodes = (
(303,340,l),
(303,330,l),
(545,330,l),
(545,360,l)
);
}
);
width = 850;
},
{
associatedMasterId = "2660E96A-9963-4076-AFCB-E451BC6EE103";
attr = {
colorPalette = 1;
};
layerId = "759AC586-5A0E-4A9A-AAA5-04CAB7562C1F";
name = "9 Jul 23 10:22 p.m.";
shapes = (
{
closed = 1;
nodes = (
(90,688,l),
(295,688,l),
(295,20,l),
(90,20,l)
);
},
{
closed = 1;
nodes = (
(555,688,l),
(760,688,l),
(760,20,l),
(555,20,l)
);
},
{
closed = 1;
nodes = (
(535,341,l),
(443,341,l),
(535,348,l)
);
}
);
width = 850;
},
{
layerId = "35A90D60-3AD4-435C-9F8B-D1CA483F6F66";
shapes = (
{
closed = 1;
nodes = (
(836,708,l),
(836,693,l),
(945,683,l),
(945,25,l),
(836,10,l),
(836,0,l),
(1070,0,l),
(1070,10,l),
(960,25,l),
(960,683,l),
(1070,698,l),
(1070,708,l)
);
},
{
closed = 1;
nodes = (
(100,708,l),
(100,698,l),
(210,683,l),
(210,25,l),
(100,10,l),
(100,0,l),
(334,0,l),
(334,10,l),
(225,25,l),
(225,683,l),
(334,693,l),
(334,708,l)
);
},
{
closed = 1;
nodes = (
(222,342,l),
(222,332,l),
(948,332,l),
(948,348,l)
);
},
{
closed = 1;
nodes = (
(215,703,l),
(220,703,l),
(220,5,l),
(215,5,l)
);
},
{
closed = 1;
nodes = (
(950,703,l),
(955,703,l),
(955,5,l),
(950,5,l)
);
},
{
closed = 1;
nodes = (
(944,337,l),
(352,337,l),
(944,343,l)
);
}
);
width = 1170;
},
{
associatedMasterId = "35A90D60-3AD4-435C-9F8B-D1CA483F6F66";
attr = {
colorPalette = 0;
};
layerId = "9559A4AD-5BD7-42D8-9FD6-47594E52D1E7";
name = "9 Jul 23 10:18 p.m.";
shapes = (
{
closed = 1;
nodes = (
(836,708,l),
(836,693,l),
(945,683,l),
(945,25,l),
(836,10,l),
(836,0,l),
(1070,0,l),
(1070,10,l),
(960,25,l),
(960,683,l),
(1070,698,l),
(1070,708,l)
);
},
{
closed = 1;
nodes = (
(100,708,l),
(100,698,l),
(210,683,l),
(210,25,l),
(100,10,l),
(100,0,l),
(334,0,l),
(334,10,l),
(225,25,l),
(225,683,l),
(334,693,l),
(334,708,l)
);
},
{
closed = 1;
nodes = (
(222,342,l),
(222,332,l),
(948,332,l),
(948,348,l)
);
}
);
width = 1170;
},
{
associatedMasterId = "35A90D60-3AD4-435C-9F8B-D1CA483F6F66";
attr = {
colorPalette = 1;
};
layerId = "E131B56A-13C2-4940-A40B-13C0E81278FF";
name = "9 Jul 23 10:18 p.m.";
shapes = (
{
closed = 1;
nodes = (
(215,703,l),
(220,703,l),
(220,5,l),
(215,5,l)
);
},
{
closed = 1;
nodes = (
(950,703,l),
(955,703,l),
(955,5,l),
(950,5,l)
);
},
{
closed = 1;
nodes = (
(944,337,l),
(352,337,l),
(944,343,l)
);
}
);
width = 1170;
},
{
layerId = "DF54607F-DD82-41E6-B2E3-81CA6D0E5C47";
shapes = (
{
closed = 1;
nodes = (
(770,708,l),
(770,698,l),
(810,688,l),
(810,20,l),
(770,10,l),
(770,0,l),
(1380,0,l),
(1380,10,l),
(1330,20,l),
(1330,688,l),
(1380,698,l),
(1380,708,l)
);
},
{
closed = 1;
nodes = (
(20,708,l),
(20,698,l),
(70,688,l),
(70,20,l),
(20,10,l),
(20,0,l),
(630,0,l),
(630,10,l),
(590,20,l),
(590,688,l),
(630,698,l),
(630,708,l)
);
},
{
closed = 1;
nodes = (
(578,340,l),
(578,330,l),
(820,330,l),
(820,360,l)
);
},
{
closed = 1;
nodes = (
(90,688,l),
(570,688,l),
(570,20,l),
(90,20,l)
);
},
{
closed = 1;
nodes = (
(830,688,l),
(1310,688,l),
(1310,20,l),
(830,20,l)
);
},
{
closed = 1;
nodes = (
(810,341,l),
(718,341,l),
(810,348,l)
);
}
);
width = 1400;
},
{
associatedMasterId = "DF54607F-DD82-41E6-B2E3-81CA6D0E5C47";
attr = {
colorPalette = 0;
};
layerId = "35608F4E-ADA6-4035-BF45-B616C44368A9";
name = "9 Jul 23 10:17 p.m.";
shapes = (
{
closed = 1;
nodes = (
(770,708,l),
(770,698,l),
(810,688,l),
(810,20,l),
(770,10,l),
(770,0,l),
(1380,0,l),
(1380,10,l),
(1330,20,l),
(1330,688,l),
(1380,698,l),
(1380,708,l)
);
},
{
closed = 1;
nodes = (
(20,708,l),
(20,698,l),
(70,688,l),
(70,20,l),
(20,10,l),
(20,0,l),
(630,0,l),
(630,10,l),
(590,20,l),
(590,688,l),
(630,698,l),
(630,708,l)
);
},
{
closed = 1;
nodes = (
(578,340,l),
(578,330,l),
(820,330,l),
(820,360,l)
);
}
);
width = 1400;
},
{
associatedMasterId = "DF54607F-DD82-41E6-B2E3-81CA6D0E5C47";
attr = {
colorPalette = 1;
};
layerId = "85D7AE70-5ED9-48F3-805A-AB31EB1BD0DB";
name = "9 Jul 23 10:17 p.m.";
shapes = (
{
closed = 1;
nodes = (
(90,688,l),
(570,688,l),
(570,20,l),
(90,20,l)
);
},
{
closed = 1;
nodes = (
(830,688,l),
(1310,688,l),
(1310,20,l),
(830,20,l)
);
},
{
closed = 1;
nodes = (
(810,341,l),
(718,341,l),
(810,348,l)
);
}
);
width = 1400;
}
);
unicode = 72;
},
{
color = 4;
glyphname = I;
kernLeft = HH;
kernRight = H;
lastChange = "2022-08-05 06:04:53 +0000";
layers = (
{
layerId = "2660E96A-9963-4076-AFCB-E451BC6EE103";
shapes = (
{
closed = 1;
nodes = (
(20,708,l),
(20,698,l),
(70,688,l),
(70,20,l),
(20,10,l),
(20,0,l),
(365,0,l),
(365,10,l),
(315,20,l),
(315,688,l),
(365,698,l),
(365,708,l)
);
},
{
closed = 1;
nodes = (
(90,688,l),
(295,688,l),
(295,20,l),
(90,20,l)
);
}
);
width = 385;
},
{
layerId = "DF54607F-DD82-41E6-B2E3-81CA6D0E5C47";
shapes = (
{
closed = 1;
nodes = (
(20,708,l),
(20,698,l),
(70,688,l),
(70,20,l),
(20,10,l),
(20,0,l),
(640,0,l),
(640,10,l),
(590,20,l),
(590,688,l),
(640,698,l),
(640,708,l)
);
},
{
closed = 1;
nodes = (
(90,688,l),
(570,688,l),
(570,20,l),
(90,20,l)
);
}
);
width = 660;
},
{
layerId = "A5088515-37FF-452F-BD44-18A7A5EF88F0";
shapes = (
{
closed = 1;
nodes = (
(80,708,l),
(80,698,l),
(150,683,l),
(150,25,l),
(80,10,l),
(80,0,l),
(235,0,l),
(235,10,l),
(165,25,l),
(165,683,l),
(235,698,l),
(235,708,l)
);
},
{
closed = 1;
nodes = (
(155,703,l),
(160,703,l),
(160,5,l),
(155,5,l)
);
}
);
width = 315;
},
{
layerId = "35A90D60-3AD4-435C-9F8B-D1CA483F6F66";
shapes = (
{
closed = 1;
nodes = (
(100,708,l),
(100,698,l),
(209,683,l),
(209,25,l),
(100,10,l),
(100,0,l),
(334,0,l),
(334,10,l),
(224,25,l),
(224,683,l),
(334,698,l),
(334,708,l)
);
},
{
closed = 1;
nodes = (
(214,703,l),
(219,703,l),
(219,5,l),
(214,5,l)
);
}
);
width = 434;
}
);
metricLeft = H;
metricRight = H;
unicode = 73;
},
{
color = 4;
glyphname = J;
kernLeft = J;
kernRight = JJ;
lastChange = "2022-08-05 06:04:53 +0000";
layers = (
{
layerId = "2660E96A-9963-4076-AFCB-E451BC6EE103";
shapes = (
{
closed = 1;
nodes = (
(449,-15,o),
(537,34,o),
(537,225,cs),
(537,708,l),
(202,708,l),
(202,698,l),
(292,688,l),
(292,262,l),
(316,28,o),
(253,3,o),
(191,1,cs),
(152,0,o),
(116,16,o),
(116,28,cs),
(116,49,o),
(159,57,o),
(196,77,cs),
(224,92,o),
(248,114,o),
(248,154,cs),
(248,195,o),
(202,223,o),
(144,223,cs),
(76,223,o),
(1,196,o),
(1,121,cs),
(1,36,o),
(102,-15,o),
(272,-15,cs)
);
},
{
closed = 1;
nodes = (
(46,51,o),
(21,81,o),
(21,121,cs),
(21,182,o),
(79,203,o),
(144,203,cs),
(196,203,o),
(228,184,o),
(228,154,cs),
(228,123,o),
(212,108,o),
(187,95,cs),
(176,89,o),
(164,84,o),
(153,79,cs),
(119,66,o),
(98,54,o),
(96,26,c)
);
},
{
closed = 1;
nodes = (
(304,36,o),
(328,106,o),
(312,263,c),
(312,688,l),
(517,688,l),
(517,225,ls),
(517,46,o),
(444,5,o),
(267,5,c)
);
}
);
width = 597;
},
{
layerId = "DF54607F-DD82-41E6-B2E3-81CA6D0E5C47";
shapes = (
{
closed = 1;
nodes = (
(901,-15,o),
(1088,34,o),
(1088,225,cs),
(1088,708,l),
(478,708,l),
(478,698,l),
(568,688,l),
(568,262,l),
(599,28,o),
(536,2,o),
(404,0,cs),
(321,-1,o),
(245,16,o),
(245,28,cs),
(245,47,o),
(319,55,o),
(391,72,cs),
(459,87,o),
(525,109,o),
(525,154,cs),
(525,195,o),
(427,223,o),
(304,223,cs),
(160,223,o),
(1,196,o),
(1,121,cs),
(1,36,o),
(215,-15,o),
(526,-15,cs)
);
},
{
closed = 1;
nodes = (
(96,44,o),
(21,78,o),
(21,121,cs),
(21,179,o),
(162,203,o),
(304,203,cs),
(424,203,o),
(505,180,o),
(505,154,cs),
(505,123,o),
(454,106,o),
(387,91,cs),
(368,87,o),
(349,83,o),
(331,80,cs),
(273,68,o),
(225,60,o),
(225,19,c)
);
},
{
closed = 1;
nodes = (
(586,37,o),
(608,107,o),
(588,263,c),
(588,688,l),
(1068,688,l),
(1068,225,ls),
(1068,51,o),
(902,7,o),
(533,5,c)
);
}
);
width = 1148;
},
{
layerId = "A5088515-37FF-452F-BD44-18A7A5EF88F0";
shapes = (
{
closed = 1;
nodes = (
(278,-15,o),
(325,63,o),
(315,222,c),
(315,708,l),
(200,708,l),
(200,698,l),
(300,683,l),
(300,222,l),
(310,73,o),
(268,0,o),
(179,0,cs),
(97,0,o),
(62,61,o),
(62,70,cs),
(62,109,o),
(103,99,o),
(133,107,cs),
(157,113,o),
(168,130,o),
(167,154,cs),
(165,183,o),
(137,195,o),
(110,195,cs),
(63,195,o),
(45,160,o),
(45,119,cs),
(45,66,o),
(89,-15,o),
(179,-15,cs)
);
},
{
closed = 1;
nodes = (
(53,92,o),
(52,106,o),
(52,119,cs),
(52,159,o),
(66,188,o),
(110,188,cs),
(136,188,o),
(158,180,o),
(160,154,cs),
(161,131,o),
(154,119,o),
(132,114,cs),
(124,112,o),
(116,111,o),
(107,110,cs),
(73,107,o),
(60,99,o),
(58,78,c)
);
},
{
closed = 1;
nodes = (
(290,41,o),
(312,110,o),
(305,222,c),
(305,703,l),
(310,703,l),
(310,222,l),
(317,110,o),
(297,41,o),
(244,10,c)
);
}
);
width = 396;
},
{
layerId = "35A90D60-3AD4-435C-9F8B-D1CA483F6F66";
shapes = (
{
closed = 1;
nodes = (
(563,-15,o),
(638,63,o),
(626,222,c),
(626,708,l),
(393,708,l),
(393,698,l),
(611,683,l),
(611,222,l),
(622,73,o),
(542,0,o),
(347,0,cs),
(177,0,o),
(102,61,o),
(102,70,cs),
(102,109,o),
(181,99,o),
(247,107,cs),
(299,113,o),
(311,130,o),
(311,154,cs),
(311,183,o),
(255,195,o),
(197,195,cs),
(94,195,o),
(65,160,o),
(65,119,cs),
(65,66,o),
(161,-15,o),
(347,-15,cs)
);
},
{
closed = 1;
nodes = (
(80,83,o),
(72,102,o),
(72,119,cs),
(72,158,o),
(96,188,o),
(197,188,cs),
(254,188,o),
(304,179,o),
(304,154,cs),
(304,132,o),
(296,120,o),
(246,114,cs),
(229,112,o),
(211,111,o),
(194,110,cs),
(121,107,o),
(97,97,o),
(97,68,c)
);
},
{
closed = 1;
nodes = (
(581,40,o),
(624,109,o),
(616,222,c),
(616,703,l),
(621,703,l),
(621,222,l),
(630,109,o),
(595,40,o),
(487,10,c)
);
}
);
width = 757;
}
);
unicode = 74;
},
{
color = 4;
glyphname = K;
kernLeft = HH;
kernRight = K;
lastChange = "2022-08-05 06:04:53 +0000";
layers = (
{
background = {
shapes = (
{
closed = 1;
nodes = (
(425,136,o),
(393,213,o),
(359,326,c),
(505,325,o),
(563,291,o),
(611,181,cs),
(634,125,o),
(674,52,o),
(711,24,c),
(675,6,o),
(637,5,o),
(603,5,cs),
(540,5,o),
(499,25,o),
(456,89,cs)
);
}
);
};
layerId = "2660E96A-9963-4076-AFCB-E451BC6EE103";
shapes = (
{
closed = 1;
nodes = (
(644,-15,o),
(698,-14,o),
(745,22,c),
(745,32,l),
(739,32,o),
(733,34,o),
(727,38,cs),
(693,60,o),
(653,132,o),
(629,189,cs),
(578,307,o),
(508,346,o),
(351,346,c),
(351,351,l),
(397,351,o),
(505,395,o),
(588,471,cs),
(650,527,o),
(699,601,o),
(699,688,c),
(749,698,l),
(749,708,l),
(395,708,l),
(395,698,l),
(452,698,o),
(477,661,o),
(477,611,cs),
(477,571,o),
(464,522,o),
(442,478,cs),
(416,424,o),
(379,378,o),
(339,364,cs),
(331,361,o),
(323,360,o),
(315,360,c),
(315,708,l),
(20,708,l),
(20,698,l),
(70,688,l),
(70,20,l),
(20,10,l),
(20,0,l),
(365,0,l),
(365,10,l),
(315,20,l),
(315,346,l),
(332,346,l),
(369,218,o),
(405,130,o),
(439,78,cs),
(485,9,o),
(535,-15,o),
(603,-15,cs)
);
},
{
closed = 1;
nodes = (
(679,688,l),
(679,607,o),
(635,540,o),
(575,486,cs),
(517,433,o),
(450,397,o),
(400,381,c),
(424,404,o),
(444,436,o),
(460,469,cs),
(483,515,o),
(497,568,o),
(497,611,cs),
(497,641,o),
(489,668,o),
(471,688,c)
);
},
{
closed = 1;
nodes = (
(365,326,l),
(503,324,o),
(565,288,o),
(611,181,cs),
(639,110,o),
(669,61,o),
(701,33,cs),
(704,29,o),
(708,26,o),
(711,24,c),
(686,11,o),
(650,5,o),
(603,5,cs),
(540,5,o),
(495,31,o),
(456,89,cs),
(423,139,o),
(394,211,o),
(359,326,c)
);
},
{
closed = 1;
nodes = (
(90,688,l),
(295,688,l),
(295,20,l),
(90,20,l)
);
}
);
width = 764;
},
{
background = {
shapes = (
{
closed = 1;
nodes = (
(719,326,l),
(967,326,o),
(1078,300,o),
(1178,217,cs),
(1202,198,o),
(1228,176,o),
(1253,152,cs),
(1308,103,o),
(1367,50,o),
(1419,26,c),
(1335,6,o),
(1246,5,o),
(1173,5,cs),
(1031,5,o),
(940,28,o),
(847,94,cs),
(775,145,o),
(713,220,o),
(645,326,c)
);
}
);
};
layerId = "DF54607F-DD82-41E6-B2E3-81CA6D0E5C47";
shapes = (
{
closed = 1;
nodes = (
(1260,-15,o),
(1375,-14,o),
(1475,22,c),
(1475,32,l),
(1466,32,o),
(1456,34,o),
(1446,37,cs),
(1371,61,o),
(1274,166,o),
(1191,233,cs),
(1087,318,o),
(969,346,o),
(719,346,c),
(719,351,l),
(859,351,o),
(1015,384,o),
(1154,444,cs),
(1297,506,o),
(1377,594,o),
(1377,688,c),
(1428,698,l),
(1428,708,l),
(761,708,l),
(761,698,l),
(827,698,o),
(862,665,o),
(862,619,cs),
(862,576,o),
(840,520,o),
(805,473,cs),
(759,413,o),
(690,371,o),
(624,362,cs),
(613,361,o),
(602,360,o),
(591,360,c),
(591,708,l),
(20,708,l),
(20,698,l),
(71,688,l),
(71,20,l),
(20,10,l),
(20,0,l),
(641,0,l),
(641,10,l),
(591,20,l),
(591,346,l),
(608,346,l),
(686,220,o),
(756,134,o),
(835,78,cs),
(932,9,o),
(1029,-15,o),
(1173,-15,cs)
);
},
{
closed = 1;
nodes = (
(1357,688,l),
(1357,602,o),
(1285,522,o),
(1146,462,cs),
(1009,403,o),
(857,371,o),
(719,371,c),
(757,394,o),
(793,425,o),
(821,461,cs),
(858,511,o),
(882,571,o),
(882,619,cs),
(882,647,o),
(872,671,o),
(852,688,c)
);
},
{
closed = 1;
nodes = (
(679,326,l),
(960,326,o),
(1085,299,o),
(1178,217,cs),
(1274,133,o),
(1347,73,o),
(1398,37,cs),
(1404,32,o),
(1412,29,o),
(1419,26,c),
(1360,12,o),
(1279,5,o),
(1173,5,cs),
(1033,5,o),
(935,32,o),
(849,94,cs),
(784,140,o),
(711,223,o),
(645,326,c)
);
},
{
closed = 1;
nodes = (
(91,688,l),
(571,688,l),
(571,20,l),
(91,20,l)
);
}
);
width = 1490;
},
{
background = {
shapes = (
{
closed = 1;
nodes = (
(300,346,l),
(396,338,o),
(452,293,o),
(505,178,cs),
(569,42,o),
(602,-5,o),
(637,-5,cs),
(642,-5,o),
(649,-4,o),
(655,-2,c),
(655,-1,l),
(645,-8,o),
(636,-10,o),
(627,-10,cs),
(597,-10,o),
(565,35,o),
(500,173,cs),
(450,283,o),
(395,332,o),
(300,344,c)
);
}
);
};
layerId = "A5088515-37FF-452F-BD44-18A7A5EF88F0";
shapes = (
{
closed = 1;
nodes = (
(637,-15,o),
(648,-13,o),
(660,-4,c),
(660,6,l),
(652,2,o),
(644,0,o),
(637,0,cs),
(605,0,o),
(573,45,o),
(510,180,cs),
(457,294,o),
(400,341,o),
(305,351,c),
(305,356,l),
(366,371,o),
(420,418,o),
(461,474,cs),
(514,546,o),
(545,632,o),
(541,683,c),
(608,698,l),
(608,708,l),
(455,708,l),
(455,698,l),
(498,698,o),
(522,684,o),
(522,658,cs),
(522,618,o),
(495,547,o),
(450,484,cs),
(402,416,o),
(332,360,o),
(255,358,cs),
(225,357,o),
(195,357,o),
(165,356,c),
(165,708,l),
(80,708,l),
(80,698,l),
(150,683,l),
(150,25,l),
(80,10,l),
(80,0,l),
(235,0,l),
(235,10,l),
(165,25,l),
(165,343,l),
(241,343,ls),
(372,343,o),
(436,300,o),
(495,171,cs),
(561,32,o),
(594,-15,o),
(627,-15,cs)
);
},
{
closed = 1;
nodes = (
(535,703,l),
(542,638,o),
(510,551,o),
(457,477,cs),
(413,415,o),
(356,373,o),
(299,360,c),
(357,378,o),
(409,418,o),
(455,482,cs),
(497,542,o),
(527,614,o),
(527,658,cs),
(527,683,o),
(509,700,o),
(480,703,c)
);
},
{
closed = 1;
nodes = (
(325,343,l),
(404,330,o),
(459,279,o),
(505,177,cs),
(569,41,o),
(602,-5,o),
(635,-5,cs),
(642,-5,o),
(648,-4,o),
(652,-3,c),
(647,-8,o),
(639,-10,o),
(628,-10,cs),
(596,-10,o),
(564,36,o),
(500,174,cs),
(451,281,o),
(392,332,o),
(305,343,c)
);
},
{
closed = 1;
nodes = (
(155,703,l),
(160,703,l),
(160,5,l),
(155,5,l)
);
}
);
width = 665;
},
{
background = {
shapes = (
{
closed = 1;
nodes = (
(444,347,l),
(444,346,l),
(645,334,o),
(708,253,o),
(764,177,cs),
(867,41,o),
(922,-5,o),
(981,-5,cs),
(991,-5,o),
(1002,-4,o),
(1013,-1,c),
(1013,-1,l),
(996,-8,o),
(980,-10,o),
(965,-10,cs),
(913,-10,o),
(862,35,o),
(757,174,cs),
(701,250,o),
(637,325,o),
(443,344,c)
);
}
);
};
layerId = "35A90D60-3AD4-435C-9F8B-D1CA483F6F66";
shapes = (
{
closed = 1;
nodes = (
(981,-15,o),
(999,-13,o),
(1018,-4,c),
(1018,6,l),
(1005,2,o),
(992,0,o),
(981,0,cs),
(924,0,o),
(871,45,o),
(768,180,cs),
(712,255,o),
(649,338,o),
(449,351,c),
(449,356,l),
(540,373,o),
(629,416,o),
(697,475,cs),
(773,540,o),
(827,626,o),
(827,683,c),
(935,698,l),
(935,708,l),
(689,708,l),
(689,698,l),
(762,698,o),
(803,683,o),
(803,657,cs),
(803,612,o),
(747,532,o),
(675,475,cs),
(595,411,o),
(461,360,o),
(369,358,cs),
(320,357,o),
(272,357,o),
(224,356,c),
(224,708,l),
(100,708,l),
(100,698,l),
(209,683,l),
(209,25,l),
(100,10,l),
(100,0,l),
(337,0,l),
(337,10,l),
(224,25,l),
(224,343,l),
(346,343,ls),
(615,343,o),
(689,258,o),
(753,171,cs),
(858,32,o),
(911,-15,o),
(965,-15,cs)
);
},
{
closed = 1;
nodes = (
(821,703,l),
(825,633,o),
(779,552,o),
(694,479,cs),
(625,419,o),
(536,377,o),
(436,360,c),
(524,381,o),
(617,422,o),
(678,471,cs),
(751,529,o),
(808,611,o),
(808,657,cs),
(808,685,o),
(778,702,o),
(724,703,c)
);
},
{
closed = 1;
nodes = (
(479,343,l),
(610,329,o),
(681,288,o),
(763,177,cs),
(867,40,o),
(919,-6,o),
(971,-6,cs),
(990,-6,o),
(997,-5,o),
(1006,-2,c),
(994,-8,o),
(984,-10,o),
(965,-10,cs),
(914,-10,o),
(862,36,o),
(758,174,cs),
(675,287,o),
(596,329,o),
(443,343,c)
);
},
{
closed = 1;
nodes = (
(214,703,l),
(219,703,l),
(219,5,l),
(214,5,l)
);
}
);
width = 1088;
}
);
metricLeft = H;
unicode = 75;
},
{
color = 4;
glyphname = L;
kernLeft = HH;
kernRight = L;
lastChange = "2022-08-05 06:04:53 +0000";
layers = (
{
layerId = "2660E96A-9963-4076-AFCB-E451BC6EE103";
shapes = (
{
closed = 1;
nodes = (
(632,0,l),
(597,304,l),
(577,304,l),
(525,180,ls),
(475,61,o),
(434,17,o),
(377,16,cs),
(315,15,l),
(315,688,l),
(366,698,l),
(366,708,l),
(20,708,l),
(20,698,l),
(70,688,l),
(70,20,l),
(20,10,l),
(20,0,l)
);
},
{
closed = 1;
nodes = (
(90,688,l),
(295,688,l),
(295,20,l),
(90,20,l)
);
},
{
closed = 1;
nodes = (
(453,20,l),
(485,47,o),
(514,98,o),
(545,171,cs),
(580,254,l),
(607,20,l)
);
}
);
width = 647;
},
{
layerId = "DF54607F-DD82-41E6-B2E3-81CA6D0E5C47";
shapes = (
{
closed = 1;
nodes = (
(1153,0,l),
(1118,404,l),
(1098,404,l),
(988,248,ls),
(869,80,o),
(762,16,o),
(602,16,c),
(590,15,l),
(590,688,l),
(641,698,l),
(641,708,l),
(20,708,l),
(20,698,l),
(70,688,l),
(70,20,l),
(20,10,l),
(20,0,l)
);
},
{
closed = 1;
nodes = (
(90,688,l),
(570,688,l),
(570,20,l),
(90,20,l)
);
},
{
closed = 1;
nodes = (
(765,20,l),
(853,54,o),
(928,124,o),
(1006,235,cs),
(1099,368,l),
(1129,20,l)
);
}
);
width = 1168;
},
{
layerId = "A5088515-37FF-452F-BD44-18A7A5EF88F0";
shapes = (
{
closed = 1;
nodes = (
(552,0,l),
(528,243,l),
(513,243,l),
(520,115,ls),
(524,42,o),
(503,15,o),
(467,15,cs),
(165,15,l),
(165,688,l),
(235,698,l),
(235,708,l),
(80,708,l),
(80,698,l),
(150,688,l),
(150,20,l),
(80,10,l),
(80,0,l)
);
},
{
closed = 1;
nodes = (
(155,703,l),
(160,703,l),
(160,5,l),
(155,5,l)
);
},
{
closed = 1;
nodes = (
(467,7,l),
(508,8,o),
(530,39,o),
(527,115,cs),
(522,236,l),
(544,7,l)
);
}
);
width = 602;
},
{
layerId = "35A90D60-3AD4-435C-9F8B-D1CA483F6F66";
shapes = (
{
closed = 1;
nodes = (
(855,0,l),
(831,243,l),
(816,243,l),
(823,130,ls),
(828,46,o),
(808,15,o),
(770,15,cs),
(224,15,l),
(224,688,l),
(334,698,l),
(334,708,l),
(100,708,l),
(100,698,l),
(209,688,l),
(209,20,l),
(100,10,l),
(100,0,l)
);
},
{
closed = 1;
nodes = (
(214,703,l),
(219,703,l),
(219,5,l),
(214,5,l)
);
},
{
closed = 1;
nodes = (
(770,7,l),
(813,8,o),
(835,43,o),
(830,130,cs),
(824,236,l),
(847,7,l)
);
}
);
width = 952;
}
);
metricLeft = H;
unicode = 76;
},
{
color = 4;
glyphname = M;
kernLeft = HH;
kernRight = H;
lastChange = "2022-08-05 06:04:53 +0000";
layers = (
{
layerId = "2660E96A-9963-4076-AFCB-E451BC6EE103";
shapes = (
{
closed = 1;
nodes = (
(294,0,l),
(294,10,l),
(154,60,o),
(100,408,o),
(100,561,cs),
(100,566,l),
(115,566,l),
(370,0,l),
(506,0,l),
(663,592,l),
(678,592,l),
(677,20,l),
(617,10,l),
(617,0,l),
(982,0,l),
(982,10,l),
(932,20,l),
(932,688,l),
(982,698,l),
(982,708,l),
(648,708,l),
(549,216,l),
(561,238,l),
(524,238,l),
(543,215,l),
(334,708,l),
(14,708,l),
(14,698,l),
(85,686,l),
(85,20,l),
(5,10,l),
(5,0,l)
);
},
{
closed = 1;
nodes = (
(105,328,l),
(106,328,l),
(111,301,ls),
(132,187,o),
(177,76,o),
(240,20,c),
(107,20,l)
);
},
{
closed = 1;
nodes = (
(105,688,l),
(321,688,l),
(525,207,l),
(541,207,l),
(491,20,l),
(383,20,l),
(128,586,l),
(105,586,l)
);
},
{
closed = 1;
nodes = (
(664,688,l),
(912,688,l),
(912,20,l),
(697,20,l),
(698,612,l),
(649,612,l)
);
}
);
width = 987;
},
{
layerId = "DF54607F-DD82-41E6-B2E3-81CA6D0E5C47";
shapes = (
{
closed = 1;
nodes = (
(393,0,l),
(393,10,l),
(200,53,o),
(95,359,o),
(95,561,cs),
(95,566,l),
(118,566,l),
(509,0,l),
(789,0,l),
(981,592,l),
(1004,592,l),
(1004,20,l),
(943,10,l),
(943,0,l),
(1575,0,l),
(1575,10,l),
(1524,20,l),
(1524,688,l),
(1601,698,l),
(1601,708,l),
(988,708,l),
(845,219,l),
(858,238,l),
(830,238,l),
(853,218,l),
(534,708,l),
(19,708,l),
(19,698,l),
(85,686,l),
(85,20,l),
(5,10,l),
(5,0,l)
);
},
{
closed = 1;
nodes = (
(105,351,l),
(106,351,l),
(109,337,ls),
(138,204,o),
(217,79,o),
(316,20,c),
(105,20,l)
);
},
{
closed = 1;
nodes = (
(104,688,l),
(523,688,l),
(829,218,l),
(839,218,l),
(774,20,l),
(519,20,l),
(128,586,l),
(105,586,l)
);
},
{
closed = 1;
nodes = (
(1003,688,l),
(1504,688,l),
(1504,20,l),
(1024,20,l),
(1024,612,l),
(981,612,l)
);
}
);
width = 1606;
},
{
layerId = "A5088515-37FF-452F-BD44-18A7A5EF88F0";
shapes = (
{
closed = 1;
nodes = (
(305,0,l),
(305,10,l),
(187,10,o),
(165,22,o),
(165,122,cs),
(165,610,l),
(182,610,l),
(471,0,l),
(497,0,l),
(760,610,l),
(776,610,l),
(776,25,l),
(706,10,l),
(706,0,l),
(861,0,l),
(861,10,l),
(791,25,l),
(791,683,l),
(861,698,l),
(861,708,l),
(787,708,l),
(489,18,l),
(495,21,l),
(472,21,l),
(478,18,l),
(151,708,l),
(80,708,l),
(80,698,l),
(150,683,l),
(150,25,l),
(80,10,l),
(80,0,l)
);
},
{
closed = 1;
nodes = (
(156,129,l),
(158,129,l),
(158,106,ls),
(158,36,o),
(181,11,o),
(250,7,c),
(156,7,l)
);
},
{
closed = 1;
nodes = (
(157,680,l),
(158,680,l),
(472,17,l),
(500,17,l),
(496,7,l),
(473,7,l),
(184,617,l),
(157,617,l)
);
},
{
closed = 1;
nodes = (
(780,672,l),
(785,682,l),
(785,7,l),
(781,7,l),
(781,617,l),
(755,617,l)
);
}
);
width = 911;
},
{
layerId = "35A90D60-3AD4-435C-9F8B-D1CA483F6F66";
shapes = (
{
closed = 1;
nodes = (
(407,0,l),
(407,10,l),
(236,10,o),
(204,22,o),
(204,122,cs),
(204,622,l),
(228,622,l),
(645,0,l),
(664,0,l),
(1037,622,l),
(1056,622,l),
(1056,25,l),
(947,10,l),
(947,0,l),
(1181,0,l),
(1181,10,l),
(1071,25,l),
(1071,683,l),
(1181,698,l),
(1181,708,l),
(1071,708,l),
(657,19,l),
(664,21,l),
(644,21,l),
(651,18,l),
(189,708,l),
(80,708,l),
(80,698,l),
(189,683,l),
(189,25,l),
(80,10,l),
(80,0,l)
);
},
{
closed = 1;
nodes = (
(196,129,l),
(198,129,l),
(198,106,ls),
(198,37,o),
(218,20,o),
(319,7,c),
(196,7,l)
);
},
{
closed = 1;
nodes = (
(196,685,l),
(198,685,l),
(647,14,l),
(667,14,l),
(663,7,l),
(647,7,l),
(230,629,l),
(196,629,l)
);
},
{
closed = 1;
nodes = (
(1059,673,l),
(1065,682,l),
(1065,7,l),
(1061,7,l),
(1061,629,l),
(1032,629,l)
);
}
);
width = 1261;
}
);
metricLeft = N;
metricRight = N;
unicode = 77;
},
{
color = 4;
glyphname = N;
kernLeft = HH;
kernRight = N;
lastChange = "2022-08-05 06:04:53 +0000";
layers = (
{
layerId = "2660E96A-9963-4076-AFCB-E451BC6EE103";
shapes = (
{
closed = 1;
nodes = (
(354,0,l),
(354,10,l),
(163,126,o),
(90,330,o),
(90,569,cs),
(90,574,l),
(105,574,l),
(536,0,l),
(667,0,l),
(667,688,l),
(751,698,l),
(751,708,l),
(432,708,l),
(432,698,l),
(576,623,o),
(652,441,o),
(652,267,cs),
(652,262,l),
(635,262,l),
(307,708,l),
(5,708,l),
(5,698,l),
(50,672,o),
(75,639,o),
(75,605,c),
(75,20,l),
(5,10,l),
(5,0,l)
);
},
{
closed = 1;
nodes = (
(95,357,l),
(96,357,l),
(101,335,ls),
(130,207,o),
(203,94,o),
(304,20,c),
(95,20,l)
);
},
{
closed = 1;
nodes = (
(115,594,l),
(95,594,l),
(95,635,o),
(80,664,o),
(53,688,c),
(297,688,l),
(625,242,l),
(647,242,l),
(647,20,l),
(546,20,l)
);
},
{
closed = 1;
nodes = (
(636,482,ls),
(616,552,o),
(547,647,o),
(486,688,c),
(647,688,l),
(647,447,l),
(646,447,l)
);
}
);
width = 756;
},
{
background = {
shapes = (
{
closed = 1;
nodes = (
(656,-20,l),
(656,23,l),
(376,147,o),
(112,268,o),
(112,569,cs),
(112,554,l),
(98,554,l),
(900,-20,l),
(1244,-20,l),
(1244,670,l),
(1328,680,l),
(1328,728,l),
(734,728,l),
(734,684,l),
(927,617,o),
(1187,465,o),
(1187,267,cs),
(1187,282,l),
(1201,282,l),
(574,728,l),
(-15,728,l),
(-15,686,l),
(36,659,o),
(55,635,o),
(55,605,cs),
(55,37,l),
(-15,27,l),
(-15,-20,l)
);
},
{
closed = 1;
nodes = (
(95,442,l),
(95,605,ls),
(95,645,o),
(71,680,o),
(25,709,c),
(25,688,l),
(562,688,l),
(1189,242,l),
(1227,242,l),
(1227,267,ls),
(1227,480,o),
(968,639,o),
(774,712,c),
(774,688,l),
(1288,688,l),
(1288,716,l),
(1204,706,l),
(1204,20,l),
(912,20,l),
(110,594,l),
(72,594,l),
(72,569,ls),
(72,522,o),
(78,480,o),
(89,440,c)
);
},
{
closed = 1;
nodes = (
(581,20,l),
(25,20,l),
(25,-7,l),
(95,3,l),
(95,442,l),
(89,440,l),
(149,224,o),
(359,112,o),
(580,13,c)
);
},
{
closed = 1;
nodes = (
(580,13,l),
(592,8,o),
(604,2,o),
(616,-3,c),
(616,20,l),
(581,20,l)
);
},
{
closed = 1;
nodes = (
(109,295,ls),
(168,188,o),
(274,104,o),
(456,20,c),
(95,20,l),
(95,319,l),
(96,319,l)
);
}
);
};
layerId = "DF54607F-DD82-41E6-B2E3-81CA6D0E5C47";
shapes = (
{
closed = 1;
nodes = (
(636,0,l),
(636,10,l),
(360,132,o),
(92,260,o),
(92,569,cs),
(92,574,l),
(104,574,l),
(906,0,l),
(1224,0,l),
(1224,688,l),
(1308,698,l),
(1308,708,l),
(754,708,l),
(754,698,l),
(947,628,o),
(1207,472,o),
(1207,267,cs),
(1207,262,l),
(1195,262,l),
(568,708,l),
(5,708,l),
(5,698,l),
(52,671,o),
(75,640,o),
(75,605,c),
(75,20,l),
(5,10,l),
(5,0,l)
);
},
{
closed = 1;
nodes = (
(95,420,l),
(97,420,l),
(104,400,ls),
(169,213,o),
(363,111,o),
(564,20,c),
(95,20,l)
);
},
{
closed = 1;
nodes = (
(111,596,l),
(94,596,l),
(94,633,o),
(82,662,o),
(58,686,c),
(561,686,l),
(1188,240,l),
(1207,240,l),
(1207,22,l),
(913,22,l)
);
},
{
closed = 1;
nodes = (
(1188,411,ls),
(1130,518,o),
(1023,602,o),
(841,686,c),
(1202,686,l),
(1202,387,l),
(1201,387,l)
);
}
);
width = 1313;
},
{
background = {
shapes = (
{
closed = 1;
nodes = (
(155,161,l),
(157,137,o),
(158,113,o),
(160,89,c),
(160,40,o),
(175,20,o),
(234,7,c),
(155,7,l)
);
}
);
};
layerId = "A5088515-37FF-452F-BD44-18A7A5EF88F0";
shapes = (
{
closed = 1;
nodes = (
(295,0,l),
(295,10,l),
(198,10,o),
(165,30,o),
(165,89,c),
(165,620,l),
(175,620,l),
(682,0,l),
(692,0,l),
(692,683,l),
(762,698,l),
(762,708,l),
(547,708,l),
(547,698,l),
(645,697,o),
(677,672,o),
(677,600,c),
(677,40,l),
(666,40,l),
(123,708,l),
(80,708,l),
(80,698,l),
(119,686,o),
(150,654,o),
(150,626,c),
(150,25,l),
(80,10,l),
(80,0,l)
);
},
{
closed = 1;
nodes = (
(155,129,l),
(157,129,l),
(157,106,ls),
(157,36,o),
(180,11,o),
(249,7,c),
(155,7,l)
);
},
{
closed = 1;
nodes = (
(176,627,l),
(157,627,l),
(157,656,o),
(126,689,o),
(87,703,c),
(120,703,l),
(664,35,l),
(687,35,l),
(687,7,l),
(682,7,l)
);
},
{
closed = 1;
nodes = (
(684,602,ls),
(681,666,o),
(656,693,o),
(593,701,c),
(687,701,l),
(687,579,l),
(685,579,l)
);
}
);
width = 812;
},
{
background = {
shapes = (
{
closed = 1;
nodes = (
(194,183,l),
(196,152,o),
(196,120,o),
(199,89,cs),
(203,43,o),
(222,22,o),
(273,7,c),
(194,7,l)
);
}
);
};
layerId = "35A90D60-3AD4-435C-9F8B-D1CA483F6F66";
shapes = (
{
closed = 1;
nodes = (
(399,0,l),
(399,10,l),
(253,10,o),
(204,30,o),
(204,89,c),
(204,620,l),
(219,620,l),
(979,0,l),
(987,0,l),
(987,683,l),
(1097,698,l),
(1097,708,l),
(777,708,l),
(777,698,l),
(923,697,o),
(972,672,o),
(972,600,c),
(972,33,l),
(961,33,l),
(134,708,l),
(80,708,l),
(80,698,l),
(141,685,o),
(189,653,o),
(189,626,c),
(189,25,l),
(80,10,l),
(80,0,l)
);
},
{
closed = 1;
nodes = (
(194,129,l),
(196,129,l),
(196,106,ls),
(196,37,o),
(216,20,o),
(317,7,c),
(194,7,l)
);
},
{
closed = 1;
nodes = (
(218,627,l),
(196,627,l),
(196,657,o),
(148,690,o),
(87,702,c),
(132,702,l),
(962,26,l),
(982,26,l),
(982,7,l),
(978,7,l)
);
},
{
closed = 1;
nodes = (
(979,602,ls),
(976,666,o),
(939,696,o),
(859,701,c),
(982,701,l),
(982,579,l),
(980,579,l)
);
}
);
width = 1177;
}
);
unicode = 78;
},
{
color = 4;
glyphname = O;
kernLeft = OO;
kernRight = O;
lastChange = "2023-07-05 22:30:15 +0000";
layers = (
{
background = {
shapes = (
{
closed = 1;
nodes = (
(182,723,o),
(30,576,o),
(30,352,cs),
(30,107,o),
(190,-15,o),
(402,-15,cs),
(612,-15,o),
(770,103,o),
(770,351,cs),
(770,614,o),
(605,723,o),
(402,723,cs)
);
},
{
closed = 1;
nodes = (
(488,713,o),
(520,616,o),
(520,357,cs),
(520,96,o),
(488,-3,o),
(402,-3,cs),
(316,-3,o),
(280,104,o),
(280,356,cs),
(280,611,o),
(316,713,o),
(402,713,cs)
);
},
{
closed = 1;
nodes = (
(182,723,o),
(30,576,o),
(30,352,cs),
(30,107,o),
(190,-15,o),
(402,-15,cs),
(612,-15,o),
(770,103,o),
(770,351,cs),
(770,614,o),
(605,723,o),
(402,723,cs)
);
},
{
closed = 1;
nodes = (
(488,713,o),
(520,616,o),
(520,357,cs),
(520,96,o),
(488,-3,o),
(402,-3,cs),
(316,-3,o),
(280,104,o),
(280,356,cs),
(280,611,o),
(316,713,o),
(402,713,cs)
);
}
);
};
layerId = "2660E96A-9963-4076-AFCB-E451BC6EE103";
shapes = (
{
attr = {
fillColor = (0,255);
};
closed = 1;
nodes = (
(182,723,o),
(30,576,o),
(30,352,cs),
(30,107,o),
(190,-15,o),
(402,-15,cs),
(612,-15,o),
(770,103,o),
(770,351,cs),
(770,614,o),
(605,723,o),
(402,723,cs)
);
},
{
attr = {
fillColor = (0,255);
};
closed = 1;
nodes = (
(488,713,o),
(520,616,o),
(520,357,cs),
(520,96,o),
(488,-3,o),
(402,-3,cs),
(316,-3,o),
(280,104,o),
(280,356,cs),
(280,611,o),
(316,713,o),
(402,713,cs)
);
},
{
attr = {
fillColor = (255,138,216,255);
};
closed = 1;
nodes = (
(160,40,o),
(52,150,o),
(52,352,cs),
(52,536,o),
(154,662,o),
(316,693,c),
(276,638,o),
(258,529,o),
(258,356,cs),
(258,179,o),
(276,67,o),
(320,14,c)
);
},
{
attr = {
fillColor = (255,138,216,255);
};
closed = 1;
nodes = (
(526,67,o),
(542,177,o),
(542,357,cs),
(542,534,o),
(526,641,o),
(486,694,c),
(639,668,o),
(748,565,o),
(748,351,cs),
(748,148,o),
(642,40,o),
(485,14,c)
);
}
);
width = 800;
},
{
layerId = "DF54607F-DD82-41E6-B2E3-81CA6D0E5C47";
shapes = (
{
attr = {
fillColor = (0,255);
};
closed = 1;
nodes = (
(308,723,o),
(30,570,o),
(30,354,cs),
(30,138,o),
(308,-15,o),
(686,-15,cs),
(1062,-15,o),
(1338,138,o),
(1338,354,cs),
(1338,570,o),
(1062,723,o),
(686,723,cs)
);
},
{
attr = {
fillColor = (0,255);
};
closed = 1;
nodes = (
(772,713,o),
(804,616,o),
(804,354,cs),
(804,96,o),
(772,-3,o),
(686,-3,cs),
(600,-3,o),
(564,104,o),
(564,354,cs),
(564,611,o),
(600,713,o),
(686,713,cs)
);
},
{
attr = {
fillColor = (255,138,216,255);
};
closed = 1;
nodes = (
(278,27,o),
(52,165,o),
(52,354,cs),
(52,542,o),
(276,680,o),
(605,699,c),
(560,646,o),
(542,535,o),
(542,354,cs),
(542,173,o),
(561,60,o),
(608,9,c)
);
},
{
attr = {
fillColor = (255,138,216,255);
};
closed = 1;
nodes = (
(809,60,o),
(826,170,o),
(826,354,cs),
(826,537,o),
(810,646,o),
(768,698,c),
(1093,679,o),
(1316,542,o),
(1316,354,cs),
(1316,165,o),
(1092,28,o),
(765,9,c)
);
}
);
width = 1368;
},
{
layerId = "A5088515-37FF-452F-BD44-18A7A5EF88F0";
shapes = (
{
attr = {
fillColor = (0,255);
};
closed = 1;
nodes = (
(188,723,o),
(80,588,o),
(80,360,cs),
(80,124,o),
(188,-15,o),
(371,-15,cs),
(553,-15,o),
(660,124,o),
(660,360,cs),
(660,588,o),
(553,723,o),
(371,723,cs)
);
},
{
attr = {
fillColor = (0,255);
};
closed = 1;
nodes = (
(543,707,o),
(644,578,o),
(644,360,cs),
(644,134,o),
(543,1,o),
(371,1,cs),
(198,1,o),
(96,134,o),
(96,360,cs),
(96,578,o),
(198,707,o),
(371,707,cs)
);
},
{
attr = {
fillColor = (255,138,216,255);
};
closed = 1;
nodes = (
(133,87,o),
(85,200,o),
(85,360,cs),
(85,514,o),
(137,623,o),
(225,677,c),
(143,624,o),
(91,513,o),
(91,360,cs),
(91,201,o),
(140,87,o),
(228,31,c)
);
},
{
attr = {
fillColor = (255,138,216,255);
};
closed = 1;
nodes = (
(598,86,o),
(649,201,o),
(649,360,cs),
(649,512,o),
(597,623,o),
(516,677,c),
(604,623,o),
(655,513,o),
(655,360,cs),
(655,200,o),
(604,86,o),
(514,31,c)
);
}
);
width = 740;
},
{
layerId = "35A90D60-3AD4-435C-9F8B-D1CA483F6F66";
shapes = (
{
attr = {
fillColor = (0,255);
};
closed = 1;
nodes = (
(291,723,o),
(90,573,o),
(90,360,cs),
(90,140,o),
(291,-15,o),
(576,-15,cs),
(858,-15,o),
(1057,140,o),
(1057,360,cs),
(1057,573,o),
(858,723,o),
(576,723,cs)
);
},
{
attr = {
fillColor = (0,255);
};
closed = 1;
nodes = (
(849,707,o),
(1042,563,o),
(1042,360,cs),
(1042,150,o),
(849,1,o),
(576,1,cs),
(300,1,o),
(105,150,o),
(105,360,cs),
(105,563,o),
(300,707,o),
(576,707,cs)
);
},
{
attr = {
fillColor = (255,138,216,255);
};
closed = 1;
nodes = (
(191,89,o),
(95,208,o),
(95,360,cs),
(95,505,o),
(190,620,o),
(349,677,c),
(195,621,o),
(100,505,o),
(100,360,cs),
(100,209,o),
(195,88,o),
(352,31,c)
);
},
{
attr = {
fillColor = (255,138,216,255);
};
closed = 1;
nodes = (
(949,88,o),
(1047,209,o),
(1047,360,cs),
(1047,505,o),
(954,621,o),
(801,677,c),
(959,621,o),
(1052,506,o),
(1052,360,cs),
(1052,208,o),
(953,89,o),
(799,31,c)
);
}
);
width = 1147;
},
{
associatedMasterId = "A5088515-37FF-452F-BD44-18A7A5EF88F0";
attr = {
colorPalette = 0;
};
layerId = "825FEFDD-4810-4313-A746-EDB3C8875E60";
name = "5 Jul 23, 17:24";
shapes = (
{
attr = {
fillColor = (0,255);
};
closed = 1;
nodes = (
(188,723,o),
(80,588,o),
(80,360,cs),
(80,124,o),
(188,-15,o),
(371,-15,cs),
(553,-15,o),
(660,124,o),
(660,360,cs),
(660,588,o),
(553,723,o),
(371,723,cs)
);
},
{
attr = {
fillColor = (0,255);
};
closed = 1;
nodes = (
(543,707,o),
(644,578,o),
(644,360,cs),
(644,134,o),
(543,1,o),
(371,1,cs),
(198,1,o),
(96,134,o),
(96,360,cs),
(96,578,o),
(198,707,o),
(371,707,cs)
);
}
);
width = 740;
},
{
associatedMasterId = "A5088515-37FF-452F-BD44-18A7A5EF88F0";
attr = {
colorPalette = 1;
};
layerId = "855609A1-A2CC-44A2-957F-8E1C1B5C2E63";
name = "Color 0 5 Jul 23, 17:26";
shapes = (
{
attr = {
fillColor = (255,138,216,255);
};
closed = 1;
nodes = (
(133,87,o),
(85,200,o),
(85,360,cs),
(85,514,o),
(137,623,o),
(225,677,c),
(143,624,o),
(91,513,o),
(91,360,cs),
(91,201,o),
(140,87,o),
(228,31,c)
);
},
{
attr = {
fillColor = (255,138,216,255);
};
closed = 1;
nodes = (
(598,86,o),
(649,201,o),
(649,360,cs),
(649,512,o),
(597,623,o),
(516,677,c),
(604,623,o),
(655,513,o),
(655,360,cs),
(655,200,o),
(604,86,o),
(514,31,c)
);
}
);
width = 740;
},
{
associatedMasterId = "2660E96A-9963-4076-AFCB-E451BC6EE103";
attr = {
colorPalette = 0;
};
background = {
shapes = (
{
closed = 1;
nodes = (
(182,723,o),
(30,576,o),
(30,352,cs),
(30,107,o),
(190,-15,o),
(402,-15,cs),
(612,-15,o),
(770,103,o),
(770,351,cs),
(770,614,o),
(605,723,o),
(402,723,cs)
);
},
{
closed = 1;
nodes = (
(488,713,o),
(520,616,o),
(520,357,cs),
(520,96,o),
(488,-3,o),
(402,-3,cs),
(316,-3,o),
(280,104,o),
(280,356,cs),
(280,611,o),
(316,713,o),
(402,713,cs)
);
},
{
closed = 1;
nodes = (
(182,723,o),
(30,576,o),
(30,352,cs),
(30,107,o),
(190,-15,o),
(402,-15,cs),
(612,-15,o),
(770,103,o),
(770,351,cs),
(770,614,o),
(605,723,o),
(402,723,cs)
);
},
{
closed = 1;
nodes = (
(488,713,o),
(520,616,o),
(520,357,cs),
(520,96,o),
(488,-3,o),
(402,-3,cs),
(316,-3,o),
(280,104,o),
(280,356,cs),
(280,611,o),
(316,713,o),
(402,713,cs)
);
}
);
};
layerId = "76041739-DC5B-404B-BD0A-68A00BD4707B";
name = "5 Jul 23, 17:27";
shapes = (
{
attr = {
fillColor = (0,255);
};
closed = 1;
nodes = (
(182,723,o),
(30,576,o),
(30,352,cs),
(30,107,o),
(190,-15,o),
(402,-15,cs),
(612,-15,o),
(770,103,o),
(770,351,cs),
(770,614,o),
(605,723,o),
(402,723,cs)
);
},
{
attr = {
fillColor = (0,255);
};
closed = 1;
nodes = (
(488,713,o),
(520,616,o),
(520,357,cs),
(520,96,o),
(488,-3,o),
(402,-3,cs),
(316,-3,o),
(280,104,o),
(280,356,cs),
(280,611,o),
(316,713,o),
(402,713,cs)
);
}
);
width = 800;
},
{
associatedMasterId = "2660E96A-9963-4076-AFCB-E451BC6EE103";
attr = {
colorPalette = 1;
};
background = {
shapes = (
{
closed = 1;
nodes = (
(182,723,o),
(30,576,o),
(30,352,cs),
(30,107,o),
(190,-15,o),
(402,-15,cs),
(612,-15,o),
(770,103,o),
(770,351,cs),
(770,614,o),
(605,723,o),
(402,723,cs)
);
},
{
closed = 1;
nodes = (
(488,713,o),
(520,616,o),
(520,357,cs),
(520,96,o),
(488,-3,o),
(402,-3,cs),
(316,-3,o),
(280,104,o),
(280,356,cs),
(280,611,o),
(316,713,o),
(402,713,cs)
);
},
{
closed = 1;
nodes = (
(182,723,o),
(30,576,o),
(30,352,cs),
(30,107,o),
(190,-15,o),
(402,-15,cs),
(612,-15,o),
(770,103,o),
(770,351,cs),
(770,614,o),
(605,723,o),
(402,723,cs)
);
},
{
closed = 1;
nodes = (
(488,713,o),
(520,616,o),
(520,357,cs),
(520,96,o),
(488,-3,o),
(402,-3,cs),
(316,-3,o),
(280,104,o),
(280,356,cs),
(280,611,o),
(316,713,o),
(402,713,cs)
);
}
);
};
layerId = "3D12EA7C-CB5A-4433-9552-11D61E28730D";
name = "Color 0 5 Jul 23, 17:28";
shapes = (
{
attr = {
fillColor = (255,138,216,255);
};
closed = 1;
nodes = (
(160,40,o),
(52,150,o),
(52,352,cs),
(52,536,o),
(154,662,o),
(316,693,c),
(276,638,o),
(258,529,o),
(258,356,cs),
(258,179,o),
(276,67,o),
(320,14,c)
);
},
{
attr = {
fillColor = (255,138,216,255);
};
closed = 1;
nodes = (
(526,67,o),
(542,177,o),
(542,357,cs),
(542,534,o),
(526,641,o),
(486,694,c),
(639,668,o),
(748,565,o),
(748,351,cs),
(748,148,o),
(642,40,o),
(485,14,c)
);
}
);
width = 800;
},
{
associatedMasterId = "35A90D60-3AD4-435C-9F8B-D1CA483F6F66";
attr = {
colorPalette = 0;
};
layerId = "651024FA-AA4A-4B73-9E86-8F0FF0D8B282";
name = "5 Jul 23, 17:29";
shapes = (
{
attr = {
fillColor = (0,255);
};
closed = 1;
nodes = (
(291,723,o),
(90,573,o),
(90,360,cs),
(90,140,o),
(291,-15,o),
(576,-15,cs),
(858,-15,o),
(1057,140,o),
(1057,360,cs),
(1057,573,o),
(858,723,o),
(576,723,cs)
);
},
{
attr = {
fillColor = (0,255);
};
closed = 1;
nodes = (
(849,707,o),
(1042,563,o),
(1042,360,cs),
(1042,150,o),
(849,1,o),
(576,1,cs),
(300,1,o),
(105,150,o),
(105,360,cs),
(105,563,o),
(300,707,o),
(576,707,cs)
);
}
);
width = 1147;
},
{
associatedMasterId = "35A90D60-3AD4-435C-9F8B-D1CA483F6F66";
attr = {
colorPalette = 1;
};
layerId = "991B359C-3591-41B8-87B7-8FE289379BD0";
name = "5 Jul 23, 17:29";
shapes = (
{
attr = {
fillColor = (255,138,216,255);
};
closed = 1;
nodes = (
(191,89,o),
(95,208,o),
(95,360,cs),
(95,505,o),
(190,620,o),
(349,677,c),
(195,621,o),
(100,505,o),
(100,360,cs),
(100,209,o),
(195,88,o),
(352,31,c)
);
},
{
attr = {
fillColor = (255,138,216,255);
};
closed = 1;
nodes = (
(949,88,o),
(1047,209,o),
(1047,360,cs),
(1047,505,o),
(954,621,o),
(801,677,c),
(959,621,o),
(1052,506,o),
(1052,360,cs),
(1052,208,o),
(953,89,o),
(799,31,c)
);
}
);
width = 1147;
},
{
associatedMasterId = "DF54607F-DD82-41E6-B2E3-81CA6D0E5C47";
attr = {
colorPalette = 0;
};
layerId = "B582D01E-3ACA-4600-A3F9-D6A18D9A43C9";
name = "5 Jul 23, 17:29";
shapes = (
{
attr = {
fillColor = (0,255);
};
closed = 1;
nodes = (
(308,723,o),
(30,570,o),
(30,354,cs),
(30,138,o),
(308,-15,o),
(686,-15,cs),
(1062,-15,o),
(1338,138,o),
(1338,354,cs),
(1338,570,o),
(1062,723,o),
(686,723,cs)
);
},
{
attr = {
fillColor = (0,255);
};
closed = 1;
nodes = (
(772,713,o),
(804,616,o),
(804,354,cs),
(804,96,o),
(772,-3,o),
(686,-3,cs),
(600,-3,o),
(564,104,o),
(564,354,cs),
(564,611,o),
(600,713,o),
(686,713,cs)
);
}
);
width = 1368;
},
{
associatedMasterId = "DF54607F-DD82-41E6-B2E3-81CA6D0E5C47";
attr = {
colorPalette = 1;
};
layerId = "9EAF30CB-B156-471F-95B7-A9F92471CBAC";
name = "5 Jul 23, 17:29";
shapes = (
{
attr = {
fillColor = (255,138,216,255);
};
closed = 1;
nodes = (
(278,27,o),
(52,165,o),
(52,354,cs),
(52,542,o),
(276,680,o),
(605,699,c),
(560,646,o),
(542,535,o),
(542,354,cs),
(542,173,o),
(561,60,o),
(608,9,c)
);
},
{
attr = {
fillColor = (255,138,216,255);
};
closed = 1;
nodes = (
(809,60,o),
(826,170,o),
(826,354,cs),
(826,537,o),
(810,646,o),
(768,698,c),
(1093,679,o),
(1316,542,o),
(1316,354,cs),
(1316,165,o),
(1092,28,o),
(765,9,c)
);
}
);
width = 1368;
}
);
unicode = 79;
},
{
color = 3;
glyphname = Oslash;
kernLeft = OO;
kernRight = O;
lastChange = "2022-08-05 06:04:53 +0000";
layers = (
{
layerId = "2660E96A-9963-4076-AFCB-E451BC6EE103";
shapes = (
{
closed = 1;
nodes = (
(234,-92,l),
(250,-92,l),
(574,800,l),
(558,800,l)
);
},
{
ref = O;
}
);
width = 800;
},
{
layerId = "DF54607F-DD82-41E6-B2E3-81CA6D0E5C47";
shapes = (
{
closed = 1;
nodes = (
(508,-92,l),
(524,-92,l),
(848,800,l),
(832,800,l)
);
},
{
ref = O;
}
);
width = 1368;
},
{
layerId = "A5088515-37FF-452F-BD44-18A7A5EF88F0";
shapes = (
{
closed = 1;
nodes = (
(223,-92,l),
(239,-92,l),
(563,800,l),
(547,800,l)
);
},
{
ref = O;
}
);
width = 740;
},
{
layerId = "35A90D60-3AD4-435C-9F8B-D1CA483F6F66";
shapes = (
{
closed = 1;
nodes = (
(382,-92,l),
(398,-92,l),
(722,800,l),
(706,800,l)
);
},
{
alignment = -1;
ref = O;
}
);
width = 1147;
}
);
metricLeft = O;
metricRight = O;
unicode = 216;
},
{
color = 4;
glyphname = OE;
kernLeft = OO;
kernRight = E;
lastChange = "2022-08-05 06:04:53 +0000";
layers = (
{
background = {
shapes = (
{
closed = 1;
nodes = (
(306,12,o),
(280,124,o),
(280,366,cs),
(280,591,o),
(306,698,o),
(392,698,cs),
(404,698,o),
(414,695,o),
(422,688,cs),
(434,679,o),
(443,662,o),
(450,636,cs),
(464,587,o),
(470,503,o),
(470,367,cs),
(470,229,o),
(465,141,o),
(453,87,cs),
(440,31,o),
(421,12,o),
(392,12,cs)
);
},
{
closed = 1;
nodes = (
(829,692,o),
(879,659,o),
(912,598,cs),
(1007,424,l),
(1017,424,l),
(1052,708,l),
(494,708,l),
(460,708,o),
(426,708,o),
(392,708,cs),
(172,708,o),
(30,556,o),
(30,362,cs),
(30,127,o),
(180,0,o),
(392,0,cs),
(426,0,o),
(460,0,o),
(494,0,c),
(1052,0,l),
(1017,284,l),
(1007,284,l),
(938,138,ls),
(902,62,o),
(842,17,o),
(797,16,cs),
(715,15,l),
(715,356,l),
(725,356,l),
(871,246,l),
(881,246,l),
(881,506,l),
(871,506,l),
(865,486,o),
(842,438,o),
(809,404,cs),
(788,384,o),
(763,368,o),
(735,366,c),
(715,366,l),
(715,693,l),
(797,692,ls)
);
},
{
closed = 1;
nodes = (
(803,362,o),
(828,384,o),
(859,433,c),
(859,282,l),
(768,351,l)
);
},
{
closed = 1;
nodes = (
(906,43,o),
(933,76,o),
(958,129,cs),
(1003,223,l),
(1027,20,l),
(873,20,l)
);
},
{
closed = 1;
nodes = (
(931,609,ls),
(910,648,o),
(892,669,o),
(867,688,c),
(1027,688,l),
(1002,479,l)
);
},
{
closed = 1;
nodes = (
(160,40,o),
(52,150,o),
(52,352,cs),
(52,536,o),
(154,662,o),
(316,693,c),
(276,638,o),
(258,529,o),
(258,356,cs),
(258,179,o),
(276,67,o),
(320,14,c)
);
},
{
closed = 1;
nodes = (
(447,20,l),
(479,61,o),
(490,148,o),
(490,367,cs),
(490,562,o),
(480,642,o),
(449,688,c),
(695,688,l),
(695,20,l)
);
}
);
};
layerId = "2660E96A-9963-4076-AFCB-E451BC6EE103";
shapes = (
{
closed = 1;
nodes = (
(306,12,o),
(280,124,o),
(280,366,cs),
(280,591,o),
(306,698,o),
(392,698,cs),
(393,698,o),
(394,698,o),
(395,698,cs),
(449,698,o),
(470,606,o),
(470,367,cs),
(470,101,o),
(451,12,o),
(395,12,cs),
(394,12,o),
(393,12,o),
(392,12,cs)
);
},
{
closed = 1;
nodes = (
(829,692,o),
(879,659,o),
(912,598,cs),
(1007,424,l),
(1017,424,l),
(1052,708,l),
(494,708,l),
(460,708,o),
(426,708,o),
(392,708,cs),
(172,708,o),
(30,556,o),
(30,362,cs),
(30,127,o),
(180,0,o),
(392,0,cs),
(426,0,o),
(460,0,o),
(494,0,c),
(1052,0,l),
(1017,284,l),
(1007,284,l),
(938,138,ls),
(902,62,o),
(842,17,o),
(797,16,cs),
(715,15,l),
(715,356,l),
(725,356,l),
(871,246,l),
(881,246,l),
(881,506,l),
(871,506,l),
(865,486,o),
(842,438,o),
(809,404,cs),
(788,384,o),
(763,368,o),
(735,366,c),
(715,366,l),
(715,693,l),
(797,692,ls)
);
},
{
closed = 1;
nodes = (
(803,362,o),
(828,384,o),
(859,433,c),
(859,282,l),
(768,351,l)
);
},
{
closed = 1;
nodes = (
(906,43,o),
(933,76,o),
(958,129,cs),
(1003,223,l),
(1027,20,l),
(873,20,l)
);
},
{
closed = 1;
nodes = (
(931,609,ls),
(910,648,o),
(892,669,o),
(867,688,c),
(1027,688,l),
(1002,479,l)
);
},
{
closed = 1;
nodes = (
(160,40,o),
(52,150,o),
(52,352,cs),
(52,536,o),
(154,662,o),
(316,693,c),
(276,638,o),
(258,529,o),
(258,356,cs),
(258,179,o),
(276,67,o),
(320,14,c)
);
},
{
closed = 1;
nodes = (
(447,20,l),
(479,61,o),
(490,148,o),
(490,367,cs),
(490,557,o),
(480,637,o),
(449,688,c),
(695,688,l),
(695,20,l)
);
}
);
width = 1102;
},
{
background = {
shapes = (
{
closed = 1;
nodes = (
(600,12,o),
(564,104,o),
(564,354,cs),
(564,611,o),
(600,698,o),
(686,698,cs),
(724,698,o),
(751,682,o),
(770,642,cs),
(794,591,o),
(804,500,o),
(804,354,cs),
(804,234,o),
(797,152,o),
(781,98,cs),
(763,36,o),
(732,12,o),
(686,12,cs)
);
},
{
closed = 1;
nodes = (
(1581,691,o),
(1683,657,o),
(1773,579,cs),
(1950,424,l),
(1960,424,l),
(2034,708,l),
(882,708,l),
(817,708,o),
(751,708,o),
(686,708,c),
(308,708,o),
(30,570,o),
(30,354,cs),
(30,138,o),
(308,0,o),
(686,0,c),
(751,0,o),
(817,0,o),
(882,0,c),
(2034,0,l),
(1960,284,l),
(1950,284,l),
(1802,140,ls),
(1715,55,o),
(1601,17,o),
(1493,16,cs),
(1338,15,l),
(1338,356,l),
(1350,356,l),
(1661,246,l),
(1671,246,l),
(1671,506,l),
(1661,506,l),
(1650,488,o),
(1606,448,o),
(1546,416,cs),
(1495,388,o),
(1434,366,o),
(1371,366,cs),
(1338,366,l),
(1338,693,l),
(1493,692,ls)
);
},
{
closed = 1;
nodes = (
(1521,372,o),
(1576,399,o),
(1649,462,c),
(1649,274,l),
(1429,351,l)
);
},
{
closed = 1;
nodes = (
(1705,39,o),
(1765,73,o),
(1817,124,cs),
(1946,250,l),
(2006,20,l),
(1634,20,l)
);
},
{
closed = 1;
nodes = (
(1787,596,ls),
(1735,642,o),
(1679,672,o),
(1619,688,c),
(2006,688,l),
(1946,457,l)
);
},
{
closed = 1;
nodes = (
(278,27,o),
(52,165,o),
(52,354,cs),
(52,542,o),
(276,680,o),
(605,699,c),
(560,646,o),
(542,535,o),
(542,354,cs),
(542,173,o),
(561,60,o),
(608,9,c)
);
},
{
closed = 1;
nodes = (
(761,20,l),
(808,64,o),
(824,148,o),
(824,354,cs),
(824,554,o),
(809,637,o),
(763,688,c),
(1318,688,l),
(1318,20,l)
);
}
);
};
layerId = "DF54607F-DD82-41E6-B2E3-81CA6D0E5C47";
shapes = (
{
closed = 1;
nodes = (
(600,12,o),
(564,104,o),
(564,354,cs),
(564,611,o),
(600,698,o),
(686,698,cs),
(688,698,o),
(690,698,o),
(692,698,cs),
(773,698,o),
(804,603,o),
(804,354,cs),
(804,107,o),
(772,12,o),
(689,12,cs),
(688,12,o),
(687,12,o),
(686,12,cs)
);
},
{
closed = 1;
nodes = (
(1581,691,o),
(1683,657,o),
(1773,579,cs),
(1950,424,l),
(1960,424,l),
(2034,708,l),
(882,708,l),
(817,708,o),
(751,708,o),
(686,708,c),
(308,708,o),
(30,570,o),
(30,354,cs),
(30,138,o),
(308,0,o),
(686,0,c),
(751,0,o),
(817,0,o),
(882,0,c),
(2034,0,l),
(1960,284,l),
(1950,284,l),
(1802,140,ls),
(1715,55,o),
(1601,17,o),
(1493,16,cs),
(1338,15,l),
(1338,356,l),
(1350,356,l),
(1661,246,l),
(1671,246,l),
(1671,506,l),
(1661,506,l),
(1650,488,o),
(1606,448,o),
(1546,416,cs),
(1495,388,o),
(1434,366,o),
(1371,366,cs),
(1338,366,l),
(1338,693,l),
(1493,692,ls)
);
},
{
closed = 1;
nodes = (
(1521,372,o),
(1576,399,o),
(1649,462,c),
(1649,274,l),
(1429,351,l)
);
},
{
closed = 1;
nodes = (
(1705,39,o),
(1765,73,o),
(1817,124,cs),
(1946,250,l),
(2006,20,l),
(1634,20,l)
);
},
{
closed = 1;
nodes = (
(1787,596,ls),
(1735,642,o),
(1679,672,o),
(1619,688,c),
(2006,688,l),
(1946,457,l)
);
},
{
closed = 1;
nodes = (
(278,27,o),
(52,165,o),
(52,354,cs),
(52,542,o),
(276,680,o),
(605,699,c),
(560,646,o),
(542,535,o),
(542,354,cs),
(542,173,o),
(561,60,o),
(608,9,c)
);
},
{
closed = 1;
nodes = (
(761,20,l),
(808,64,o),
(824,148,o),
(824,354,cs),
(824,551,o),
(809,635,o),
(763,688,c),
(1318,688,l),
(1318,20,l)
);
}
);
width = 2084;
},
{
background = {
shapes = (
{
closed = 1;
nodes = (
(518,703,l),
(523,703,l),
(523,5,l),
(518,5,l)
);
}
);
};
layerId = "A5088515-37FF-452F-BD44-18A7A5EF88F0";
shapes = (
{
closed = 1;
nodes = (
(198,1,o),
(96,134,o),
(96,360,cs),
(96,578,o),
(198,707,o),
(371,707,cs),
(420,707,o),
(474,693,o),
(513,669,c),
(513,566,o),
(513,463,o),
(513,360,c),
(513,253,o),
(513,147,o),
(513,40,c),
(473,14,o),
(421,1,o),
(371,1,cs)
);
},
{
closed = 1;
nodes = (
(911,693,o),
(927,679,o),
(922,635,c),
(906,484,l),
(921,484,l),
(955,708,l),
(468,708,l),
(439,718,o),
(407,723,o),
(371,723,cs),
(188,723,o),
(80,588,o),
(80,360,cs),
(80,124,o),
(188,-15,o),
(371,-15,cs),
(405,-15,o),
(437,-10,o),
(466,0,c),
(955,0,l),
(921,243,l),
(906,243,l),
(928,83,l),
(935,32,o),
(923,15,o),
(878,15,cs),
(528,15,l),
(528,353,l),
(748,353,l),
(754,256,l),
(764,256,l),
(764,498,l),
(754,498,l),
(754,429,o),
(752,401,o),
(745,385,cs),
(740,374,o),
(730,368,o),
(717,368,cs),
(528,368,l),
(528,693,l),
(861,693,ls)
);
},
{
closed = 1;
nodes = (
(754,369,o),
(756,379,o),
(757,388,c),
(757,288,l),
(753,360,l)
);
},
{
closed = 1;
nodes = (
(928,8,o),
(943,29,o),
(935,84,cs),
(914,236,l),
(947,7,l),
(878,7,l)
);
},
{
closed = 1;
nodes = (
(929,634,ls),
(934,683,o),
(915,700,o),
(861,701,c),
(947,701,l),
(915,491,l)
);
},
{
closed = 1;
nodes = (
(133,87,o),
(85,200,o),
(85,360,cs),
(85,514,o),
(137,623,o),
(225,677,c),
(143,624,o),
(91,513,o),
(91,360,cs),
(91,201,o),
(140,87,o),
(228,31,c)
);
},
{
closed = 1;
nodes = (
(518,5,l),
(518,113,o),
(518,252,o),
(518,360,cs),
(518,458,o),
(518,573,o),
(518,703,c),
(523,703,l),
(523,5,l)
);
}
);
width = 1030;
},
{
background = {
shapes = (
{
closed = 1;
nodes = (
(803,703,l),
(808,703,l),
(808,5,l),
(803,5,l)
);
},
{
closed = 1;
nodes = (
(1189,369,o),
(1191,379,o),
(1192,388,c),
(1192,288,l),
(1188,360,l)
);
},
{
closed = 1;
nodes = (
(1503,8,o),
(1517,31,o),
(1509,92,cs),
(1490,236,l),
(1522,7,l),
(1453,7,l)
);
},
{
closed = 1;
nodes = (
(1505,624,ls),
(1511,679,o),
(1492,700,o),
(1436,701,c),
(1522,701,l),
(1490,491,l)
);
}
);
};
layerId = "35A90D60-3AD4-435C-9F8B-D1CA483F6F66";
shapes = (
{
closed = 1;
nodes = (
(300,1,o),
(105,150,o),
(105,360,cs),
(105,563,o),
(300,707,o),
(576,707,cs),
(649,707,o),
(734,694,o),
(798,670,c),
(798,567,o),
(798,463,o),
(798,360,c),
(798,253,o),
(798,147,o),
(798,40,c),
(734,15,o),
(659,1,o),
(576,1,cs)
);
},
{
closed = 1;
nodes = (
(1488,693,o),
(1504,676,o),
(1498,625,c),
(1481,484,l),
(1496,484,l),
(1530,708,l),
(723,708,l),
(678,718,o),
(628,723,o),
(576,723,cs),
(291,723,o),
(90,573,o),
(90,360,cs),
(90,140,o),
(291,-15,o),
(576,-15,cs),
(628,-15,o),
(677,-10,o),
(723,0,c),
(1530,0,l),
(1496,243,l),
(1481,243,l),
(1502,91,l),
(1510,34,o),
(1498,15,o),
(1453,15,cs),
(813,15,l),
(813,353,l),
(1183,353,l),
(1189,256,l),
(1199,256,l),
(1199,498,l),
(1189,498,l),
(1189,433,o),
(1185,391,o),
(1179,381,cs),
(1174,372,o),
(1165,368,o),
(1152,368,cs),
(813,368,l),
(813,693,l),
(1436,693,ls)
);
},
{
closed = 1;
nodes = (
(1189,369,o),
(1191,379,o),
(1192,388,c),
(1192,288,l),
(1188,360,l)
);
},
{
closed = 1;
nodes = (
(1503,8,o),
(1517,31,o),
(1509,92,cs),
(1490,236,l),
(1522,7,l),
(1453,7,l)
);
},
{
closed = 1;
nodes = (
(1505,624,ls),
(1511,679,o),
(1492,700,o),
(1436,701,c),
(1522,701,l),
(1490,491,l)
);
},
{
closed = 1;
nodes = (
(191,89,o),
(95,208,o),
(95,360,cs),
(95,505,o),
(190,620,o),
(349,677,c),
(195,621,o),
(100,505,o),
(100,360,cs),
(100,209,o),
(195,88,o),
(352,31,c)
);
},
{
closed = 1;
nodes = (
(803,5,l),
(803,113,o),
(803,252,o),
(803,360,cs),
(803,458,o),
(803,602,o),
(803,703,c),
(808,703,l),
(808,5,l)
);
}
);
width = 1645;
}
);
metricLeft = O;
metricRight = E;
unicode = 338;
},
{
color = 4;
glyphname = P;
kernLeft = HH;
kernRight = P;
lastChange = "2022-08-05 06:04:53 +0000";
layers = (
{
layerId = "2660E96A-9963-4076-AFCB-E451BC6EE103";
shapes = (
{
closed = 1;
nodes = (
(365,0,l),
(365,10,l),
(315,20,l),
(315,688,l),
(322,691,o),
(360,692,o),
(369,692,cs),
(468,692,o),
(495,605,o),
(495,514,cs),
(495,363,o),
(403,331,o),
(339,327,cs),
(322,326,o),
(316,328,o),
(309,331,c),
(308,314,l),
(322,312,o),
(355,310,o),
(381,311,cs),
(567,311,o),
(745,368,o),
(745,524,cs),
(745,671,o),
(598,708,o),
(454,708,cs),
(20,708,l),
(20,698,l),
(70,688,l),
(70,20,l),
(20,10,l),
(20,0,l)
);
},
{
closed = 1;
nodes = (
(90,688,l),
(295,688,l),
(295,20,l),
(90,20,l)
);
},
{
closed = 1;
nodes = (
(483,361,o),
(515,422,o),
(515,514,cs),
(515,602,o),
(492,660,o),
(446,691,c),
(634,691,o),
(725,634,o),
(725,524,cs),
(725,407,o),
(627,341,o),
(419,329,c)
);
}
);
width = 775;
},
{
layerId = "DF54607F-DD82-41E6-B2E3-81CA6D0E5C47";
shapes = (
{
closed = 1;
nodes = (
(640,0,l),
(640,10,l),
(590,20,l),
(590,686,l),
(597,689,o),
(635,692,o),
(644,692,cs),
(729,692,o),
(770,634,o),
(770,514,cs),
(770,363,o),
(678,331,o),
(614,327,cs),
(597,326,o),
(591,328,o),
(584,331,c),
(583,314,l),
(597,312,o),
(630,310,o),
(656,311,cs),
(1095,311,o),
(1310,381,o),
(1310,524,cs),
(1310,648,o),
(1119,708,o),
(729,708,cs),
(20,708,l),
(20,698,l),
(70,688,l),
(70,20,l),
(20,10,l),
(20,0,l)
);
},
{
closed = 1;
nodes = (
(90,688,l),
(570,688,l),
(570,20,l),
(90,20,l)
);
},
{
closed = 1;
nodes = (
(750,355,o),
(790,411,o),
(790,514,cs),
(790,604,o),
(768,662,o),
(723,691,c),
(1104,691,o),
(1290,634,o),
(1290,524,cs),
(1290,400,o),
(1095,334,o),
(700,329,c)
);
}
);
width = 1340;
},
{
layerId = "A5088515-37FF-452F-BD44-18A7A5EF88F0";
name = Thin;
shapes = (
{
closed = 1;
nodes = (
(235,0,l),
(235,10,l),
(165,25,l),
(165,683,l),
(223,693,o),
(281,692,o),
(345,692,cs),
(480,692,o),
(559,627,o),
(559,517,cs),
(559,400,o),
(479,331,o),
(343,331,cs),
(263,331,o),
(210,339,o),
(163,355,c),
(163,329,l),
(234,321,o),
(276,315,o),
(343,315,cs),
(488,315,o),
(574,390,o),
(574,517,cs),
(574,637,o),
(489,708,o),
(345,708,cs),
(80,708,l),
(80,698,l),
(150,683,l),
(150,25,l),
(80,10,l),
(80,0,l)
);
},
{
closed = 1;
nodes = (
(155,703,l),
(160,703,l),
(160,5,l),
(155,5,l)
);
},
{
closed = 1;
nodes = (
(508,353,o),
(564,418,o),
(564,517,cs),
(564,609,o),
(509,671,o),
(425,692,c),
(514,674,o),
(569,609,o),
(569,517,cs),
(569,418,o),
(517,351,o),
(418,331,c)
);
}
);
width = 614;
},
{
background = {
shapes = (
{
closed = 1;
nodes = (
(100,708,l),
(100,698,l),
(209,683,l),
(209,25,l),
(100,10,l),
(100,0,l),
(334,0,l),
(334,10,l),
(224,25,l),
(224,683,l),
(324,693,o),
(424,692,o),
(535,692,cs),
(768,692,o),
(916,627,o),
(916,517,cs),
(916,400,o),
(767,331,o),
(531,331,cs),
(390,331,o),
(297,339,o),
(213,356,c),
(214,329,l),
(340,321,o),
(414,315,o),
(531,315,c),
(783,315,o),
(931,390,o),
(931,517,cs),
(931,637,o),
(784,708,o),
(535,708,c)
);
}
);
};
layerId = "35A90D60-3AD4-435C-9F8B-D1CA483F6F66";
name = "Thin Extended";
shapes = (
{
closed = 1;
nodes = (
(334,0,l),
(334,10,l),
(224,25,l),
(224,683,l),
(324,693,o),
(424,692,o),
(535,692,cs),
(768,692,o),
(916,627,o),
(916,517,cs),
(916,400,o),
(767,331,o),
(531,331,cs),
(395,331,o),
(303,338,o),
(222,354,c),
(222,329,l),
(343,321,o),
(416,315,o),
(531,315,cs),
(783,315,o),
(931,390,o),
(931,517,cs),
(931,637,o),
(784,708,o),
(535,708,cs),
(100,708,l),
(100,698,l),
(209,683,l),
(209,25,l),
(100,10,l),
(100,0,l)
);
},
{
closed = 1;
nodes = (
(214,703,l),
(219,703,l),
(219,5,l),
(214,5,l)
);
},
{
closed = 1;
nodes = (
(824,354,o),
(921,421,o),
(921,517,cs),
(921,607,o),
(824,670,o),
(671,692,c),
(834,673,o),
(926,607,o),
(926,517,cs),
(926,421,o),
(833,352,o),
(664,331,c)
);
}
);
width = 1001;
}
);
metricLeft = H;
unicode = 80;
},
{
color = 4;
glyphname = Thorn;
kernLeft = HH;
kernRight = thorn;
lastChange = "2022-08-05 06:04:53 +0000";
layers = (
{
layerId = "2660E96A-9963-4076-AFCB-E451BC6EE103";
shapes = (
{
closed = 1;
nodes = (
(365,0,l),
(365,10,l),
(315,25,l),
(315,683,l),
(365,698,l),
(365,708,l),
(20,708,l),
(20,698,l),
(70,683,l),
(70,25,l),
(20,10,l),
(20,0,l)
);
},
{
closed = 1;
nodes = (
(568,185,o),
(745,238,o),
(745,394,cs),
(745,541,o),
(598,582,o),
(454,582,cs),
(402,582,o),
(338,576,o),
(305,574,c),
(305,558,l),
(322,561,o),
(360,562,o),
(369,562,cs),
(468,562,o),
(495,475,o),
(495,384,cs),
(495,261,o),
(407,196,o),
(333,196,cs),
(325,196,o),
(311,198,o),
(309,199,c),
(308,188,l),
(322,186,o),
(355,185,o),
(381,185,cs)
);
},
{
closed = 1;
nodes = (
(90,688,l),
(295,688,l),
(295,20,l),
(90,20,l)
);
},
{
closed = 1;
nodes = (
(483,231,o),
(515,292,o),
(515,384,cs),
(515,471,o),
(492,530,o),
(446,561,c),
(634,561,o),
(725,504,o),
(725,394,cs),
(725,277,o),
(627,211,o),
(419,199,c)
);
}
);
width = 775;
},
{
layerId = "DF54607F-DD82-41E6-B2E3-81CA6D0E5C47";
shapes = (
{
closed = 1;
nodes = (
(640,0,l),
(640,10,l),
(590,20,l),
(590,688,l),
(640,698,l),
(640,708,l),
(20,708,l),
(20,698,l),
(70,688,l),
(70,20,l),
(20,10,l),
(20,0,l)
);
},
{
closed = 1;
nodes = (
(1095,221,o),
(1310,291,o),
(1310,434,cs),
(1310,558,o),
(1119,618,o),
(729,618,cs),
(681,618,o),
(634,618,o),
(586,615,c),
(590,596,l),
(597,599,o),
(635,602,o),
(644,602,cs),
(729,602,o),
(770,544,o),
(770,424,cs),
(770,273,o),
(678,241,o),
(614,237,cs),
(597,236,o),
(591,238,o),
(584,241,c),
(583,224,l),
(597,222,o),
(630,220,o),
(656,221,c)
);
},
{
closed = 1;
nodes = (
(90,688,l),
(570,688,l),
(570,20,l),
(90,20,l)
);
},
{
closed = 1;
nodes = (
(750,265,o),
(790,321,o),
(790,424,cs),
(790,514,o),
(768,572,o),
(723,601,c),
(1104,601,o),
(1290,544,o),
(1290,434,cs),
(1290,310,o),
(1095,244,o),
(700,239,c)
);
}
);
width = 1340;
},
{
layerId = "A5088515-37FF-452F-BD44-18A7A5EF88F0";
shapes = (
{
closed = 1;
nodes = (
(235,0,l),
(235,10,l),
(165,20,l),
(165,688,l),
(235,698,l),
(235,708,l),
(80,708,l),
(80,698,l),
(150,688,l),
(150,20,l),
(80,10,l),
(80,0,l)
);
},
{
closed = 1;
nodes = (
(490,185,o),
(574,260,o),
(574,387,cs),
(574,507,o),
(489,578,o),
(345,578,c),
(269,578,o),
(220,574,o),
(158,572,c),
(159,551,l),
(218,563,o),
(278,562,o),
(345,562,cs),
(480,562,o),
(559,497,o),
(559,387,cs),
(559,270,o),
(479,201,o),
(343,201,cs),
(261,201,o),
(207,209,o),
(159,226,c),
(159,199,l),
(232,191,o),
(275,185,o),
(343,185,cs)
);
},
{
closed = 1;
nodes = (
(155,703,l),
(160,703,l),
(160,5,l),
(155,5,l)
);
},
{
closed = 1;
nodes = (
(508,223,o),
(564,288,o),
(564,387,cs),
(564,479,o),
(509,541,o),
(425,562,c),
(514,544,o),
(569,479,o),
(569,387,cs),
(569,288,o),
(517,221,o),
(418,201,c)
);
}
);
width = 614;
},
{
layerId = "35A90D60-3AD4-435C-9F8B-D1CA483F6F66";
shapes = (
{
closed = 1;
nodes = (
(334,0,l),
(334,10,l),
(224,25,l),
(224,683,l),
(334,698,l),
(334,708,l),
(100,708,l),
(100,698,l),
(209,683,l),
(209,25,l),
(100,10,l),
(100,0,l)
);
},
{
closed = 1;
nodes = (
(780,180,o),
(928,255,o),
(928,382,cs),
(928,502,o),
(781,573,o),
(532,573,c),
(425,573,o),
(323,572,o),
(221,566,c),
(221,548,l),
(321,558,o),
(421,557,o),
(532,557,cs),
(765,557,o),
(913,492,o),
(913,382,cs),
(913,265,o),
(764,196,o),
(528,196,cs),
(387,196,o),
(294,204,o),
(210,221,c),
(211,194,l),
(337,186,o),
(411,180,o),
(528,180,c)
);
},
{
closed = 1;
nodes = (
(214,703,l),
(219,703,l),
(219,5,l),
(214,5,l)
);
},
{
closed = 1;
nodes = (
(821,219,o),
(918,286,o),
(918,382,cs),
(918,472,o),
(821,535,o),
(668,557,c),
(831,538,o),
(923,472,o),
(923,382,cs),
(923,286,o),
(830,217,o),
(661,196,c)
);
}
);
width = 998;
}
);
metricLeft = P;
metricRight = P;
unicode = 222;
},
{
color = 4;
glyphname = Q;
kernLeft = OO;
kernRight = O;
lastChange = "2022-08-05 06:04:53 +0000";
layers = (
{
layerId = "2660E96A-9963-4076-AFCB-E451BC6EE103";
shapes = (
{
closed = 1;
nodes = (
(389,-129,o),
(443,-215,o),
(529,-215,cs),
(625,-215,o),
(642,-89,o),
(645,-67,c),
(639,-65,l),
(635,-84,o),
(604,-120,o),
(532,-120,cs),
(468,-120,o),
(402,-91,o),
(384,-5,c),
(369,-5,l)
);
},
{
closed = 1;
nodes = (
(595,-160,o),
(572,-193,o),
(529,-193,cs),
(480,-193,o),
(444,-161,o),
(420,-106,c),
(452,-132,o),
(493,-142,o),
(532,-142,cs),
(563,-142,o),
(588,-136,o),
(607,-127,c)
);
},
{
ref = O;
}
);
width = 800;
},
{
layerId = "DF54607F-DD82-41E6-B2E3-81CA6D0E5C47";
shapes = (
{
closed = 1;
nodes = (
(675,-129,o),
(767,-215,o),
(913,-215,cs),
(1076,-215,o),
(1105,-89,o),
(1111,-67,c),
(1100,-65,l),
(1093,-84,o),
(1041,-120,o),
(918,-120,cs),
(809,-120,o),
(697,-91,o),
(666,-5,c),
(640,-5,l)
);
},
{
closed = 1;
nodes = (
(1044,-154,o),
(1000,-193,o),
(913,-193,cs),
(813,-193,o),
(743,-152,o),
(699,-84,c),
(755,-127,o),
(839,-142,o),
(918,-142,cs),
(986,-142,o),
(1034,-132,o),
(1067,-117,c)
);
},
{
ref = O;
}
);
width = 1368;
},
{
layerId = "A5088515-37FF-452F-BD44-18A7A5EF88F0";
shapes = (
{
closed = 1;
nodes = (
(413,-112,o),
(470,-165,o),
(554,-165,cs),
(616,-165,o),
(645,-132,o),
(655,-110,c),
(650,-105,l),
(650,-105,o),
(637,-151,o),
(554,-151,cs),
(477,-151,o),
(424,-103,o),
(394,-5,c),
(380,-5,l)
);
},
{
closed = 1;
nodes = (
(594,-156,o),
(575,-160,o),
(554,-160,cs),
(497,-160,o),
(454,-135,o),
(422,-84,c),
(454,-132,o),
(498,-156,o),
(554,-156,cs),
(579,-156,o),
(598,-153,o),
(610,-147,c)
);
},
{
ref = O;
}
);
width = 740;
},
{
layerId = "35A90D60-3AD4-435C-9F8B-D1CA483F6F66";
shapes = (
{
closed = 1;
nodes = (
(586,-112,o),
(666,-165,o),
(784,-165,cs),
(870,-165,o),
(911,-132,o),
(925,-110,c),
(918,-105,l),
(918,-105,o),
(900,-151,o),
(784,-151,cs),
(676,-151,o),
(596,-103,o),
(554,-5,c),
(540,-5,l)
);
},
{
closed = 1;
nodes = (
(845,-155,o),
(816,-160,o),
(784,-160,cs),
(704,-160,o),
(642,-135,o),
(597,-84,c),
(643,-132,o),
(705,-156,o),
(784,-156,cs),
(816,-156,o),
(845,-153,o),
(864,-147,c)
);
},
{
ref = O;
}
);
width = 1147;
}
);
metricLeft = O;
metricRight = O;
unicode = 81;
},
{
color = 4;
glyphname = R;
kernLeft = HH;
kernRight = R;
lastChange = "2022-08-05 06:04:53 +0000";
layers = (
{
background = {
shapes = (
{
closed = 1;
nodes = (
(705,443,o),
(594,406,o),
(449,391,c),
(488,421,o),
(509,472,o),
(509,538,cs),
(509,608,o),
(489,660,o),
(450,688,c),
(606,688,o),
(705,656,o),
(705,544,cs)
);
},
{
closed = 1;
nodes = (
(509,333,o),
(582,304,o),
(612,225,cs),
(647,138,o),
(677,54,o),
(711,26,cs),
(713,24,l),
(684,9,o),
(649,5,o),
(625,5,cs),
(543,5,o),
(487,45,o),
(455,107,cs),
(433,150,o),
(402,230,o),
(367,334,c)
);
}
);
};
layerId = "2660E96A-9963-4076-AFCB-E451BC6EE103";
shapes = (
{
closed = 1;
nodes = (
(656,-15,o),
(709,-8,o),
(745,22,c),
(745,32,l),
(738,32,o),
(731,35,o),
(724,41,cs),
(694,66,o),
(665,146,o),
(631,232,cs),
(597,320,o),
(511,354,o),
(363,354,c),
(363,364,l),
(549,374,o),
(725,407,o),
(725,544,cs),
(725,671,o),
(609,708,o),
(465,708,cs),
(20,708,l),
(20,698,l),
(70,689,l),
(70,20,l),
(20,10,l),
(20,0,l),
(365,0,l),
(365,10,l),
(315,20,l),
(315,353,l),
(340,353,l),
(378,236,o),
(413,145,o),
(437,98,cs),
(471,31,o),
(537,-15,o),
(625,-15,cs)
);
},
{
closed = 1;
nodes = (
(331,378,o),
(323,379,o),
(315,383,c),
(315,688,l),
(333,692,o),
(348,692,o),
(370,692,cs),
(446,692,o),
(489,637,o),
(489,538,cs),
(489,435,o),
(435,378,o),
(339,378,cs)
);
},
{
closed = 1;
nodes = (
(90,688,l),
(295,688,l),
(295,20,l),
(90,20,l)
);
},
{
closed = 1;
nodes = (
(488,421,o),
(509,472,o),
(509,538,cs),
(509,608,o),
(489,660,o),
(450,688,c),
(606,688,o),
(705,656,o),
(705,544,cs),
(705,443,o),
(594,406,o),
(449,391,c)
);
},
{
closed = 1;
nodes = (
(509,333,o),
(582,304,o),
(612,225,cs),
(643,147,o),
(671,71,o),
(702,35,cs),
(706,31,o),
(709,27,o),
(713,24,c),
(684,9,o),
(649,5,o),
(625,5,cs),
(543,5,o),
(487,45,o),
(455,107,cs),
(433,150,o),
(402,230,o),
(367,334,c)
);
}
);
width = 750;
},
{
background = {
shapes = (
{
closed = 1;
nodes = (
(1371,440,o),
(1101,404,o),
(797,389,c),
(873,421,o),
(910,476,o),
(910,538,cs),
(910,598,o),
(886,656,o),
(813,688,c),
(1143,688,o),
(1371,654,o),
(1371,544,cs)
);
},
{
closed = 1;
nodes = (
(744,158,o),
(699,226,o),
(646,334,c),
(942,334,o),
(1115,294,o),
(1175,219,cs),
(1245,133,o),
(1310,55,o),
(1375,25,c),
(1308,9,o),
(1229,5,o),
(1178,5,cs),
(994,5,o),
(861,49,o),
(793,113,cs)
);
}
);
};
layerId = "DF54607F-DD82-41E6-B2E3-81CA6D0E5C47";
shapes = (
{
closed = 1;
nodes = (
(1244,-15,o),
(1357,-8,o),
(1433,22,c),
(1433,32,l),
(1422,32,o),
(1411,34,o),
(1400,37,cs),
(1334,57,o),
(1267,138,o),
(1191,232,cs),
(1126,312,o),
(944,354,o),
(662,354,c),
(662,364,l),
(1017,374,o),
(1391,407,o),
(1391,544,cs),
(1391,671,o),
(1144,708,o),
(839,708,cs),
(20,708,l),
(20,698,l),
(70,689,l),
(70,20,l),
(20,10,l),
(20,0,l),
(641,0,l),
(641,10,l),
(590,20,l),
(590,353,l),
(613,353,l),
(675,226,o),
(725,148,o),
(779,98,cs),
(851,31,o),
(991,-15,o),
(1178,-15,cs)
);
},
{
closed = 1;
nodes = (
(606,378,o),
(597,380,o),
(590,383,c),
(590,688,l),
(616,692,o),
(653,692,o),
(677,692,cs),
(843,692,o),
(890,617,o),
(890,538,cs),
(890,450,o),
(803,378,o),
(611,378,cs)
);
},
{
closed = 1;
nodes = (
(90,688,l),
(570,688,l),
(570,20,l),
(90,20,l)
);
},
{
closed = 1;
nodes = (
(873,421,o),
(910,476,o),
(910,538,cs),
(910,598,o),
(886,656,o),
(813,688,c),
(1143,688,o),
(1371,654,o),
(1371,544,cs),
(1371,440,o),
(1101,404,o),
(797,389,c)
);
},
{
closed = 1;
nodes = (
(942,334,o),
(1115,294,o),
(1175,219,cs),
(1239,140,o),
(1299,68,o),
(1359,33,cs),
(1364,30,o),
(1370,27,o),
(1375,25,c),
(1308,9,o),
(1229,5,o),
(1178,5,cs),
(994,5,o),
(861,49,o),
(793,113,cs),
(744,158,o),
(699,226,o),
(646,334,c)
);
}
);
width = 1438;
},
{
background = {
shapes = (
{
closed = 1;
nodes = (
(369,341,c),
(418,330,o),
(456,283,o),
(505,178,cs),
(570,42,o),
(603,-5,o),
(637,-5,cs),
(642,-5,o),
(649,-4,o),
(655,-2,c),
(647,-7,o),
(638,-10,o),
(630,-10,cs),
(599,-10,o),
(567,35,o),
(503,173,cs),
(460,266,o),
(418,319,o)
);
},
{
closed = 1;
nodes = (
(369,358,l),
(467,373,o),
(564,423,o),
(564,532,cs),
(564,638,o),
(488,698,o),
(355,698,c),
(355,703,l),
(493,703,o),
(569,643,o),
(569,532,cs),
(569,418,o),
(463,368,o),
(374,354,c)
);
}
);
};
layerId = "A5088515-37FF-452F-BD44-18A7A5EF88F0";
shapes = (
{
closed = 1;
nodes = (
(640,-15,o),
(651,-11,o),
(660,-4,c),
(660,6,l),
(652,2,o),
(644,0,o),
(637,0,cs),
(606,0,o),
(574,45,o),
(510,180,cs),
(462,283,o),
(423,332,o),
(378,345,c),
(378,350,l),
(467,364,o),
(574,416,o),
(574,532,cs),
(574,645,o),
(495,708,o),
(355,708,cs),
(80,708,l),
(80,698,l),
(150,683,l),
(150,25,l),
(80,10,l),
(80,0,l),
(235,0,l),
(235,10,l),
(165,25,l),
(165,343,l),
(324,343,l),
(390,343,o),
(443,291,o),
(498,171,cs),
(563,32,o),
(596,-15,o),
(630,-15,cs)
);
},
{
closed = 1;
nodes = (
(228,359,o),
(193,361,o),
(165,365,c),
(165,683,l),
(210,690,o),
(272,693,o),
(355,693,cs),
(486,693,o),
(559,635,o),
(559,532,cs),
(559,404,o),
(420,359,o),
(307,359,cs)
);
},
{
closed = 1;
nodes = (
(155,703,l),
(160,703,l),
(160,5,l),
(155,5,l)
);
},
{
closed = 1;
nodes = (
(497,392,o),
(564,442,o),
(564,532,cs),
(564,620,o),
(509,676,o),
(428,693,c),
(522,674,o),
(569,616,o),
(569,532,cs),
(569,443,o),
(505,393,o),
(423,369,c)
);
},
{
closed = 1;
nodes = (
(415,331,o),
(460,277,o),
(505,179,cs),
(569,40,o),
(602,-6,o),
(637,-6,cs),
(645,-6,o),
(649,-5,o),
(655,-2,c),
(648,-7,o),
(642,-9,o),
(630,-9,cs),
(599,-9,o),
(566,36,o),
(503,173,cs),
(462,264,o),
(417,320,o),
(368,342,c)
);
}
);
width = 665;
},
{
background = {
shapes = (
{
closed = 1;
nodes = (
(653,325,o),
(701,253,o),
(757,177,cs),
(841,64,o),
(887,-5,o),
(972,-5,cs),
(982,-5,o),
(993,-4,o),
(1004,-1,c),
(987,-8,o),
(972,-10,o),
(957,-10,cs),
(874,-10,o),
(820,82,o),
(752,174,cs),
(688,260,o),
(635,322,o),
(550,341,c)
);
},
{
closed = 1;
nodes = (
(868,428,o),
(701,366,o),
(550,359,c),
(706,376,o),
(863,431,o),
(863,532,cs),
(863,644,o),
(745,698,o),
(525,700,c),
(757,703,o),
(868,647,o),
(868,532,cs)
);
}
);
};
layerId = "35A90D60-3AD4-435C-9F8B-D1CA483F6F66";
shapes = (
{
closed = 1;
nodes = (
(973,-15,o),
(990,-13,o),
(1009,-4,c),
(1009,6,l),
(996,2,o),
(984,0,o),
(972,0,cs),
(890,0,o),
(845,67,o),
(761,180,cs),
(706,255,o),
(657,328,o),
(557,347,c),
(557,352,l),
(706,362,o),
(873,426,o),
(873,532,cs),
(873,650,o),
(758,708,o),
(525,708,cs),
(100,708,l),
(100,698,l),
(209,683,l),
(209,25,l),
(100,10,l),
(100,0,l),
(334,0,l),
(334,10,l),
(224,25,l),
(224,343,l),
(487,343,l),
(609,343,o),
(670,277,o),
(748,171,cs),
(816,79,o),
(871,-15,o),
(957,-15,cs)
);
},
{
closed = 1;
nodes = (
(324,359,o),
(268,361,o),
(224,365,c),
(224,683,l),
(295,690,o),
(394,693,o),
(525,693,cs),
(743,693,o),
(858,640,o),
(858,532,cs),
(858,414,o),
(628,359,o),
(449,359,cs)
);
},
{
closed = 1;
nodes = (
(214,703,l),
(219,703,l),
(219,5,l),
(214,5,l)
);
},
{
closed = 1;
nodes = (
(748,393,o),
(863,446,o),
(863,532,cs),
(863,623,o),
(783,675,o),
(657,693,c),
(798,675,o),
(868,621,o),
(868,532,cs),
(868,448,o),
(758,391,o),
(628,369,c)
);
},
{
closed = 1;
nodes = (
(621,332,o),
(675,290,o),
(757,177,cs),
(841,64,o),
(887,-6,o),
(972,-6,cs),
(982,-6,o),
(990,-5,o),
(1004,-1,c),
(989,-7,o),
(978,-9,o),
(961,-9,cs),
(878,-9,o),
(820,82,o),
(752,174,cs),
(668,288,o),
(615,330,o),
(541,345,c)
);
}
);
width = 1034;
}
);
metricLeft = H;
unicode = 82;
},
{
color = 4;
glyphname = S;
kernLeft = SS;
kernRight = S;
lastChange = "2022-08-05 06:04:53 +0000";
layers = (
{
layerId = "2660E96A-9963-4076-AFCB-E451BC6EE103";
shapes = (
{
closed = 1;
nodes = (
(466,-15,o),
(650,30,o),
(650,186,cs),
(650,262,o),
(596,323,o),
(432,431,cs),
(267,541,o),
(212,590,o),
(212,630,cs),
(212,683,o),
(250,711,o),
(319,708,cs),
(382,706,o),
(433,654,o),
(508,502,cs),
(553,411,l),
(573,411,l),
(623,660,l),
(566,695,o),
(461,723,o),
(342,723,cs),
(154,723,o),
(30,627,o),
(30,498,cs),
(30,429,o),
(90,364,o),
(271,235,cs),
(388,152,o),
(427,108,o),
(427,60,cs),
(427,22,o),
(402,0,o),
(358,0,cs),
(297,0,o),
(233,43,o),
(176,139,cs),
(81,300,l),
(61,300,l),
(41,41,l),
(116,7,o),
(234,-15,o),
(332,-15,cs)
);
},
{
closed = 1;
nodes = (
(192,72,o),
(229,32,o),
(268,8,c),
(194,14,o),
(118,31,o),
(62,54,c),
(79,265,l),
(159,129,ls)
);
},
{
closed = 1;
nodes = (
(481,695,o),
(554,675,o),
(601,650,c),
(559,443,l),
(526,511,ls),
(477,610,o),
(437,670,o),
(395,701,c)
);
},
{
closed = 1;
nodes = (
(630,81,o),
(536,31,o),
(434,13,c),
(442,26,o),
(447,42,o),
(447,60,cs),
(447,117,o),
(403,166,o),
(283,251,cs),
(103,379,o),
(50,437,o),
(50,498,cs),
(50,583,o),
(107,652,o),
(206,684,c),
(197,669,o),
(192,651,o),
(192,630,cs),
(192,578,o),
(254,526,o),
(421,414,cs),
(583,308,o),
(630,254,o),
(630,186,cs)
);
}
);
width = 665;
},
{
background = {
shapes = (
{
closed = 1;
nodes = (
(839,-15,o),
(1180,30,o),
(1180,186,cs),
(1180,306,o),
(929,396,o),
(707,472,cs),
(528,532,o),
(368,582,o),
(368,630,cs),
(368,690,o),
(471,710,o),
(566,708,cs),
(652,706,o),
(760,649,o),
(859,579,cs),
(918,538,o),
(975,493,o),
(1021,452,cs),
(1067,411,l),
(1077,411,l),
(1140,660,l),
(1034,695,o),
(829,723,o),
(609,723,c),
(260,723,o),
(30,627,o),
(30,498,cs),
(30,391,o),
(237,301,o),
(431,227,cs),
(604,161,o),
(766,109,o),
(766,70,cs),
(766,24,o),
(731,0,o),
(638,0,c),
(508,0,o),
(392,59,o),
(268,149,cs),
(207,193,o),
(144,244,o),
(77,300,c),
(67,300,l),
(50,41,l),
(190,7,o),
(408,-15,o),
(590,-15,c)
);
}
);
};
layerId = "DF54607F-DD82-41E6-B2E3-81CA6D0E5C47";
shapes = (
{
closed = 1;
nodes = (
(839,-15,o),
(1180,30,o),
(1180,186,cs),
(1180,306,o),
(929,396,o),
(707,472,cs),
(528,532,o),
(368,582,o),
(368,630,cs),
(368,690,o),
(471,710,o),
(566,708,cs),
(665,705,o),
(809,637,o),
(962,503,cs),
(1067,411,l),
(1077,411,l),
(1140,660,l),
(1034,695,o),
(829,723,o),
(609,723,cs),
(260,723,o),
(30,627,o),
(30,498,cs),
(30,391,o),
(237,301,o),
(431,227,cs),
(604,161,o),
(766,109,o),
(766,70,cs),
(766,24,o),
(731,0,o),
(638,0,cs),
(508,0,o),
(388,54,o),
(268,149,cs),
(77,300,l),
(67,300,l),
(50,41,l),
(190,7,o),
(408,-15,o),
(590,-15,cs)
);
},
{
closed = 1;
nodes = (
(328,76,o),
(400,33,o),
(475,8,c),
(331,14,o),
(180,32,o),
(71,57,c),
(85,268,l),
(256,133,ls)
);
},
{
closed = 1;
nodes = (
(863,697,o),
(1022,674,o),
(1116,647,c),
(1064,441,l),
(975,518,ls),
(871,608,o),
(772,670,o),
(687,702,c)
);
},
{
closed = 1;
nodes = (
(1160,79,o),
(966,29,o),
(763,12,c),
(779,26,o),
(786,40,o),
(786,64,cs),
(786,109,o),
(743,130,o),
(438,246,cs),
(253,316,o),
(50,404,o),
(50,498,cs),
(50,585,o),
(171,657,o),
(378,688,c),
(359,673,o),
(348,654,o),
(348,630,cs),
(348,562,o),
(523,513,o),
(701,453,cs),
(922,377,o),
(1160,292,o),
(1160,186,cs)
);
}
);
width = 1195;
},
{
layerId = "35A90D60-3AD4-435C-9F8B-D1CA483F6F66";
shapes = (
{
closed = 1;
nodes = (
(811,-15,o),
(968,53,o),
(968,167,cs),
(968,299,o),
(755,336,o),
(545,373,cs),
(340,408,o),
(138,442,o),
(138,562,cs),
(138,654,o),
(288,708,o),
(524,708,cs),
(778,708,o),
(934,653,o),
(918,557,cs),
(900,451,l),
(915,451,l),
(948,630,l),
(835,692,o),
(695,723,o),
(524,723,cs),
(272,723,o),
(123,663,o),
(123,561,cs),
(123,433,o),
(334,396,o),
(544,360,cs),
(749,324,o),
(953,288,o),
(953,167,cs),
(953,62,o),
(795,0,o),
(544,0,cs),
(285,0,o),
(109,62,o),
(122,159,cs),
(138,280,l),
(123,280,l),
(90,81,l),
(244,14,o),
(383,-15,o),
(544,-15,cs)
);
},
{
closed = 1;
nodes = (
(110,98,o),
(166,52,o),
(285,21,c),
(223,36,o),
(161,56,o),
(96,84,c),
(129,275,l),
(117,160,ls)
);
},
{
closed = 1;
nodes = (
(828,678,o),
(888,657,o),
(942,627,c),
(909,456,l),
(923,556,ls),
(932,620,o),
(873,666,o),
(760,693,c)
);
},
{
closed = 1;
nodes = (
(963,90,o),
(890,36,o),
(749,10,c),
(875,36,o),
(958,89,o),
(958,167,cs),
(958,292,o),
(750,329,o),
(545,365,cs),
(335,401,o),
(128,437,o),
(128,561,cs),
(128,626,o),
(190,674,o),
(316,698,c),
(203,674,o),
(133,627,o),
(133,562,cs),
(133,438,o),
(339,403,o),
(544,368,cs),
(754,331,o),
(963,295,o),
(963,167,cs)
);
}
);
width = 1058;
},
{
layerId = "A5088515-37FF-452F-BD44-18A7A5EF88F0";
name = Thin;
shapes = (
{
closed = 1;
nodes = (
(503,-15,o),
(598,53,o),
(598,167,cs),
(598,309,o),
(468,343,o),
(342,377,cs),
(222,408,o),
(105,439,o),
(105,561,cs),
(105,653,o),
(189,708,o),
(331,708,cs),
(483,708,o),
(563,652,o),
(559,539,cs),
(556,451,l),
(566,451,l),
(586,630,l),
(528,683,o),
(438,723,o),
(331,723,cs),
(180,723,o),
(90,663,o),
(90,561,cs),
(90,426,o),
(215,393,o),
(340,360,cs),
(462,327,o),
(583,295,o),
(583,167,cs),
(583,62,o),
(494,0,o),
(343,0,cs),
(191,0,o),
(89,63,o),
(94,164,cs),
(100,280,l),
(90,280,l),
(70,81,l),
(155,20,o),
(253,-15,o),
(343,-15,cs)
);
},
{
closed = 1;
nodes = (
(85,101,o),
(124,49,o),
(197,18,c),
(156,34,o),
(114,56,o),
(75,83,c),
(95,275,l),
(89,164,ls)
);
},
{
closed = 1;
nodes = (
(507,681,o),
(548,657,o),
(581,628,c),
(562,457,l),
(564,539,ls),
(566,618,o),
(529,669,o),
(458,696,c)
);
},
{
closed = 1;
nodes = (
(593,91,o),
(549,36,o),
(464,10,c),
(541,36,o),
(588,90,o),
(588,167,cs),
(588,299,o),
(463,332,o),
(341,365,cs),
(216,398,o),
(95,430,o),
(95,561,cs),
(95,626,o),
(133,674,o),
(208,698,c),
(142,674,o),
(100,627,o),
(100,561,cs),
(100,435,o),
(221,403,o),
(341,372,cs),
(467,338,o),
(593,305,o),
(593,167,cs)
);
}
);
width = 668;
}
);
unicode = 83;
},
{
color = 4;
glyphname = T;
kernLeft = T;
kernRight = TT;
lastChange = "2022-08-05 06:04:53 +0000";
layers = (
{
layerId = "2660E96A-9963-4076-AFCB-E451BC6EE103";
shapes = (
{
closed = 1;
nodes = (
(547,0,l),
(547,10,l),
(497,20,l),
(497,693,l),
(507,693,ls),
(547,693,o),
(591,643,o),
(629,554,cs),
(689,414,l),
(709,414,l),
(744,708,l),
(5,708,l),
(40,414,l),
(60,414,l),
(120,554,ls),
(158,643,o),
(201,693,o),
(242,693,cs),
(252,693,l),
(252,20,l),
(202,10,l),
(202,0,l)
);
},
{
closed = 1;
nodes = (
(30,688,l),
(178,688,l),
(152,667,o),
(125,621,o),
(100,563,cs),
(55,458,l)
);
},
{
closed = 1;
nodes = (
(272,688,l),
(477,688,l),
(477,20,l),
(272,20,l)
);
},
{
closed = 1;
nodes = (
(649,563,ls),
(625,620,o),
(597,666,o),
(571,688,c),
(719,688,l),
(694,458,l)
);
}
);
width = 749;
},
{
layerId = "DF54607F-DD82-41E6-B2E3-81CA6D0E5C47";
shapes = (
{
closed = 1;
nodes = (
(1123,0,l),
(1123,10,l),
(1017,20,l),
(1017,693,l),
(1038,693,ls),
(1088,693,o),
(1170,642,o),
(1270,553,cs),
(1425,414,l),
(1435,414,l),
(1509,708,l),
(5,708,l),
(79,414,l),
(89,414,l),
(243,553,ls),
(342,643,o),
(426,693,o),
(476,693,cs),
(497,693,l),
(497,20,l),
(391,10,l),
(391,0,l)
);
},
{
closed = 1;
nodes = (
(33,688,l),
(388,688,l),
(353,671,o),
(293,628,o),
(228,569,cs),
(93,447,l)
);
},
{
closed = 1;
nodes = (
(517,688,l),
(997,688,l),
(997,20,l),
(517,20,l)
);
},
{
closed = 1;
nodes = (
(1285,569,ls),
(1220,627,o),
(1161,670,o),
(1124,688,c),
(1481,688,l),
(1421,447,l)
);
}
);
width = 1514;
},
{
layerId = "A5088515-37FF-452F-BD44-18A7A5EF88F0";
shapes = (
{
closed = 1;
nodes = (
(428,0,l),
(428,10,l),
(358,25,l),
(358,693,l),
(526,693,ls),
(593,693,o),
(620,674,o),
(612,583,cs),
(602,464,l),
(617,464,l),
(641,708,l),
(60,708,l),
(84,464,l),
(99,464,l),
(90,589,ls),
(84,675,o),
(110,693,o),
(175,693,cs),
(343,693,l),
(343,25,l),
(273,10,l),
(273,0,l)
);
},
{
closed = 1;
nodes = (
(68,701,l),
(155,701,l),
(97,695,o),
(79,667,o),
(83,589,cs),
(90,471,l)
);
},
{
closed = 1;
nodes = (
(348,703,l),
(353,703,l),
(353,5,l),
(348,5,l)
);
},
{
closed = 1;
nodes = (
(619,582,ls),
(625,665,o),
(606,694,o),
(546,701,c),
(633,701,l),
(611,471,l)
);
}
);
width = 701;
},
{
layerId = "35A90D60-3AD4-435C-9F8B-D1CA483F6F66";
shapes = (
{
closed = 1;
nodes = (
(658,0,l),
(658,10,l),
(548,25,l),
(548,693,l),
(861,693,ls),
(928,693,o),
(956,673,o),
(947,576,cs),
(937,464,l),
(952,464,l),
(976,708,l),
(105,708,l),
(129,464,l),
(144,464,l),
(136,578,ls),
(129,674,o),
(154,693,o),
(220,693,cs),
(533,693,l),
(533,25,l),
(424,10,l),
(424,0,l)
);
},
{
closed = 1;
nodes = (
(113,701,l),
(200,701,l),
(142,695,o),
(124,664,o),
(129,578,cs),
(135,471,l)
);
},
{
closed = 1;
nodes = (
(538,703,l),
(543,703,l),
(543,5,l),
(538,5,l)
);
},
{
closed = 1;
nodes = (
(954,575,ls),
(961,663,o),
(943,695,o),
(881,701,c),
(968,701,l),
(946,471,l)
);
}
);
width = 1081;
}
);
unicode = 84;
},
{
color = 4;
glyphname = U;
kernLeft = UU;
kernRight = U;
lastChange = "2022-08-05 06:04:53 +0000";
layers = (
{
layerId = "2660E96A-9963-4076-AFCB-E451BC6EE103";
shapes = (
{
closed = 1;
nodes = (
(565,0,o),
(653,113,o),
(653,315,cs),
(653,689,l),
(723,698,l),
(723,708,l),
(418,708,l),
(418,698,l),
(534,608,o),
(633,413,o),
(633,287,cs),
(633,271,l),
(633,149,o),
(578,81,o),
(479,81,cs),
(375,81,o),
(317,171,o),
(315,332,c),
(315,689,l),
(375,698,l),
(375,708,l),
(20,708,l),
(20,698,l),
(70,689,l),
(70,303,l),
(71,108,o),
(181,0,o),
(387,0,cs)
);
},
{
closed = 1;
nodes = (
(189,20,o),
(90,116,o),
(90,303,cs),
(90,688,l),
(295,688,l),
(295,332,ls),
(295,162,o),
(361,61,o),
(479,61,cs),
(508,61,o),
(534,66,o),
(557,77,c),
(517,39,o),
(460,20,o),
(387,20,cs)
);
},
{
closed = 1;
nodes = (
(633,688,l),
(633,404,l),
(632,404,l),
(630,409,l),
(584,535,o),
(522,629,o),
(456,688,c)
);
}
);
width = 733;
},
{
layerId = "DF54607F-DD82-41E6-B2E3-81CA6D0E5C47";
shapes = (
{
closed = 1;
nodes = (
(1037,0,o),
(1198,113,o),
(1198,293,cs),
(1198,689,l),
(1247,698,l),
(1247,708,l),
(725,708,l),
(725,698,l),
(886,639,o),
(1181,477,o),
(1181,306,cs),
(1181,293,l),
(1181,160,o),
(1060,81,o),
(854,81,cs),
(689,81,o),
(590,174,o),
(586,332,c),
(586,689,l),
(623,698,l),
(623,708,l),
(20,708,l),
(20,698,l),
(66,689,l),
(66,293,l),
(68,108,o),
(302,0,o),
(739,0,cs)
);
},
{
closed = 1;
nodes = (
(307,22,o),
(88,122,o),
(88,293,cs),
(88,686,l),
(564,686,l),
(564,332,ls),
(564,161,o),
(677,59,o),
(854,59,cs),
(946,59,o),
(1023,75,o),
(1081,104,c),
(1009,51,o),
(895,22,o),
(739,22,cs)
);
},
{
closed = 1;
nodes = (
(1176,688,l),
(1176,404,l),
(1175,404,l),
(1172,410,l),
(1115,504,o),
(949,627,o),
(796,688,c)
);
}
);
width = 1257;
},
{
layerId = "A5088515-37FF-452F-BD44-18A7A5EF88F0";
shapes = (
{
closed = 1;
nodes = (
(555,-15,o),
(635,90,o),
(635,304,cs),
(635,683,l),
(705,698,l),
(705,708,l),
(510,708,l),
(510,698,l),
(592,698,o),
(619,664,o),
(619,562,cs),
(619,304,ls),
(619,100,o),
(544,0,o),
(391,0,cs),
(219,0,o),
(135,100,o),
(135,304,cs),
(135,683,l),
(205,698,l),
(205,708,l),
(50,708,l),
(50,698,l),
(120,683,l),
(120,304,ls),
(120,90,o),
(209,-15,o),
(391,-15,cs)
);
},
{
closed = 1;
nodes = (
(213,-10,o),
(125,94,o),
(125,304,cs),
(125,703,l),
(130,703,l),
(130,304,ls),
(130,97,o),
(217,-5,o),
(391,-5,cs),
(448,-5,o),
(495,7,o),
(533,32,c),
(496,5,o),
(449,-10,o),
(391,-10,cs)
);
},
{
closed = 1;
nodes = (
(630,701,l),
(630,579,l),
(628,579,l),
(625,602,ls),
(616,671,o),
(592,699,o),
(536,701,c)
);
}
);
width = 740;
},
{
layerId = "35A90D60-3AD4-435C-9F8B-D1CA483F6F66";
shapes = (
{
closed = 1;
nodes = (
(842,-15,o),
(965,90,o),
(965,304,cs),
(965,683,l),
(1074,698,l),
(1074,708,l),
(783,708,l),
(783,698,l),
(908,698,o),
(950,664,o),
(950,562,cs),
(950,304,ls),
(950,100,o),
(832,0,o),
(590,0,cs),
(321,0,o),
(189,100,o),
(189,304,cs),
(189,683,l),
(299,698,l),
(299,708,l),
(65,708,l),
(65,698,l),
(174,683,l),
(174,304,ls),
(174,90,o),
(311,-15,o),
(590,-15,cs)
);
},
{
closed = 1;
nodes = (
(315,-10,o),
(179,94,o),
(179,304,cs),
(179,703,l),
(184,703,l),
(184,304,ls),
(184,97,o),
(319,-5,o),
(590,-5,cs),
(674,-5,o),
(747,7,o),
(805,32,c),
(748,5,o),
(676,-10,o),
(590,-10,cs)
);
},
{
closed = 1;
nodes = (
(960,701,l),
(960,579,l),
(958,579,l),
(955,602,ls),
(947,663,o),
(910,696,o),
(837,701,c)
);
}
);
width = 1124;
}
);
unicode = 85;
},
{
color = 4;
glyphname = V;
kernLeft = VV;
kernRight = V;
lastChange = "2022-08-05 06:04:53 +0000";
layers = (
{
layerId = "2660E96A-9963-4076-AFCB-E451BC6EE103";
shapes = (
{
closed = 1;
nodes = (
(481,0,l),
(757,688,l),
(808,698,l),
(808,708,l),
(444,708,l),
(444,698,l),
(548,663,o),
(593,541,o),
(593,431,cs),
(593,359,o),
(574,270,o),
(539,182,c),
(537,177,l),
(524,177,l),
(318,689,l),
(390,698,l),
(390,708,l),
(5,708,l),
(5,698,l),
(53,688,l),
(329,0,l)
);
},
{
closed = 1;
nodes = (
(467,20,l),
(343,20,l),
(75,688,l),
(297,688,l),
(510,157,l),
(522,157,l)
);
},
{
closed = 1;
nodes = (
(612,399,o),
(613,419,o),
(612,437,cs),
(610,530,o),
(579,631,o),
(506,688,c),
(735,688,l),
(610,376,l)
);
}
);
width = 813;
},
{
layerId = "DF54607F-DD82-41E6-B2E3-81CA6D0E5C47";
shapes = (
{
closed = 1;
nodes = (
(737,0,l),
(1194,688,l),
(1246,698,l),
(1246,708,l),
(677,708,l),
(677,698,l),
(810,653,o),
(872,533,o),
(872,388,cs),
(872,324,o),
(859,247,o),
(835,173,c),
(833,167,l),
(812,167,l),
(478,689,l),
(548,703,l),
(548,708,l),
(5,708,l),
(5,698,l),
(53,688,l),
(493,0,l)
);
},
{
closed = 1;
nodes = (
(725,22,l),
(505,22,l),
(81,686,l),
(454,686,l),
(800,145,l),
(807,145,l)
);
},
{
closed = 1;
nodes = (
(890,306,o),
(895,358,o),
(895,408,cs),
(895,507,o),
(851,621,o),
(751,686,c),
(1166,686,l),
(879,253,l)
);
}
);
width = 1251;
},
{
layerId = "A5088515-37FF-452F-BD44-18A7A5EF88F0";
shapes = (
{
closed = 1;
nodes = (
(354,0,l),
(609,683,l),
(679,698,l),
(679,708,l),
(482,708,l),
(482,698,l),
(553,698,o),
(577,688,o),
(577,656,cs),
(577,644,o),
(573,626,o),
(565,605,c),
(349,28,l),
(340,28,l),
(95,684,l),
(166,698,l),
(166,708,l),
(10,708,l),
(10,698,l),
(80,683,l),
(336,0,l)
);
},
{
closed = 1;
nodes = (
(351,7,l),
(339,7,l),
(78,703,l),
(83,703,l),
(337,21,l),
(356,21,l)
);
},
{
closed = 1;
nodes = (
(579,626,o),
(584,646,o),
(584,656,cs),
(584,682,o),
(570,695,o),
(538,701,c),
(609,701,l),
(569,597,l)
);
}
);
width = 689;
},
{
layerId = "35A90D60-3AD4-435C-9F8B-D1CA483F6F66";
shapes = (
{
closed = 1;
nodes = (
(539,0,l),
(927,683,l),
(1034,698,l),
(1034,708,l),
(742,708,l),
(742,698,l),
(851,698,o),
(887,687,o),
(887,655,cs),
(887,643,o),
(881,625,o),
(869,605,c),
(540,28,l),
(525,28,l),
(152,684,l),
(260,698,l),
(260,708,l),
(30,708,l),
(30,698,l),
(137,683,l),
(527,0,l)
);
},
{
closed = 1;
nodes = (
(537,7,l),
(528,7,l),
(131,703,l),
(136,703,l),
(524,21,l),
(545,21,l)
);
},
{
closed = 1;
nodes = (
(886,623,o),
(893,643,o),
(893,656,cs),
(893,682,o),
(872,695,o),
(825,701,c),
(931,701,l),
(871,597,l)
);
}
);
width = 1064;
}
);
unicode = 86;
},
{
color = 4;
glyphname = W;
kernLeft = VV;
kernRight = V;
lastChange = "2022-08-05 06:04:53 +0000";
layers = (
{
layerId = "2660E96A-9963-4076-AFCB-E451BC6EE103";
shapes = (
{
closed = 1;
nodes = (
(481,0,l),
(756,684,l),
(807,698,l),
(807,708,l),
(444,708,l),
(444,698,l),
(553,662,o),
(585,533,o),
(585,420,cs),
(585,344,o),
(569,262,o),
(541,187,c),
(537,177,l),
(524,177,l),
(320,684,l),
(390,698,l),
(390,708,l),
(5,708,l),
(5,698,l),
(55,683,l),
(329,0,l)
);
},
{
closed = 1;
nodes = (
(75,688,l),
(297,688,l),
(510,157,l),
(522,157,l),
(467,20,l),
(343,20,l)
);
},
{
closed = 1;
nodes = (
(612,399,o),
(613,419,o),
(612,437,cs),
(610,530,o),
(579,631,o),
(506,688,c),
(735,688,l),
(610,376,l)
);
},
{
closed = 1;
nodes = (
(615,352,l),
(726,631,l),
(916,157,l),
(928,157,l),
(873,20,l),
(749,20,l)
);
},
{
closed = 1;
nodes = (
(887,0,l),
(1160,683,l),
(1213,698,l),
(1213,708,l),
(850,708,l),
(850,698,l),
(959,659,o),
(1001,536,o),
(999,421,cs),
(997,355,o),
(981,277,o),
(947,188,c),
(943,177,l),
(930,177,l),
(733,666,l),
(602,333,l),
(735,0,l)
);
},
{
closed = 1;
nodes = (
(1018,399,o),
(1019,419,o),
(1018,437,cs),
(1016,530,o),
(985,631,o),
(912,688,c),
(1141,688,l),
(1016,376,l)
);
}
);
width = 1218;
},
{
layerId = "DF54607F-DD82-41E6-B2E3-81CA6D0E5C47";
shapes = (
{
closed = 1;
nodes = (
(737,0,l),
(1194,688,l),
(1246,698,l),
(1246,708,l),
(677,708,l),
(677,698,l),
(814,651,o),
(872,528,o),
(872,391,cs),
(872,325,o),
(860,252,o),
(837,179,c),
(833,167,l),
(812,167,l),
(478,689,l),
(548,703,l),
(548,708,l),
(5,708,l),
(5,698,l),
(53,688,l),
(493,0,l)
);
},
{
closed = 1;
nodes = (
(81,686,l),
(454,686,l),
(800,145,l),
(807,145,l),
(725,22,l),
(505,22,l)
);
},
{
closed = 1;
nodes = (
(890,306,o),
(895,358,o),
(895,408,cs),
(895,507,o),
(851,621,o),
(751,686,c),
(1166,686,l),
(879,253,l)
);
},
{
closed = 1;
nodes = (
(937,313,l),
(1127,600,l),
(1418,145,l),
(1425,145,l),
(1343,22,l),
(1123,22,l)
);
},
{
closed = 1;
nodes = (
(1355,0,l),
(1812,688,l),
(1864,698,l),
(1864,708,l),
(1295,708,l),
(1295,698,l),
(1426,653,o),
(1490,532,o),
(1490,393,cs),
(1490,326,o),
(1479,254,o),
(1456,181,c),
(1451,167,l),
(1430,167,l),
(1135,628,l),
(919,300,l),
(1111,0,l)
);
},
{
closed = 1;
nodes = (
(1508,306,o),
(1513,358,o),
(1513,408,cs),
(1513,507,o),
(1469,621,o),
(1369,686,c),
(1784,686,l),
(1497,253,l)
);
}
);
width = 1869;
},
{
layerId = "A5088515-37FF-452F-BD44-18A7A5EF88F0";
shapes = (
{
closed = 1;
nodes = (
(354,0,l),
(609,683,l),
(679,698,l),
(679,708,l),
(482,708,l),
(482,698,l),
(553,698,o),
(577,688,o),
(577,656,cs),
(577,643,o),
(573,627,o),
(565,605,c),
(349,28,l),
(340,28,l),
(95,684,l),
(166,698,l),
(166,708,l),
(10,708,l),
(10,698,l),
(80,683,l),
(336,0,l)
);
},
{
closed = 1;
nodes = (
(78,703,l),
(83,703,l),
(337,21,l),
(356,21,l),
(351,7,l),
(339,7,l)
);
},
{
closed = 1;
nodes = (
(579,626,o),
(584,646,o),
(584,656,cs),
(584,682,o),
(570,695,o),
(538,701,c),
(609,701,l),
(569,597,l)
);
},
{
closed = 1;
nodes = (
(555,556,l),
(558,560,l),
(759,21,l),
(778,21,l),
(773,7,l),
(761,7,l)
);
},
{
closed = 1;
nodes = (
(776,0,l),
(1031,683,l),
(1101,698,l),
(1101,708,l),
(904,708,l),
(904,698,l),
(975,698,o),
(999,688,o),
(999,656,cs),
(999,643,o),
(995,626,o),
(987,605,c),
(771,28,l),
(762,28,l),
(558,573,l),
(550,554,l),
(758,0,l)
);
},
{
closed = 1;
nodes = (
(1001,626,o),
(1006,646,o),
(1006,656,cs),
(1006,682,o),
(992,695,o),
(960,701,c),
(1031,701,l),
(991,597,l)
);
}
);
width = 1111;
},
{
layerId = "35A90D60-3AD4-435C-9F8B-D1CA483F6F66";
shapes = (
{
closed = 1;
nodes = (
(539,0,l),
(927,683,l),
(1034,698,l),
(1034,708,l),
(742,708,l),
(742,698,l),
(851,698,o),
(887,687,o),
(887,655,cs),
(887,643,o),
(881,625,o),
(869,605,c),
(540,28,l),
(525,28,l),
(152,684,l),
(260,698,l),
(260,708,l),
(30,708,l),
(30,698,l),
(137,683,l),
(527,0,l)
);
},
{
closed = 1;
nodes = (
(131,703,l),
(136,703,l),
(524,21,l),
(545,21,l),
(537,7,l),
(528,7,l)
);
},
{
closed = 1;
nodes = (
(886,623,o),
(893,643,o),
(893,656,cs),
(893,682,o),
(872,695,o),
(825,701,c),
(931,701,l),
(871,597,l)
);
},
{
closed = 1;
nodes = (
(811,488,l),
(813,492,l),
(1081,21,l),
(1102,21,l),
(1094,7,l),
(1085,7,l)
);
},
{
closed = 1;
nodes = (
(1096,0,l),
(1484,683,l),
(1591,698,l),
(1591,708,l),
(1299,708,l),
(1299,698,l),
(1408,698,o),
(1444,688,o),
(1444,656,cs),
(1444,644,o),
(1438,626,o),
(1426,605,c),
(1097,28,l),
(1082,28,l),
(813,501,l),
(807,486,l),
(1084,0,l)
);
},
{
closed = 1;
nodes = (
(1443,623,o),
(1450,643,o),
(1450,656,cs),
(1450,682,o),
(1429,695,o),
(1382,701,c),
(1488,701,l),
(1428,597,l)
);
}
);
width = 1621;
}
);
metricLeft = V;
metricRight = V;
unicode = 87;
},
{
color = 4;
glyphname = X;
kernLeft = X;
kernRight = XX;
lastChange = "2022-08-05 06:04:53 +0000";
layers = (
{
background = {
shapes = (
{
closed = 1;
nodes = (
(245,209,l),
(241,193,o),
(239,177,o),
(239,161,cs),
(240,96,o),
(270,49,o),
(312,20,c),
(98,20,l)
);
},
{
closed = 1;
nodes = (
(762,688,l),
(599,507,l),
(603,521,o),
(605,536,o),
(606,550,cs),
(607,598,o),
(583,653,o),
(541,688,c)
);
}
);
};
layerId = "2660E96A-9963-4076-AFCB-E451BC6EE103";
shapes = (
{
closed = 1;
nodes = (
(838,0,l),
(838,10,l),
(771,20,l),
(357,689,l),
(430,698,l),
(430,708,l),
(5,708,l),
(5,698,l),
(72,688,l),
(486,20,l),
(413,10,l),
(413,0,l)
);
},
{
closed = 1;
nodes = (
(527,397,l),
(789,689,l),
(838,698,l),
(838,708,l),
(477,708,l),
(477,698,l),
(545,682,o),
(587,609,o),
(586,550,cs),
(585,517,o),
(574,479,o),
(541,446,cs),
(535,440,l),
(501,440,l)
);
},
{
closed = 1;
nodes = (
(309,326,l),
(71,20,l),
(5,10,l),
(5,0,l),
(383,0,l),
(383,10,l),
(316,27,o),
(260,77,o),
(259,161,cs),
(259,199,o),
(270,239,o),
(299,278,cs),
(302,282,l),
(335,282,l)
);
},
{
closed = 1;
nodes = (
(95,688,l),
(335,688,l),
(748,20,l),
(509,20,l)
);
},
{
closed = 1;
nodes = (
(762,688,l),
(599,507,l),
(603,521,o),
(605,536,o),
(606,550,cs),
(607,598,o),
(583,653,o),
(541,688,c)
);
},
{
closed = 1;
nodes = (
(245,209,l),
(241,193,o),
(239,177,o),
(239,161,cs),
(240,96,o),
(270,49,o),
(312,20,c),
(98,20,l)
);
}
);
width = 843;
},
{
background = {
shapes = (
{
closed = 1;
nodes = (
(445,263,l),
(430,238,o),
(423,212,o),
(423,188,cs),
(423,114,o),
(482,56,o),
(547,20,c),
(130,20,l)
);
},
{
closed = 1;
nodes = (
(1260,688,l),
(916,460,l),
(932,484,o),
(939,510,o),
(939,534,cs),
(939,597,o),
(895,654,o),
(844,688,c)
);
}
);
};
layerId = "DF54607F-DD82-41E6-B2E3-81CA6D0E5C47";
shapes = (
{
closed = 1;
nodes = (
(1364,0,l),
(1364,10,l),
(1297,20,l),
(603,689,l),
(676,698,l),
(676,708,l),
(5,708,l),
(5,698,l),
(72,688,l),
(766,20,l),
(692,10,l),
(692,0,l)
);
},
{
closed = 1;
nodes = (
(878,410,l),
(1298,689,l),
(1347,698,l),
(1347,708,l),
(775,708,l),
(775,698,l),
(841,681,o),
(919,611,o),
(919,534,cs),
(919,505,o),
(907,474,o),
(879,446,cs),
(873,440,l),
(849,440,l)
);
},
{
closed = 1;
nodes = (
(478,313,l),
(96,20,l),
(30,10,l),
(30,0,l),
(618,0,l),
(618,10,l),
(537,37,o),
(443,102,o),
(443,188,cs),
(443,217,o),
(455,246,o),
(479,278,cs),
(482,282,l),
(505,282,l)
);
},
{
closed = 1;
nodes = (
(101,688,l),
(576,688,l),
(1268,20,l),
(795,20,l)
);
},
{
closed = 1;
nodes = (
(1260,688,l),
(916,460,l),
(932,484,o),
(939,510,o),
(939,534,cs),
(939,597,o),
(895,654,o),
(844,688,c)
);
},
{
closed = 1;
nodes = (
(445,263,l),
(430,238,o),
(423,212,o),
(423,188,cs),
(423,114,o),
(482,56,o),
(547,20,c),
(130,20,l)
);
}
);
width = 1369;
},
{
background = {
shapes = (
{
closed = 1;
nodes = (
(252,233,l),
(160,108,ls),
(141,82,o),
(128,59,o),
(128,44,cs),
(128,16,o),
(306,5,o),
(233,5,cs),
(25,5,l),
(25,6,l),
(93,19,l),
(250,234,l)
);
},
{
closed = 1;
nodes = (
(477,540,l),
(478,542,ls),
(486,557,o),
(499,569,o),
(508,581,cs),
(537,619,o),
(559,647,o),
(559,667,cs),
(559,693,o),
(379,703,o),
(454,703,cs),
(656,703,l),
(656,702,l),
(588,689,l),
(478,539,l)
);
}
);
};
layerId = "A5088515-37FF-452F-BD44-18A7A5EF88F0";
shapes = (
{
closed = 1;
nodes = (
(660,0,l),
(660,10,l),
(590,25,l),
(109,684,l),
(179,698,l),
(179,708,l),
(25,708,l),
(25,698,l),
(95,683,l),
(574,25,l),
(504,10,l),
(504,0,l)
);
},
{
closed = 1;
nodes = (
(348,353,l),
(591,684,l),
(661,698,l),
(661,708,l),
(449,708,l),
(449,698,l),
(526,698,o),
(554,689,o),
(554,667,cs),
(554,643,o),
(517,603,o),
(474,545,cs),
(351,378,l),
(329,378,l)
);
},
{
closed = 1;
nodes = (
(335,358,l),
(90,24,l),
(20,10,l),
(20,0,l),
(238,0,l),
(238,10,l),
(163,10,o),
(133,20,o),
(133,44,cs),
(133,58,o),
(145,79,o),
(164,105,cs),
(325,324,l),
(359,324,l)
);
},
{
closed = 1;
nodes = (
(86,703,l),
(90,703,l),
(598,5,l),
(594,5,l)
);
},
{
closed = 1;
nodes = (
(599,703,l),
(523,599,l),
(549,638,o),
(559,655,o),
(559,667,cs),
(559,694,o),
(537,703,o),
(469,703,c)
);
},
{
closed = 1;
nodes = (
(162,112,l),
(136,73,o),
(126,56,o),
(126,44,cs),
(126,17,o),
(148,8,o),
(216,8,c),
(86,8,l)
);
}
);
width = 681;
},
{
background = {
shapes = (
{
closed = 1;
nodes = (
(917,455,o),
(924,475,o),
(924,488,cs),
(924,514,o),
(903,527,o),
(856,533,c),
(962,533,l),
(902,429,l)
);
},
{
closed = 1;
nodes = (
(417,250,l),
(257,109,ls),
(226,82,o),
(207,60,o),
(207,44,cs),
(207,15,o),
(485,5,o),
(370,5,cs),
(45,5,l),
(45,6,l),
(150,19,l),
(415,252,l)
);
},
{
closed = 1;
nodes = (
(787,582,l),
(787,582,o),
(788,583,o),
(788,583,cs),
(832,619,o),
(865,647,o),
(865,667,cs),
(865,694,o),
(586,703,o),
(703,703,cs),
(1018,703,l),
(1018,702,l),
(913,689,l),
(789,580,l)
);
}
);
};
layerId = "35A90D60-3AD4-435C-9F8B-D1CA483F6F66";
shapes = (
{
closed = 1;
nodes = (
(978,0,l),
(978,10,l),
(870,25,l),
(171,684,l),
(279,698,l),
(279,708,l),
(44,708,l),
(44,698,l),
(152,683,l),
(848,25,l),
(739,10,l),
(739,0,l)
);
},
{
closed = 1;
nodes = (
(528,344,l),
(915,684,l),
(1023,698,l),
(1023,708,l),
(698,708,l),
(698,698,l),
(817,698,o),
(860,689,o),
(860,667,cs),
(860,643,o),
(802,603,o),
(736,545,cs),
(534,367,l),
(504,367,l)
);
},
{
closed = 1;
nodes = (
(513,345,l),
(148,24,l),
(40,10,l),
(40,0,l),
(375,0,l),
(375,10,l),
(258,10,o),
(212,20,o),
(212,44,cs),
(212,58,o),
(230,79,o),
(260,105,cs),
(509,324,l),
(535,324,l)
);
},
{
closed = 1;
nodes = (
(137,703,l),
(143,703,l),
(883,5,l),
(877,5,l)
);
},
{
closed = 1;
nodes = (
(928,703,l),
(812,599,l),
(852,636,o),
(865,653,o),
(865,667,cs),
(865,684,o),
(843,697,o),
(796,703,c)
);
},
{
closed = 1;
nodes = (
(257,112,l),
(217,75,o),
(204,58,o),
(204,44,cs),
(204,27,o),
(226,14,o),
(273,8,c),
(141,8,l)
);
}
);
width = 1063;
}
);
unicode = 88;
},
{
color = 4;
glyphname = Y;
kernLeft = VV;
kernRight = V;
lastChange = "2022-08-05 06:04:53 +0000";
layers = (
{
background = {
shapes = (
{
closed = 1;
nodes = (
(566,0,l),
(566,10,l),
(516,25,l),
(515,346,l),
(508,305,l),
(709,688,l),
(757,698,l),
(757,708,l),
(473,708,l),
(473,698,l),
(528,656,o),
(579,604,o),
(579,529,cs),
(579,489,o),
(560,429,o),
(523,364,cs),
(519,357,l),
(499,357,l),
(326,689,l),
(408,698,l),
(408,708,l),
(5,708,l),
(5,698,l),
(53,688,l),
(290,236,l),
(271,313,l),
(271,25,l),
(221,10,l),
(221,0,l)
);
}
);
};
layerId = "2660E96A-9963-4076-AFCB-E451BC6EE103";
shapes = (
{
closed = 1;
nodes = (
(566,0,l),
(566,10,l),
(516,25,l),
(515,319,l),
(709,688,l),
(757,698,l),
(757,708,l),
(473,708,l),
(473,698,l),
(528,656,o),
(579,604,o),
(579,529,cs),
(579,489,o),
(560,429,o),
(523,364,cs),
(519,357,l),
(499,357,l),
(326,689,l),
(408,698,l),
(408,708,l),
(5,708,l),
(5,698,l),
(53,688,l),
(271,272,l),
(271,25,l),
(221,10,l),
(221,0,l)
);
},
{
closed = 1;
nodes = (
(304,688,l),
(487,337,l),
(495,337,l),
(495,277,l),
(496,20,l),
(291,20,l),
(291,277,l),
(75,688,l)
);
},
{
closed = 1;
nodes = (
(687,688,l),
(599,521,l),
(597,521,l),
(598,529,ls),
(599,536,o),
(599,543,o),
(599,550,cs),
(599,591,o),
(569,640,o),
(517,688,c)
);
}
);
width = 762;
},
{
layerId = "DF54607F-DD82-41E6-B2E3-81CA6D0E5C47";
shapes = (
{
closed = 1;
nodes = (
(1057,0,l),
(1057,10,l),
(1007,25,l),
(1007,320,l),
(1392,688,l),
(1440,698,l),
(1440,708,l),
(923,708,l),
(923,698,l),
(988,643,o),
(1055,589,o),
(1055,500,cs),
(1055,463,o),
(1043,408,o),
(1010,355,cs),
(1005,347,l),
(993,347,l),
(635,689,l),
(719,698,l),
(719,708,l),
(5,708,l),
(5,698,l),
(53,688,l),
(487,273,l),
(487,25,l),
(437,10,l),
(437,0,l)
);
},
{
closed = 1;
nodes = (
(607,688,l),
(985,327,l),
(987,327,l),
(987,281,l),
(987,20,l),
(507,20,l),
(507,281,l),
(82,688,l)
);
},
{
closed = 1;
nodes = (
(1363,688,l),
(1050,389,l),
(1049,390,l),
(1055,403,ls),
(1068,430,o),
(1075,465,o),
(1075,500,cs),
(1075,584,o),
(1021,640,o),
(965,688,c)
);
}
);
width = 1445;
},
{
layerId = "A5088515-37FF-452F-BD44-18A7A5EF88F0";
shapes = (
{
closed = 1;
nodes = (
(392,0,l),
(392,10,l),
(322,25,l),
(322,303,l),
(549,683,l),
(616,698,l),
(616,708,l),
(425,708,l),
(425,698,l),
(492,698,o),
(514,689,o),
(514,662,cs),
(514,655,o),
(511,646,o),
(506,637,cs),
(323,331,l),
(306,331,l),
(95,684,l),
(165,698,l),
(165,708,l),
(10,708,l),
(10,698,l),
(80,683,l),
(307,303,l),
(307,25,l),
(237,10,l),
(237,0,l)
);
},
{
closed = 1;
nodes = (
(78,703,l),
(303,326,l),
(330,326,l),
(317,305,l),
(317,5,l),
(312,5,l),
(312,304,l),
(74,703,l)
);
},
{
closed = 1;
nodes = (
(555,703,l),
(514,635,l),
(512,636,l),
(517,647,ls),
(518,650,o),
(519,655,o),
(519,662,cs),
(519,692,o),
(494,703,o),
(430,703,c)
);
}
);
width = 626;
},
{
background = {
shapes = (
{
closed = 1;
nodes = (
(831,625,o),
(838,645,o),
(838,658,cs),
(838,684,o),
(817,697,o),
(770,703,c),
(876,703,l),
(816,599,l)
);
}
);
};
layerId = "35A90D60-3AD4-435C-9F8B-D1CA483F6F66";
name = "Thin Extended";
shapes = (
{
closed = 1;
nodes = (
(624,0,l),
(624,10,l),
(513,25,l),
(513,305,l),
(869,683,l),
(975,698,l),
(975,708,l),
(680,708,l),
(680,698,l),
(786,698,o),
(821,689,o),
(821,663,cs),
(821,656,o),
(816,646,o),
(808,637,cs),
(519,331,l),
(490,331,l),
(157,684,l),
(267,698,l),
(267,708,l),
(30,708,l),
(30,698,l),
(140,683,l),
(498,303,l),
(498,25,l),
(387,10,l),
(387,0,l)
);
},
{
closed = 1;
nodes = (
(133,703,l),
(488,326,l),
(525,326,l),
(508,307,l),
(508,5,l),
(503,5,l),
(503,305,l),
(128,703,l)
);
},
{
closed = 1;
nodes = (
(880,703,l),
(817,635,l),
(816,635,l),
(821,643,ls),
(824,647,o),
(826,655,o),
(826,663,cs),
(826,691,o),
(791,701,o),
(685,703,c)
);
}
);
width = 1005;
}
);
metricLeft = V;
metricRight = V;
unicode = 89;
},
{
color = 4;
glyphname = Z;
kernLeft = ZZ;
kernRight = Z;
lastChange = "2022-08-05 06:04:53 +0000";
layers = (
{
layerId = "2660E96A-9963-4076-AFCB-E451BC6EE103";
shapes = (
{
closed = 1;
nodes = (
(664,0,l),
(629,304,l),
(609,304,l),
(561,193,ls),
(509,75,o),
(452,16,o),
(389,16,cs),
(283,16,l),
(682,708,l),
(48,708,l),
(83,403,l),
(103,403,l),
(165,537,ls),
(213,640,o),
(266,691,o),
(323,691,cs),
(419,692,l),
(20,0,l)
);
},
{
closed = 1;
nodes = (
(70,688,l),
(252,688,l),
(213,661,o),
(178,614,o),
(147,545,cs),
(99,442,l)
);
},
{
closed = 1;
nodes = (
(440,688,l),
(647,688,l),
(261,20,l),
(55,20,l)
);
},
{
closed = 1;
nodes = (
(505,49,o),
(543,103,o),
(579,185,cs),
(613,264,l),
(642,20,l),
(462,20,l)
);
}
);
width = 702;
},
{
layerId = "DF54607F-DD82-41E6-B2E3-81CA6D0E5C47";
shapes = (
{
closed = 1;
nodes = (
(1318,0,l),
(1226,304,l),
(1216,304,l),
(1102,188,ls),
(975,59,o),
(864,16,o),
(658,16,cs),
(609,16,l),
(1300,708,l),
(50,707,l),
(112,403,l),
(122,403,l),
(267,519,ls),
(411,634,o),
(538,691,o),
(650,691,cs),
(691,692,l),
(20,0,l)
);
},
{
closed = 1;
nodes = (
(74,687,l),
(513,687,l),
(434,659,o),
(348,609,o),
(255,535,cs),
(126,432,l)
);
},
{
closed = 1;
nodes = (
(713,687,l),
(1252,688,l),
(585,20,l),
(67,20,l)
);
},
{
closed = 1;
nodes = (
(959,44,o),
(1039,96,o),
(1116,174,cs),
(1214,274,l),
(1291,20,l),
(872,20,l)
);
}
);
width = 1338;
},
{
layerId = "A5088515-37FF-452F-BD44-18A7A5EF88F0";
shapes = (
{
closed = 1;
nodes = (
(602,0,l),
(572,260,l),
(562,260,l),
(568,168,ls),
(576,39,o),
(558,15,o),
(520,15,cs),
(81,15,l),
(616,708,l),
(80,708,l),
(106,464,l),
(116,464,l),
(114,570,ls),
(112,671,o),
(125,693,o),
(161,693,cs),
(584,693,l),
(50,0,l)
);
},
{
closed = 1;
nodes = (
(86,703,l),
(161,703,l),
(120,698,o),
(107,667,o),
(109,580,cs),
(111,469,l)
);
},
{
closed = 1;
nodes = (
(599,703,l),
(605,703,l),
(67,5,l),
(61,5,l)
);
},
{
closed = 1;
nodes = (
(567,11,o),
(580,49,o),
(574,158,cs),
(568,255,l),
(596,5,l),
(520,5,l)
);
}
);
width = 666;
},
{
layerId = "35A90D60-3AD4-435C-9F8B-D1CA483F6F66";
shapes = (
{
closed = 1;
nodes = (
(962,0,l),
(932,260,l),
(922,260,l),
(928,159,ls),
(935,37,o),
(918,15,o),
(880,15,cs),
(119,15,l),
(985,708,l),
(118,708,l),
(144,464,l),
(154,464,l),
(151,564,ls),
(148,667,o),
(160,693,o),
(189,693,cs),
(944,693,l),
(80,0,l)
);
},
{
closed = 1;
nodes = (
(124,703,l),
(189,703,l),
(154,698,o),
(143,665,o),
(146,574,cs),
(149,469,l)
);
},
{
closed = 1;
nodes = (
(964,703,l),
(970,703,l),
(99,5,l),
(93,5,l)
);
},
{
closed = 1;
nodes = (
(926,10,o),
(939,46,o),
(934,149,cs),
(928,255,l),
(956,5,l),
(880,5,l)
);
}
);
width = 1065;
}
);
unicode = 90;
},
{
color = 4;
glyphname = a;
kernLeft = a;
kernRight = a;
lastChange = "2023-07-10 05:31:16 +0000";
layers = (
{
layerId = "2660E96A-9963-4076-AFCB-E451BC6EE103";
shapes = (
{
closed = 1;
nodes = (
(174,515,o),
(33,439,o),
(33,364,cs),
(33,306,o),
(89,275,o),
(166,275,cs),
(245,275,o),
(302,306,o),
(302,364,cs),
(302,397,o),
(278,421,o),
(229,437,cs),
(180,453,o),
(164,461,o),
(164,469,cs),
(164,477,o),
(197,494,o),
(246,494,cs),
(342,494,o),
(356,453,o),
(356,279,c),
(139,279,o),
(10,213,o),
(10,101,cs),
(10,33,o),
(66,-15,o),
(144,-15,cs),
(226,-15,o),
(302,50,o),
(349,160,c),
(356,154,l),
(356,146,o),
(356,143,o),
(356,140,cs),
(356,28,o),
(420,-15,o),
(516,-15,cs),
(562,-15,o),
(615,-1,o),
(643,20,c),
(643,30,l),
(624,19,o),
(611,14,o),
(603,14,cs),
(594,14,o),
(591,22,o),
(591,32,cs),
(591,325,ls),
(591,453,o),
(512,515,o),
(331,515,cs)
);
},
{
closed = 1;
nodes = (
(356,198,l),
(320,100,o),
(281,65,o),
(254,65,cs),
(234,65,o),
(224,83,o),
(224,119,cs),
(224,179,o),
(260,259,o),
(356,269,c)
);
},
{
closed = 1;
nodes = (
(96,297,o),
(55,323,o),
(55,364,cs),
(55,396,o),
(92,436,o),
(146,460,c),
(146,454,o),
(153,445,o),
(162,440,cs),
(171,436,o),
(189,428,o),
(208,422,cs),
(243,411,o),
(280,398,o),
(280,364,cs),
(280,323,o),
(238,297,o),
(166,297,cs)
);
},
{
closed = 1;
nodes = (
(78,7,o),
(32,46,o),
(32,101,cs),
(32,185,o),
(128,247,o),
(270,258,c),
(235,231,o),
(202,180,o),
(202,119,cs),
(202,86,o),
(209,49,o),
(243,49,cs),
(249,49,o),
(256,50,o),
(264,54,c),
(229,26,o),
(187,7,o),
(144,7,cs)
);
},
{
closed = 1;
nodes = (
(350,502,o),
(420,501,o),
(475,476,cs),
(536,449,o),
(569,398,o),
(569,325,cs),
(569,37,ls),
(569,29,o),
(569,15,o),
(571,11,c),
(556,6,o),
(537,4,o),
(517,4,cs),
(454,4,o),
(378,37,o),
(378,130,cs),
(378,325,ls),
(378,378,o),
(374,417,o),
(363,446,cs),
(353,472,o),
(336,492,o),
(311,501,c)
);
}
);
width = 648;
},
{
layerId = "DF54607F-DD82-41E6-B2E3-81CA6D0E5C47";
shapes = (
{
closed = 1;
nodes = (
(287,515,o),
(30,455,o),
(30,370,cs),
(30,316,o),
(131,282,o),
(293,282,cs),
(489,282,o),
(594,322,o),
(594,391,cs),
(594,420,o),
(576,444,o),
(539,462,cs),
(507,477,o),
(496,484,o),
(496,490,cs),
(496,500,o),
(514,505,o),
(549,505,cs),
(657,505,o),
(678,440,o),
(678,279,c),
(240,279,o),
(10,224,o),
(10,111,cs),
(10,32,o),
(111,-15,o),
(281,-15,cs),
(522,-15,o),
(611,29,o),
(671,166,c),
(678,159,l),
(678,146,o),
(678,143,o),
(678,140,cs),
(678,36,o),
(786,-15,o),
(1007,-15,cs),
(1105,-15,o),
(1206,-1,o),
(1250,20,c),
(1250,30,l),
(1230,23,o),
(1217,20,o),
(1209,20,cs),
(1201,20,o),
(1198,25,o),
(1198,35,cs),
(1198,295,ls),
(1198,471,o),
(1101,515,o),
(653,515,cs)
);
},
{
closed = 1;
nodes = (
(678,208,l),
(650,124,o),
(604,66,o),
(574,66,cs),
(549,66,o),
(536,91,o),
(536,124,cs),
(536,184,o),
(582,269,o),
(678,269,c)
);
},
{
closed = 1;
nodes = (
(135,304,o),
(52,332,o),
(52,370,cs),
(52,426,o),
(214,477,o),
(474,492,c),
(474,482,o),
(478,472,o),
(488,465,cs),
(497,458,o),
(510,451,o),
(530,442,cs),
(562,427,o),
(572,413,o),
(572,391,cs),
(572,337,o),
(485,304,o),
(293,304,cs)
);
},
{
closed = 1;
nodes = (
(128,7,o),
(32,47,o),
(32,111,cs),
(32,198,o),
(208,248,o),
(576,255,c),
(534,221,o),
(514,167,o),
(514,124,cs),
(514,90,o),
(524,53,o),
(558,53,cs),
(564,53,o),
(571,54,o),
(578,58,c),
(527,24,o),
(429,7,o),
(281,7,cs)
);
},
{
closed = 1;
nodes = (
(739,500,o),
(952,497,o),
(1054,464,cs),
(1141,435,o),
(1176,383,o),
(1176,295,cs),
(1176,50,ls),
(1176,38,o),
(1176,32,o),
(1176,19,c),
(1140,11,o),
(1076,5,o),
(1006,5,cs),
(801,5,o),
(700,50,o),
(700,140,cs),
(700,295,ls),
(700,331,o),
(699,383,o),
(688,426,cs),
(682,453,o),
(671,478,o),
(655,493,c)
);
}
);
width = 1255;
},
{
layerId = "A5088515-37FF-452F-BD44-18A7A5EF88F0";
shapes = (
{
closed = 1;
nodes = (
(195,515,o),
(93,454,o),
(93,398,cs),
(93,370,o),
(119,357,o),
(145,357,cs),
(171,357,o),
(197,370,o),
(197,395,cs),
(197,410,o),
(189,421,o),
(172,430,cs),
(151,440,o),
(144,445,o),
(144,451,cs),
(144,470,o),
(209,500,o),
(302,500,cs),
(427,500,o),
(477,425,o),
(477,262,c),
(203,262,o),
(68,205,o),
(70,91,cs),
(71,15,o),
(129,-16,o),
(203,-15,cs),
(297,-15,o),
(416,40,o),
(467,136,c),
(477,130,l),
(477,113,o),
(477,109,o),
(477,43,cs),
(477,4,o),
(490,-15,o),
(519,-15,cs),
(545,-15,o),
(574,-2,o),
(596,20,c),
(596,31,l),
(573,13,o),
(545,0,o),
(523,0,cs),
(505,0,o),
(491,10,o),
(491,37,cs),
(491,262,ls),
(491,436,o),
(437,515,o),
(302,515,cs)
);
},
{
closed = 1;
nodes = (
(477,183,l),
(433,63,o),
(302,-2,o),
(203,-3,cs),
(136,-3,o),
(84,25,o),
(84,91,cs),
(84,196,o),
(214,248,o),
(477,248,c)
);
},
{
closed = 1;
nodes = (
(118,362,o),
(98,378,o),
(98,398,cs),
(98,419,o),
(115,444,o),
(143,462,c),
(139,458,o),
(138,454,o),
(138,451,cs),
(138,440,o),
(150,434,o),
(160,430,cs),
(176,422,o),
(192,414,o),
(192,395,cs),
(192,377,o),
(172,362,o),
(145,362,cs)
);
},
{
closed = 1;
nodes = (
(122,-11,o),
(76,25,o),
(75,91,cs),
(73,179,o),
(167,235,o),
(337,249,c),
(172,236,o),
(79,179,o),
(79,91,cs),
(79,28,o),
(123,-8,o),
(203,-7,cs),
(251,-7,o),
(307,8,o),
(358,36,c),
(312,6,o),
(257,-11,o),
(203,-11,cs)
);
},
{
closed = 1;
nodes = (
(385,498,o),
(413,484,o),
(435,460,cs),
(470,420,o),
(486,355,o),
(486,262,cs),
(486,37,ls),
(486,13,o),
(492,1,o),
(512,-8,c),
(507,-7,o),
(503,-5,o),
(500,-2,cs),
(488,5,o),
(482,18,o),
(482,37,cs),
(482,262,l),
(482,354,o),
(466,420,o),
(433,459,cs),
(412,484,o),
(383,497,o),
(349,504,c)
);
}
);
width = 626;
},
{
layerId = "35A90D60-3AD4-435C-9F8B-D1CA483F6F66";
shapes = (
{
closed = 1;
nodes = (
(292,515,o),
(129,454,o),
(129,398,cs),
(129,370,o),
(172,357,o),
(215,357,cs),
(258,357,o),
(302,370,o),
(302,395,cs),
(302,411,o),
(288,422,o),
(259,430,cs),
(225,439,o),
(213,444,o),
(213,451,cs),
(213,470,o),
(321,500,o),
(476,500,cs),
(684,500,o),
(767,425,o),
(767,262,c),
(311,262,o),
(87,205,o),
(90,91,cs),
(92,15,o),
(188,-16,o),
(311,-15,cs),
(468,-15,o),
(658,37,o),
(755,143,c),
(767,135,l),
(767,118,o),
(767,109,o),
(767,43,cs),
(767,4,o),
(787,-15,o),
(828,-15,cs),
(871,-15,o),
(919,-2,o),
(956,20,c),
(956,31,l),
(917,13,o),
(869,0,o),
(833,0,cs),
(803,0,o),
(781,9,o),
(781,37,cs),
(781,262,ls),
(781,436,o),
(701,515,o),
(476,515,cs)
);
},
{
closed = 1;
nodes = (
(767,183,l),
(694,63,o),
(476,-2,o),
(311,-3,cs),
(200,-3,o),
(104,25,o),
(104,91,cs),
(104,196,o),
(324,248,o),
(767,248,c)
);
},
{
closed = 1;
nodes = (
(173,362,o),
(134,374,o),
(134,398,cs),
(134,424,o),
(172,451,o),
(231,472,c),
(216,465,o),
(208,458,o),
(208,451,cs),
(208,440,o),
(221,435,o),
(258,425,cs),
(286,417,o),
(297,409,o),
(297,395,cs),
(297,374,o),
(257,362,o),
(215,362,cs)
);
},
{
closed = 1;
nodes = (
(189,-11,o),
(97,19,o),
(95,91,cs),
(93,180,o),
(238,232,o),
(534,249,c),
(243,232,o),
(99,180,o),
(99,91,cs),
(99,21,o),
(199,-7,o),
(311,-7,cs),
(391,-7,o),
(488,8,o),
(574,39,c),
(495,6,o),
(398,-11,o),
(311,-11,cs)
);
},
{
closed = 1;
nodes = (
(633,496,o),
(689,473,o),
(725,431,cs),
(760,391,o),
(776,335,o),
(776,262,cs),
(776,37,ls),
(776,15,o),
(791,-2,o),
(816,-7,c),
(811,-7,o),
(806,-6,o),
(802,-5,cs),
(784,1,o),
(772,18,o),
(772,40,cs),
(772,262,l),
(773,335,o),
(757,391,o),
(721,431,cs),
(685,470,o),
(631,493,o),
(556,504,c)
);
}
);
width = 996;
},
{
associatedMasterId = "2660E96A-9963-4076-AFCB-E451BC6EE103";
attr = {
colorPalette = 0;
};
layerId = "61F9CC9C-83DF-4C9A-99D0-AC54618D1CC0";
name = "9 Jul 23 10:28 p.m.";
shapes = (
{
closed = 1;
nodes = (
(174,515,o),
(33,439,o),
(33,364,cs),
(33,306,o),
(89,275,o),
(166,275,cs),
(245,275,o),
(302,306,o),
(302,364,cs),
(302,397,o),
(278,421,o),
(229,437,cs),
(180,453,o),
(164,461,o),
(164,469,cs),
(164,477,o),
(197,494,o),
(246,494,cs),
(342,494,o),
(356,453,o),
(356,279,c),
(139,279,o),
(10,213,o),
(10,101,cs),
(10,33,o),
(66,-15,o),
(144,-15,cs),
(226,-15,o),
(302,50,o),
(349,160,c),
(356,154,l),
(356,146,o),
(356,143,o),
(356,140,cs),
(356,28,o),
(420,-15,o),
(516,-15,cs),
(562,-15,o),
(615,-1,o),
(643,20,c),
(643,30,l),
(624,19,o),
(611,14,o),
(603,14,cs),
(594,14,o),
(591,22,o),
(591,32,cs),
(591,325,ls),
(591,453,o),
(512,515,o),
(331,515,cs)
);
},
{
closed = 1;
nodes = (
(356,198,l),
(320,100,o),
(281,65,o),
(254,65,cs),
(234,65,o),
(224,83,o),
(224,119,cs),
(224,179,o),
(260,259,o),
(356,269,c)
);
}
);
width = 648;
},
{
associatedMasterId = "2660E96A-9963-4076-AFCB-E451BC6EE103";
attr = {
colorPalette = 1;
};
layerId = "1B8B28F5-1E0C-4FF2-8FF3-F9FA7F0CFE88";
name = "9 Jul 23 10:28 p.m.";
shapes = (
{
closed = 1;
nodes = (
(96,297,o),
(55,323,o),
(55,364,cs),
(55,396,o),
(92,436,o),
(146,460,c),
(146,454,o),
(153,445,o),
(162,440,cs),
(171,436,o),
(189,428,o),
(208,422,cs),
(243,411,o),
(280,398,o),
(280,364,cs),
(280,323,o),
(238,297,o),
(166,297,cs)
);
},
{
closed = 1;
nodes = (
(78,7,o),
(32,46,o),
(32,101,cs),
(32,185,o),
(128,247,o),
(270,258,c),
(235,231,o),
(202,180,o),
(202,119,cs),
(202,86,o),
(209,49,o),
(243,49,cs),
(249,49,o),
(256,50,o),
(264,54,c),
(229,26,o),
(187,7,o),
(144,7,cs)
);
},
{
closed = 1;
nodes = (
(350,502,o),
(420,501,o),
(475,476,cs),
(536,449,o),
(569,398,o),
(569,325,cs),
(569,37,ls),
(569,29,o),
(569,15,o),
(571,11,c),
(556,6,o),
(537,4,o),
(517,4,cs),
(454,4,o),
(378,37,o),
(378,130,cs),
(378,325,ls),
(378,378,o),
(374,417,o),
(363,446,cs),
(353,472,o),
(336,492,o),
(311,501,c)
);
}
);
width = 648;
},
{
associatedMasterId = "A5088515-37FF-452F-BD44-18A7A5EF88F0";
attr = {
colorPalette = 0;
};
layerId = "1FE73418-0994-4E21-8D5D-42A96935B318";
name = "9 Jul 23 10:29 p.m.";
shapes = (
{
closed = 1;
nodes = (
(195,515,o),
(93,454,o),
(93,398,cs),
(93,370,o),
(119,357,o),
(145,357,cs),
(171,357,o),
(197,370,o),
(197,395,cs),
(197,410,o),
(189,421,o),
(172,430,cs),
(151,440,o),
(144,445,o),
(144,451,cs),
(144,470,o),
(209,500,o),
(302,500,cs),
(427,500,o),
(477,425,o),
(477,262,c),
(203,262,o),
(68,205,o),
(70,91,cs),
(71,15,o),
(129,-16,o),
(203,-15,cs),
(297,-15,o),
(416,40,o),
(467,136,c),
(477,130,l),
(477,113,o),
(477,109,o),
(477,43,cs),
(477,4,o),
(490,-15,o),
(519,-15,cs),
(545,-15,o),
(574,-2,o),
(596,20,c),
(596,31,l),
(573,13,o),
(545,0,o),
(523,0,cs),
(505,0,o),
(491,10,o),
(491,37,cs),
(491,262,ls),
(491,436,o),
(437,515,o),
(302,515,cs)
);
},
{
closed = 1;
nodes = (
(477,183,l),
(433,63,o),
(302,-2,o),
(203,-3,cs),
(136,-3,o),
(84,25,o),
(84,91,cs),
(84,196,o),
(214,248,o),
(477,248,c)
);
}
);
width = 626;
},
{
associatedMasterId = "A5088515-37FF-452F-BD44-18A7A5EF88F0";
attr = {
colorPalette = 1;
};
layerId = "45D6556E-5F7B-494E-8A15-4C9C4F5B1B4D";
name = "9 Jul 23 10:29 p.m.";
shapes = (
{
closed = 1;
nodes = (
(118,362,o),
(98,378,o),
(98,398,cs),
(98,419,o),
(115,444,o),
(143,462,c),
(139,458,o),
(138,454,o),
(138,451,cs),
(138,440,o),
(150,434,o),
(160,430,cs),
(176,422,o),
(192,414,o),
(192,395,cs),
(192,377,o),
(172,362,o),
(145,362,cs)
);
},
{
closed = 1;
nodes = (
(122,-11,o),
(76,25,o),
(75,91,cs),
(73,179,o),
(167,235,o),
(337,249,c),
(172,236,o),
(79,179,o),
(79,91,cs),
(79,28,o),
(123,-8,o),
(203,-7,cs),
(251,-7,o),
(307,8,o),
(358,36,c),
(312,6,o),
(257,-11,o),
(203,-11,cs)
);
},
{
closed = 1;
nodes = (
(385,498,o),
(413,484,o),
(435,460,cs),
(470,420,o),
(486,355,o),
(486,262,cs),
(486,37,ls),
(486,13,o),
(492,1,o),
(512,-8,c),
(507,-7,o),
(503,-5,o),
(500,-2,cs),
(488,5,o),
(482,18,o),
(482,37,cs),
(482,262,l),
(482,354,o),
(466,420,o),
(433,459,cs),
(412,484,o),
(383,497,o),
(349,504,c)
);
}
);
width = 626;
},
{
associatedMasterId = "35A90D60-3AD4-435C-9F8B-D1CA483F6F66";
attr = {
colorPalette = 0;
};
layerId = "AB2DF944-C2C7-4C54-A529-81F998ED2140";
name = "9 Jul 23 10:30 p.m.";
shapes = (
{
closed = 1;
nodes = (
(292,515,o),
(129,454,o),
(129,398,cs),
(129,370,o),
(172,357,o),
(215,357,cs),
(258,357,o),
(302,370,o),
(302,395,cs),
(302,411,o),
(288,422,o),
(259,430,cs),
(225,439,o),
(213,444,o),
(213,451,cs),
(213,470,o),
(321,500,o),
(476,500,cs),
(684,500,o),
(767,425,o),
(767,262,c),
(311,262,o),
(87,205,o),
(90,91,cs),
(92,15,o),
(188,-16,o),
(311,-15,cs),
(468,-15,o),
(658,37,o),
(755,143,c),
(767,135,l),
(767,118,o),
(767,109,o),
(767,43,cs),
(767,4,o),
(787,-15,o),
(828,-15,cs),
(871,-15,o),
(919,-2,o),
(956,20,c),
(956,31,l),
(917,13,o),
(869,0,o),
(833,0,cs),
(803,0,o),
(781,9,o),
(781,37,cs),
(781,262,ls),
(781,436,o),
(701,515,o),
(476,515,cs)
);
},
{
closed = 1;
nodes = (
(767,183,l),
(694,63,o),
(476,-2,o),
(311,-3,cs),
(200,-3,o),
(104,25,o),
(104,91,cs),
(104,196,o),
(324,248,o),
(767,248,c)
);
}
);
width = 996;
},
{
associatedMasterId = "35A90D60-3AD4-435C-9F8B-D1CA483F6F66";
attr = {
colorPalette = 1;
};
layerId = "A8DB3999-6A50-45DB-A4A2-54A8BF340EF0";
name = "9 Jul 23 10:30 p.m.";
shapes = (
{
closed = 1;
nodes = (
(173,362,o),
(134,374,o),
(134,398,cs),
(134,424,o),
(172,451,o),
(231,472,c),
(216,465,o),
(208,458,o),
(208,451,cs),
(208,440,o),
(221,435,o),
(258,425,cs),
(286,417,o),
(297,409,o),
(297,395,cs),
(297,374,o),
(257,362,o),
(215,362,cs)
);
},
{
closed = 1;
nodes = (
(189,-11,o),
(97,19,o),
(95,91,cs),
(93,180,o),
(238,232,o),
(534,249,c),
(243,232,o),
(99,180,o),
(99,91,cs),
(99,21,o),
(199,-7,o),
(311,-7,cs),
(391,-7,o),
(488,8,o),
(574,39,c),
(495,6,o),
(398,-11,o),
(311,-11,cs)
);
},
{
closed = 1;
nodes = (
(633,496,o),
(689,473,o),
(725,431,cs),
(760,391,o),
(776,335,o),
(776,262,cs),
(776,37,ls),
(776,15,o),
(791,-2,o),
(816,-7,c),
(811,-7,o),
(806,-6,o),
(802,-5,cs),
(784,1,o),
(772,18,o),
(772,40,cs),
(772,262,l),
(773,335,o),
(757,391,o),
(721,431,cs),
(685,470,o),
(631,493,o),
(556,504,c)
);
}
);
width = 996;
},
{
associatedMasterId = "DF54607F-DD82-41E6-B2E3-81CA6D0E5C47";
attr = {
colorPalette = 0;
};
layerId = "BC4DBD51-B5FF-42BE-A189-67D81540EE57";
name = "9 Jul 23 10:30 p.m.";
shapes = (
{
closed = 1;
nodes = (
(287,515,o),
(30,455,o),
(30,370,cs),
(30,316,o),
(131,282,o),
(293,282,cs),
(489,282,o),
(594,322,o),
(594,391,cs),
(594,420,o),
(576,444,o),
(539,462,cs),
(507,477,o),
(496,484,o),
(496,490,cs),
(496,500,o),
(514,505,o),
(549,505,cs),
(657,505,o),
(678,440,o),
(678,279,c),
(240,279,o),
(10,224,o),
(10,111,cs),
(10,32,o),
(111,-15,o),
(281,-15,cs),
(522,-15,o),
(611,29,o),
(671,166,c),
(678,159,l),
(678,146,o),
(678,143,o),
(678,140,cs),
(678,36,o),
(786,-15,o),
(1007,-15,cs),
(1105,-15,o),
(1206,-1,o),
(1250,20,c),
(1250,30,l),
(1230,23,o),
(1217,20,o),
(1209,20,cs),
(1201,20,o),
(1198,25,o),
(1198,35,cs),
(1198,295,ls),
(1198,471,o),
(1101,515,o),
(653,515,cs)
);
},
{
closed = 1;
nodes = (
(678,208,l),
(650,124,o),
(604,66,o),
(574,66,cs),
(549,66,o),
(536,91,o),
(536,124,cs),
(536,184,o),
(582,269,o),
(678,269,c)
);
}
);
width = 1255;
},
{
associatedMasterId = "DF54607F-DD82-41E6-B2E3-81CA6D0E5C47";
attr = {
colorPalette = 1;
};
layerId = "FFD7D344-4419-483E-8945-182A961C6FC5";
name = "9 Jul 23 10:30 p.m.";
shapes = (
{
closed = 1;
nodes = (
(135,304,o),
(52,332,o),
(52,370,cs),
(52,426,o),
(214,477,o),
(474,492,c),
(474,482,o),
(478,472,o),
(488,465,cs),
(497,458,o),
(510,451,o),
(530,442,cs),
(562,427,o),
(572,413,o),
(572,391,cs),
(572,337,o),
(485,304,o),
(293,304,cs)
);
},
{
closed = 1;
nodes = (
(128,7,o),
(32,47,o),
(32,111,cs),
(32,198,o),
(208,248,o),
(576,255,c),
(534,221,o),
(514,167,o),
(514,124,cs),
(514,90,o),
(524,53,o),
(558,53,cs),
(564,53,o),
(571,54,o),
(578,58,c),
(527,24,o),
(429,7,o),
(281,7,cs)
);
},
{
closed = 1;
nodes = (
(739,500,o),
(952,497,o),
(1054,464,cs),
(1141,435,o),
(1176,383,o),
(1176,295,cs),
(1176,50,ls),
(1176,38,o),
(1176,32,o),
(1176,19,c),
(1140,11,o),
(1076,5,o),
(1006,5,cs),
(801,5,o),
(700,50,o),
(700,140,cs),
(700,295,ls),
(700,331,o),
(699,383,o),
(688,426,cs),
(682,453,o),
(671,478,o),
(655,493,c)
);
}
);
width = 1255;
}
);
unicode = 97;
},
{
color = 4;
glyphname = ae;
kernLeft = a;
kernRight = o;
lastChange = "2022-08-05 06:04:53 +0000";
layers = (
{
background = {
shapes = (
{
closed = 1;
nodes = (
(233,-35,o),
(315,42,o),
(365,151,c),
(364,151,l),
(345,166,l),
(373,50,o),
(467,-35,o),
(629,-35,cs),
(705,-35,o),
(837,-20,o),
(913,139,c),
(906,165,l),
(892,174,l),
(863,165,l),
(838,107,o),
(779,73,o),
(735,73,cs),
(664,73,o),
(618,139,o),
(612,254,cs),
(612,252,o),
(613,249,o),
(615,246,c),
(932,246,l),
(941,388,o),
(856,535,o),
(647,535,cs),
(596,535,o),
(538,526,o),
(486,500,c),
(449,522,o),
(398,535,o),
(331,535,cs),
(167,535,o),
(13,455,o),
(13,364,cs),
(13,292,o),
(81,255,o),
(166,255,cs),
(252,255,o),
(322,292,o),
(322,364,cs),
(322,407,o),
(291,438,o),
(235,456,cs),
(186,472,o),
(184,483,o),
(184,469,cs),
(184,445,o),
(202,474,o),
(246,474,cs),
(324,474,o),
(335,452,o),
(336,299,c),
(123,295,o),
(-10,224,o),
(-10,101,cs),
(-10,21,o),
(56,-35,o),
(144,-35,cs)
);
},
{
closed = 1;
nodes = (
(73,5,o),
(30,42,o),
(30,101,cs),
(30,204,o),
(151,263,o),
(376,259,c),
(377,454,o),
(362,514,o),
(246,514,cs),
(187,514,o),
(144,494,o),
(144,469,cs),
(144,449,o),
(161,438,o),
(223,418,cs),
(267,403,o),
(282,389,o),
(282,364,cs),
(282,318,o),
(240,295,o),
(166,295,cs),
(94,295,o),
(53,318,o),
(53,364,cs),
(53,427,o),
(179,495,o),
(331,495,cs),
(406,495,o),
(452,480,o),
(483,453,c),
(534,484,o),
(592,495,o),
(647,495,cs),
(812,495,o),
(885,399,o),
(892,286,c),
(591,286,l),
(571,266,l),
(571,261,o),
(571,255,o),
(572,249,cs),
(580,122,o),
(641,33,o),
(735,33,cs),
(786,33,o),
(854,69,o),
(889,128,c),
(884,131,l),
(877,157,l),
(811,18,o),
(702,5,o),
(629,5,cs),
(485,5,o),
(408,74,o),
(383,176,c),
(364,191,l),
(352,191,l),
(334,179,l),
(288,73,o),
(218,5,o),
(144,5,cs)
);
}
);
};
layerId = "2660E96A-9963-4076-AFCB-E451BC6EE103";
shapes = (
{
closed = 1;
nodes = (
(226,-15,o),
(305,61,o),
(352,171,c),
(364,171,l),
(390,63,o),
(477,-15,o),
(629,-15,cs),
(703,-15,o),
(824,-1,o),
(895,148,c),
(881,157,l),
(854,93,o),
(784,53,o),
(735,53,cs),
(654,53,o),
(599,132,o),
(592,251,cs),
(591,256,o),
(591,261,o),
(591,266,c),
(913,266,l),
(913,393,o),
(833,515,o),
(647,515,cs),
(594,515,o),
(536,505,o),
(485,477,c),
(451,501,o),
(401,515,o),
(331,515,cs),
(174,515,o),
(33,439,o),
(33,364,cs),
(33,306,o),
(89,275,o),
(166,275,cs),
(245,275,o),
(302,306,o),
(302,364,cs),
(302,397,o),
(278,421,o),
(229,437,cs),
(180,453,o),
(164,461,o),
(164,469,cs),
(164,477,o),
(197,494,o),
(246,494,cs),
(342,494,o),
(356,453,o),
(356,279,c),
(139,279,o),
(10,213,o),
(10,101,cs),
(10,33,o),
(66,-15,o),
(144,-15,cs)
);
},
{
closed = 1;
nodes = (
(234,65,o),
(224,83,o),
(224,119,cs),
(224,179,o),
(260,259,o),
(356,269,c),
(356,198,l),
(320,100,o),
(281,65,o),
(254,65,cs)
);
},
{
closed = 1;
nodes = (
(595,448,o),
(606,505,o),
(646,505,cs),
(693,505,o),
(697,436,o),
(696,296,c),
(591,276,l)
);
},
{
closed = 1;
nodes = (
(716,402,o),
(712,459,o),
(697,491,c),
(827,474,o),
(886,387,o),
(892,286,c),
(716,286,l)
);
},
{
closed = 1;
nodes = (
(96,297,o),
(55,323,o),
(55,364,cs),
(55,396,o),
(92,436,o),
(146,460,c),
(146,454,o),
(153,445,o),
(162,440,cs),
(171,436,o),
(189,428,o),
(208,422,cs),
(243,411,o),
(280,398,o),
(280,364,cs),
(280,323,o),
(238,297,o),
(166,297,cs)
);
},
{
closed = 1;
nodes = (
(78,7,o),
(32,46,o),
(32,101,cs),
(32,185,o),
(128,247,o),
(270,258,c),
(235,231,o),
(202,180,o),
(202,119,cs),
(202,86,o),
(209,49,o),
(243,49,cs),
(249,49,o),
(256,50,o),
(264,54,c),
(229,26,o),
(187,7,o),
(144,7,cs)
);
},
{
closed = 1;
nodes = (
(347,501,o),
(379,498,o),
(407,490,cs),
(437,482,o),
(462,470,o),
(483,453,c),
(517,473,o),
(551,485,o),
(595,491,c),
(576,455,o),
(570,387,o),
(571,276,cs),
(569,173,o),
(615,33,o),
(735,33,cs),
(749,33,o),
(764,36,o),
(779,41,c),
(735,14,o),
(698,5,o),
(629,5,cs),
(488,5,o),
(378,96,o),
(378,211,cs),
(378,325,ls),
(378,378,o),
(374,417,o),
(363,446,cs),
(353,472,o),
(336,492,o),
(311,501,c)
);
}
);
width = 933;
},
{
background = {
shapes = (
{
closed = 1;
nodes = (
(501,-35,o),
(619,-4,o),
(690,159,c),
(689,159,l),
(670,172,l),
(722,38,o),
(929,-35,o),
(1240,-35,cs),
(1578,-35,o),
(1757,28,o),
(1860,134,c),
(1857,165,l),
(1843,174,l),
(1817,171,l),
(1731,78,o),
(1554,50,o),
(1404,94,cs),
(1304,124,o),
(1237,187,o),
(1224,252,c),
(1224,250,o),
(1224,248,o),
(1225,246,c),
(1873,246,l),
(1889,431,o),
(1682,535,o),
(1298,535,cs),
(1168,535,o),
(1050,522,o),
(953,497,c),
(897,522,o),
(806,535,o),
(653,535,cs),
(282,535,o),
(10,477,o),
(10,370,cs),
(10,298,o),
(126,262,o),
(293,262,cs),
(495,262,o),
(614,305,o),
(614,391,cs),
(614,429,o),
(590,460,o),
(548,480,cs),
(516,495,o),
(516,495,o),
(516,490,cs),
(516,485,o),
(516,485,o),
(549,485,cs),
(638,485,o),
(657,441,o),
(658,299,c),
(228,297,o),
(-10,242,o),
(-10,111,cs),
(-10,17,o),
(103,-35,o),
(281,-35,cs)
);
},
{
closed = 1;
nodes = (
(115,5,o),
(30,45,o),
(30,111,cs),
(30,210,o),
(249,261,o),
(698,259,c),
(700,439,o),
(678,525,o),
(549,525,cs),
(500,525,o),
(476,515,o),
(476,490,cs),
(476,473,o),
(489,463,o),
(530,444,cs),
(563,428,o),
(574,413,o),
(574,391,cs),
(574,336,o),
(485,302,o),
(293,302,cs),
(134,302,o),
(50,330,o),
(50,370,cs),
(50,439,o),
(289,495,o),
(653,495,cs),
(815,495,o),
(901,480,o),
(949,455,c),
(1046,482,o),
(1164,495,o),
(1298,495,cs),
(1639,495,o),
(1817,418,o),
(1833,286,c),
(1186,286,l),
(1179,274,o),
(1182,256,o),
(1184,244,cs),
(1201,164,o),
(1283,88,o),
(1392,56,cs),
(1546,11,o),
(1734,36,o),
(1835,131,c),
(1835,131,l),
(1832,162,l),
(1736,63,o),
(1570,5,o),
(1240,5,cs),
(938,5,o),
(752,72,o),
(708,186,c),
(689,199,l),
(677,199,l),
(658,187,l),
(596,33,o),
(499,5,o),
(281,5,cs)
);
}
);
};
layerId = "DF54607F-DD82-41E6-B2E3-81CA6D0E5C47";
shapes = (
{
closed = 1;
nodes = (
(502,-15,o),
(611,16,o),
(677,179,c),
(689,179,l),
(737,56,o),
(935,-15,o),
(1240,-15,cs),
(1573,-15,o),
(1747,46,o),
(1846,148,c),
(1832,157,l),
(1741,59,o),
(1553,30,o),
(1398,75,cs),
(1294,106,o),
(1219,177,o),
(1204,248,cs),
(1203,254,o),
(1202,260,o),
(1202,266,c),
(1854,266,l),
(1854,423,o),
(1660,515,o),
(1298,515,cs),
(1166,515,o),
(1048,502,o),
(951,476,c),
(899,501,o),
(810,515,o),
(653,515,cs),
(287,515,o),
(30,455,o),
(30,370,cs),
(30,316,o),
(131,282,o),
(293,282,cs),
(489,282,o),
(594,322,o),
(594,391,cs),
(594,420,o),
(576,444,o),
(539,462,cs),
(507,477,o),
(496,484,o),
(496,490,cs),
(496,500,o),
(512,505,o),
(549,505,cs),
(657,505,o),
(678,440,o),
(678,279,c),
(240,279,o),
(10,224,o),
(10,111,cs),
(10,32,o),
(111,-15,o),
(281,-15,cs)
);
},
{
closed = 1;
nodes = (
(549,66,o),
(536,91,o),
(536,124,cs),
(536,184,o),
(582,269,o),
(678,269,c),
(678,208,l),
(650,124,o),
(604,66,o),
(574,66,cs)
);
},
{
closed = 1;
nodes = (
(1201,451,o),
(1227,505,o),
(1267,505,cs),
(1324,505,o),
(1328,436,o),
(1327,296,c),
(1202,277,l)
);
},
{
closed = 1;
nodes = (
(1347,382,o),
(1349,454,o),
(1328,493,c),
(1646,489,o),
(1815,414,o),
(1832,288,c),
(1346,288,l)
);
},
{
closed = 1;
nodes = (
(135,304,o),
(52,332,o),
(52,370,cs),
(52,426,o),
(214,477,o),
(474,492,c),
(474,482,o),
(478,472,o),
(488,465,cs),
(497,458,o),
(510,451,o),
(530,442,cs),
(562,427,o),
(572,413,o),
(572,391,cs),
(572,337,o),
(485,304,o),
(293,304,cs)
);
},
{
closed = 1;
nodes = (
(128,7,o),
(32,47,o),
(32,111,cs),
(32,198,o),
(208,248,o),
(576,255,c),
(534,221,o),
(514,167,o),
(514,124,cs),
(514,90,o),
(524,53,o),
(558,53,cs),
(564,53,o),
(571,54,o),
(578,58,c),
(527,24,o),
(429,7,o),
(281,7,cs)
);
},
{
closed = 1;
nodes = (
(714,497,o),
(778,494,o),
(835,486,cs),
(880,479,o),
(920,468,o),
(949,455,c),
(1044,478,o),
(1109,487,o),
(1212,491,c),
(1191,454,o),
(1180,386,o),
(1181,276,cs),
(1179,185,o),
(1267,91,o),
(1393,54,cs),
(1446,39,o),
(1502,32,o),
(1558,33,c),
(1463,14,o),
(1375,7,o),
(1241,7,cs),
(923,7,o),
(700,96,o),
(700,223,cs),
(700,295,ls),
(700,331,o),
(699,383,o),
(688,426,cs),
(682,453,o),
(671,478,o),
(655,493,c)
);
}
);
width = 1879;
},
{
background = {
shapes = (
{
closed = 1;
nodes = (
(482,253,o),
(482,257,o),
(482,262,cs),
(485,295,l),
(482,262,l),
(482,354,o),
(466,420,o),
(433,459,cs),
(412,484,o),
(383,497,o),
(349,504,c),
(385,498,o),
(413,484,o),
(435,460,cs),
(466,425,o),
(482,371,o),
(485,295,c),
(497,376,o),
(539,440,o),
(602,476,c),
(530,434,o),
(486,351,o),
(486,248,cs),
(486,99,o),
(580,-6,o),
(714,-6,cs),
(760,-6,o),
(800,0,o),
(825,12,c),
(798,-2,o),
(758,-10,o),
(714,-10,cs),
(577,-10,o),
(482,97,o),
(482,248,cs)
);
}
);
};
layerId = "A5088515-37FF-452F-BD44-18A7A5EF88F0";
shapes = (
{
closed = 1;
nodes = (
(302,-15,o),
(430,46,o),
(475,153,c),
(491,153,l),
(522,51,o),
(606,-15,o),
(714,-15,cs),
(827,-15,o),
(905,31,o),
(952,125,c),
(945,135,l),
(897,44,o),
(821,-1,o),
(714,-1,cs),
(583,-1,o),
(491,102,o),
(491,248,cs),
(491,258,o),
(491,267,o),
(492,276,c),
(939,276,l),
(940,426,o),
(859,515,o),
(722,515,cs),
(605,515,o),
(517,442,o),
(488,332,c),
(474,457,o),
(417,515,o),
(302,515,cs),
(195,515,o),
(93,454,o),
(93,398,cs),
(93,370,o),
(119,357,o),
(145,357,cs),
(171,357,o),
(197,370,o),
(197,395,cs),
(197,409,o),
(189,421,o),
(172,430,cs),
(151,441,o),
(144,446,o),
(144,451,cs),
(144,470,o),
(209,500,o),
(302,500,cs),
(427,500,o),
(477,425,o),
(477,262,c),
(201,262,o),
(68,206,o),
(70,91,cs),
(71,15,o),
(129,-16,o),
(203,-15,cs)
);
},
{
closed = 1;
nodes = (
(136,-3,o),
(84,25,o),
(84,91,cs),
(84,196,o),
(213,248,o),
(477,248,c),
(477,183,l),
(433,63,o),
(302,-2,o),
(203,-3,cs)
);
},
{
closed = 1;
nodes = (
(508,414,o),
(599,500,o),
(722,500,cs),
(847,500,o),
(922,422,o),
(925,290,c),
(493,286,l)
);
},
{
closed = 1;
nodes = (
(926,388,o),
(894,438,o),
(842,476,c),
(897,441,o),
(930,391,o),
(935,281,c),
(931,281,l)
);
},
{
closed = 1;
nodes = (
(118,362,o),
(98,378,o),
(98,398,cs),
(98,419,o),
(115,444,o),
(143,462,c),
(139,458,o),
(138,454,o),
(138,451,cs),
(138,440,o),
(150,434,o),
(160,430,cs),
(176,422,o),
(192,414,o),
(192,395,cs),
(192,377,o),
(172,362,o),
(145,362,cs)
);
},
{
closed = 1;
nodes = (
(122,-11,o),
(76,25,o),
(75,91,cs),
(73,179,o),
(167,235,o),
(337,249,c),
(172,236,o),
(79,179,o),
(79,91,cs),
(79,28,o),
(123,-8,o),
(203,-7,cs),
(251,-7,o),
(307,8,o),
(358,36,c),
(312,6,o),
(257,-11,o),
(203,-11,cs)
);
},
{
closed = 1;
nodes = (
(385,498,o),
(413,484,o),
(435,460,cs),
(466,425,o),
(482,371,o),
(485,295,c),
(497,376,o),
(539,440,o),
(602,476,c),
(530,434,o),
(486,351,o),
(486,248,cs),
(486,99,o),
(580,-6,o),
(714,-6,cs),
(760,-6,o),
(800,0,o),
(825,12,c),
(798,-2,o),
(758,-10,o),
(714,-10,cs),
(577,-10,o),
(482,97,o),
(482,248,c),
(482,262,l),
(482,354,o),
(466,420,o),
(433,459,cs),
(412,484,o),
(383,497,o),
(349,504,c)
);
}
);
width = 1017;
},
{
background = {
shapes = (
{
closed = 1;
nodes = (
(772,253,o),
(772,259,o),
(772,262,cs),
(775,285,l),
(772,262,l),
(773,335,o),
(757,391,o),
(721,431,cs),
(685,470,o),
(631,493,o),
(556,504,c),
(633,496,o),
(689,473,o),
(725,431,cs),
(756,395,o),
(772,347,o),
(775,285,c),
(792,371,o),
(864,439,o),
(974,476,c),
(855,432,o),
(776,352,o),
(776,248,cs),
(776,97,o),
(938,-6,o),
(1169,-6,cs),
(1246,-6,o),
(1310,0,o),
(1362,12,c),
(1304,-3,o),
(1240,-10,o),
(1169,-10,cs),
(929,-10,o),
(772,98,o),
(772,248,cs)
);
}
);
};
layerId = "35A90D60-3AD4-435C-9F8B-D1CA483F6F66";
shapes = (
{
closed = 1;
nodes = (
(477,-15,o),
(680,43,o),
(770,161,c),
(786,161,l),
(835,55,o),
(976,-15,o),
(1169,-15,cs),
(1365,-15,o),
(1498,33,o),
(1580,127,c),
(1570,135,l),
(1486,44,o),
(1354,-1,o),
(1169,-1,cs),
(941,-1,o),
(781,102,o),
(781,248,cs),
(781,258,o),
(782,267,o),
(783,276,c),
(1559,276,l),
(1561,426,o),
(1420,515,o),
(1183,515,cs),
(970,515,o),
(819,435,o),
(778,316,c),
(762,452,o),
(676,515,o),
(476,515,cs),
(292,515,o),
(129,454,o),
(129,398,cs),
(129,370,o),
(172,357,o),
(215,357,cs),
(258,357,o),
(302,370,o),
(302,395,cs),
(302,410,o),
(288,422,o),
(259,430,cs),
(225,439,o),
(213,445,o),
(213,451,cs),
(213,470,o),
(321,500,o),
(476,500,cs),
(684,500,o),
(767,425,o),
(767,262,c),
(308,262,o),
(87,206,o),
(90,91,cs),
(92,15,o),
(188,-16,o),
(311,-15,cs)
);
},
{
closed = 1;
nodes = (
(200,-3,o),
(104,25,o),
(104,91,cs),
(104,196,o),
(328,248,o),
(767,248,c),
(767,183,l),
(694,63,o),
(476,-2,o),
(311,-3,cs)
);
},
{
closed = 1;
nodes = (
(811,414,o),
(969,500,o),
(1183,500,cs),
(1399,500,o),
(1540,422,o),
(1545,290,c),
(785,286,l)
);
},
{
closed = 1;
nodes = (
(1550,390,o),
(1471,458,o),
(1356,487,c),
(1474,459,o),
(1555,390,o),
(1555,280,c),
(1550,280,l)
);
},
{
closed = 1;
nodes = (
(173,362,o),
(134,374,o),
(134,398,cs),
(134,424,o),
(172,451,o),
(231,472,c),
(216,465,o),
(208,458,o),
(208,451,cs),
(208,440,o),
(221,435,o),
(258,425,cs),
(286,417,o),
(297,409,o),
(297,395,cs),
(297,374,o),
(257,362,o),
(215,362,cs)
);
},
{
closed = 1;
nodes = (
(189,-11,o),
(97,19,o),
(95,91,cs),
(93,180,o),
(238,232,o),
(534,249,c),
(243,232,o),
(99,180,o),
(99,91,cs),
(99,21,o),
(199,-7,o),
(311,-7,cs),
(391,-7,o),
(488,8,o),
(574,39,c),
(495,6,o),
(398,-11,o),
(311,-11,cs)
);
},
{
closed = 1;
nodes = (
(633,496,o),
(689,473,o),
(725,431,cs),
(756,395,o),
(772,347,o),
(775,285,c),
(792,371,o),
(864,439,o),
(974,476,c),
(855,432,o),
(776,352,o),
(776,248,cs),
(776,97,o),
(938,-6,o),
(1169,-6,cs),
(1246,-6,o),
(1310,0,o),
(1362,12,c),
(1304,-3,o),
(1240,-10,o),
(1169,-10,cs),
(929,-10,o),
(772,98,o),
(772,248,c),
(772,262,l),
(773,335,o),
(757,391,o),
(721,431,cs),
(685,470,o),
(631,493,o),
(556,504,c)
);
}
);
width = 1645;
}
);
metricLeft = a;
metricRight = e;
unicode = 230;
},
{
color = 4;
glyphname = b;
kernLeft = ll;
kernRight = o;
lastChange = "2022-08-05 06:04:53 +0000";
layers = (
{
layerId = "2660E96A-9963-4076-AFCB-E451BC6EE103";
shapes = (
{
closed = 1;
nodes = (
(72,-15,l),
(148,90,l),
(158,90,l),
(190,45,o),
(244,-15,o),
(364,-15,cs),
(508,-15,o),
(656,56,o),
(656,276,cs),
(656,394,o),
(610,515,o),
(486,515,cs),
(417,515,o),
(357,487,o),
(305,344,c),
(297,352,l),
(297,745,l),
(12,705,l),
(12,694,l),
(62,694,l),
(62,-15,l)
);
},
{
closed = 1;
nodes = (
(328,0,o),
(297,25,o),
(297,170,cs),
(297,289,l),
(319,363,o),
(348,430,o),
(377,430,cs),
(411,430,o),
(416,376,o),
(416,241,cs),
(416,108,o),
(402,0,o),
(354,0,cs)
);
},
{
closed = 1;
nodes = (
(429,51,o),
(436,143,o),
(436,241,cs),
(436,395,o),
(424,446,o),
(386,446,cs),
(384,446,o),
(379,446,o),
(375,444,c),
(414,486,o),
(447,495,o),
(486,495,cs),
(596,495,o),
(636,390,o),
(636,276,cs),
(636,87,o),
(525,17,o),
(400,7,c)
);
},
{
closed = 1;
nodes = (
(230,28,o),
(194,73,o),
(169,110,c),
(138,110,l),
(82,33,l),
(82,695,l),
(277,722,l),
(277,170,ls),
(277,86,o),
(288,38,o),
(303.238,11.399,c)
);
}
);
width = 676;
},
{
layerId = "DF54607F-DD82-41E6-B2E3-81CA6D0E5C47";
shapes = (
{
closed = 1;
nodes = (
(72,-15,l),
(223,90,l),
(233,90,l),
(333,28,o),
(528,-15,o),
(690,-15,cs),
(1034,-15,o),
(1237,93,o),
(1237,276,cs),
(1237,416,o),
(1098,515,o),
(902,515,cs),
(760,515,o),
(655,459,o),
(590,344,c),
(582,352,l),
(582,745,l),
(12,705,l),
(12,694,l),
(62,694,l),
(62,-15,l)
);
},
{
closed = 1;
nodes = (
(598,0,o),
(582,63,o),
(582,170,cs),
(582,300,l),
(619,378,o),
(643,408,o),
(670,408,cs),
(701,408,o),
(712,362,o),
(712,241,cs),
(712,69,o),
(691,0,o),
(640,0,cs)
);
},
{
closed = 1;
nodes = (
(724,43,o),
(732,122,o),
(732,241,cs),
(732,367,o),
(717,422,o),
(684,422,cs),
(681,422,o),
(679,422,o),
(674,421,c),
(741,473,o),
(814,495,o),
(902,495,cs),
(1091,495,o),
(1217,405,o),
(1217,276,cs),
(1217,107,o),
(1031,6,o),
(696,5,c)
);
},
{
closed = 1;
nodes = (
(454,24,o),
(315,61,o),
(239,110,c),
(216,110,l),
(82,18,l),
(82,690,l),
(562,723,l),
(562,170,l),
(562,101,o),
(569,44,o),
(588,10,cs)
);
}
);
width = 1262;
},
{
layerId = "A5088515-37FF-452F-BD44-18A7A5EF88F0";
shapes = (
{
closed = 1;
nodes = (
(140,-15,l),
(144,90,l),
(154,90,l),
(203,19,o),
(279,-15,o),
(345,-15,cs),
(483,-15,o),
(564,85,o),
(564,255,cs),
(564,418,o),
(489,515,o),
(363,515,cs),
(243,515,o),
(173,399,o),
(152,354,c),
(144,362,l),
(144,745,l),
(60,715,l),
(60,704,l),
(130,704,l),
(130,-15,l)
);
},
{
closed = 1;
nodes = (
(264,0,o),
(144,71,o),
(144,179,cs),
(144,293,l),
(182,424,o),
(273,501,o),
(363,500,cs),
(483,499,o),
(550,408,o),
(550,255,cs),
(550,95,o),
(471,0,o),
(345,0,cs)
);
},
{
closed = 1;
nodes = (
(507,42,o),
(555,129,o),
(555,255,cs),
(555,414,o),
(484,504,o),
(363,505,cs),
(325,505,o),
(287,494,o),
(252,470,c),
(282,492,o),
(319,509,o),
(363,509,cs),
(487,509,o),
(559,418,o),
(559,255,cs),
(559,129,o),
(509,38,o),
(423,7,c)
);
},
{
closed = 1;
nodes = (
(204,42,o),
(178,66,o),
(158,95,c),
(139,95,l),
(135,23,l),
(135,736,l),
(139,738,l),
(139,166,l),
(143,113,o),
(177,62,o),
(236,24,c)
);
}
);
width = 629;
},
{
layerId = "35A90D60-3AD4-435C-9F8B-D1CA483F6F66";
shapes = (
{
closed = 1;
nodes = (
(200,-15,l),
(204,102,l),
(213,107,l),
(299,18,o),
(446,-15,o),
(564,-15,cs),
(794,-15,o),
(956,97,o),
(956,255,cs),
(956,407,o),
(807,515,o),
(596,515,cs),
(382,515,o),
(256,399,o),
(219,346,c),
(204,355,l),
(204,745,l),
(70,715,l),
(70,704,l),
(190,704,l),
(190,-15,l)
);
},
{
closed = 1;
nodes = (
(402,0,o),
(204,75,o),
(204,183,cs),
(204,293,l),
(272,424,o),
(435,501,o),
(596,500,cs),
(799,499,o),
(942,398,o),
(942,255,cs),
(942,106,o),
(785,0,o),
(564,0,cs)
);
},
{
closed = 1;
nodes = (
(848,44,o),
(947,133,o),
(947,255,cs),
(947,401,o),
(802,505,o),
(596,506,cs),
(529,506,o),
(458,493,o),
(396,470,c),
(459,496,o),
(531,510,o),
(596,510,cs),
(804,510,o),
(951,405,o),
(951,255,cs),
(951,134,o),
(852,40,o),
(696,7,c)
);
},
{
closed = 1;
nodes = (
(310,42,o),
(252,74,o),
(214,114,c),
(199,106,l),
(195,23,l),
(195,736,l),
(199,738,l),
(199,171,l),
(203,117,o),
(267,62,o),
(365,25,c)
);
}
);
width = 1021;
}
);
metricLeft = n;
metricRight = o;
unicode = 98;
},
{
color = 4;
glyphname = c;
kernLeft = oo;
kernRight = o;
lastChange = "2022-08-05 06:04:53 +0000";
layers = (
{
layerId = "2660E96A-9963-4076-AFCB-E451BC6EE103";
shapes = (
{
closed = 1;
nodes = (
(378,-15,o),
(494,-7,o),
(573,148,c),
(559,157,l),
(532,93,o),
(461,53,o),
(412,53,cs),
(314,53,o),
(256,139,o),
(256,285,cs),
(256,396,o),
(305,505,o),
(389,505,cs),
(420,505,o),
(445,495,o),
(445,483,cs),
(445,474,o),
(423,465,o),
(383,456,cs),
(336,446,o),
(307,415,o),
(307,374,cs),
(307,316,o),
(364,285,o),
(443,285,cs),
(520,285,o),
(576,316,o),
(576,374,cs),
(576,469,o),
(465,515,o),
(358,515,cs),
(147,515,o),
(20,413,o),
(20,240,cs),
(20,91,o),
(134,-15,o),
(294,-15,cs)
);
},
{
closed = 1;
nodes = (
(519,460,o),
(556,426,o),
(556,374,cs),
(556,328,o),
(515,305,o),
(443,305,cs),
(369,305,o),
(327,328,o),
(327,374,cs),
(327,407,o),
(346,428,o),
(387,436,cs),
(438,448,o),
(462,459,o),
(465,478,c),
(465,483,l)
);
},
{
closed = 1;
nodes = (
(40,390,o),
(136,480,o),
(311,494,c),
(262,451,o),
(236,367,o),
(236,285,cs),
(236,130,o),
(301,33,o),
(412,33,cs),
(425,33,o),
(440,36,o),
(454,40,c),
(401,7,o),
(344,5,o),
(294,5,cs),
(152,5,o),
(40,108,o),
(40,240,cs)
);
}
);
width = 596;
},
{
layerId = "DF54607F-DD82-41E6-B2E3-81CA6D0E5C47";
shapes = (
{
closed = 1;
nodes = (
(920,-15,o),
(1094,46,o),
(1193,148,c),
(1179,157,l),
(1116,89,o),
(1006,54,o),
(893,54,cs),
(634,54,o),
(550,187,o),
(550,308,cs),
(550,424,o),
(608,505,o),
(691,505,cs),
(715,505,o),
(734,500,o),
(734,492,cs),
(734,486,o),
(718,475,o),
(688,461,cs),
(655,445,o),
(636,420,o),
(636,391,cs),
(636,322,o),
(741,282,o),
(937,282,cs),
(1091,282,o),
(1200,323,o),
(1200,380,cs),
(1200,465,o),
(959,515,o),
(645,515,cs),
(280,515,o),
(25,413,o),
(25,240,cs),
(25,80,o),
(234,-15,o),
(587,-15,cs)
);
},
{
closed = 1;
nodes = (
(1003,483,o),
(1178,440,o),
(1178,380,cs),
(1178,338,o),
(1087,304,o),
(937,304,cs),
(745,304,o),
(658,337,o),
(658,391,cs),
(658,413,o),
(669,427,o),
(697,441,cs),
(734,458,o),
(756,471,o),
(756,487,c),
(756,492,l)
);
},
{
closed = 1;
nodes = (
(47,391,o),
(265,485,o),
(600,493,c),
(555,455,o),
(528,389,o),
(528,308,cs),
(528,189,o),
(604,57,o),
(826,35,cs),
(847,33,o),
(869,32,o),
(893,32,cs),
(818,16,o),
(715,7,o),
(587,7,cs),
(255,7,o),
(47,97,o),
(47,240,cs)
);
}
);
width = 1225;
},
{
layerId = "A5088515-37FF-452F-BD44-18A7A5EF88F0";
shapes = (
{
closed = 1;
nodes = (
(415,-15,o),
(493,31,o),
(540,125,c),
(533,135,l),
(485,44,o),
(409,-1,o),
(302,-1,cs),
(171,-1,o),
(79,102,o),
(79,248,cs),
(79,396,o),
(175,500,o),
(310,500,cs),
(403,500,o),
(458,470,o),
(458,453,cs),
(458,447,o),
(451,441,o),
(437,433,cs),
(416,423,o),
(405,410,o),
(405,395,cs),
(405,370,o),
(431,357,o),
(457,357,cs),
(483,357,o),
(509,370,o),
(509,398,cs),
(509,467,o),
(414,515,o),
(310,515,cs),
(166,515,o),
(65,404,o),
(65,248,cs),
(65,94,o),
(163,-15,o),
(302,-15,cs)
);
},
{
closed = 1;
nodes = (
(488,446,o),
(502,424,o),
(502,398,cs),
(502,374,o),
(481,364,o),
(457,364,cs),
(433,364,o),
(412,374,o),
(412,395,cs),
(412,407,o),
(420,417,o),
(440,427,cs),
(459,438,o),
(465,446,o),
(465,460,c),
(464,464,l)
);
},
{
closed = 1;
nodes = (
(70,369,o),
(133,462,o),
(230,495,c),
(136,461,o),
(74,368,o),
(74,248,cs),
(74,99,o),
(167,-6,o),
(302,-6,cs),
(348,-6,o),
(388,0,o),
(413,12,c),
(386,-2,o),
(346,-10,o),
(302,-10,cs),
(166,-10,o),
(70,97,o),
(70,248,cs)
);
}
);
width = 605;
},
{
layerId = "35A90D60-3AD4-435C-9F8B-D1CA483F6F66";
shapes = (
{
closed = 1;
nodes = (
(673,-15,o),
(806,33,o),
(888,127,c),
(878,135,l),
(794,44,o),
(662,-1,o),
(477,-1,cs),
(249,-1,o),
(79,102,o),
(79,248,cs),
(79,396,o),
(256,500,o),
(491,500,cs),
(652,500,o),
(757,470,o),
(757,453,cs),
(757,448,o),
(740,440,o),
(709,431,cs),
(675,422,o),
(656,409,o),
(656,395,cs),
(656,370,o),
(701,357,o),
(746,357,cs),
(791,357,o),
(836,370,o),
(836,398,cs),
(836,467,o),
(671,515,o),
(491,515,cs),
(240,515,o),
(65,404,o),
(65,248,cs),
(65,94,o),
(235,-15,o),
(477,-15,cs)
);
},
{
closed = 1;
nodes = (
(804,446,o),
(829,424,o),
(829,398,cs),
(829,375,o),
(790,364,o),
(746,364,cs),
(702,364,o),
(663,375,o),
(663,395,cs),
(663,405,o),
(678,416,o),
(711,424,cs),
(754,438,o),
(767,446,o),
(764,457,c),
(763,462,l)
);
},
{
closed = 1;
nodes = (
(70,366,o),
(179,462,o),
(352,495,c),
(181,460,o),
(74,365,o),
(74,248,cs),
(74,99,o),
(240,-6,o),
(477,-6,cs),
(554,-6,o),
(618,0,o),
(670,12,c),
(612,-3,o),
(548,-10,o),
(477,-10,cs),
(238,-10,o),
(70,97,o),
(70,248,cs)
);
}
);
width = 953;
}
);
metricLeft = o;
metricRight = o;
unicode = 99;
},
{
color = 4;
glyphname = d;
kernLeft = oo;
kernRight = l;
lastChange = "2022-08-05 06:04:53 +0000";
layers = (
{
layerId = "2660E96A-9963-4076-AFCB-E451BC6EE103";
shapes = (
{
closed = 1;
nodes = (
(348,705,l),
(348,694,l),
(398,694,l),
(398,435,l),
(388,452,o),
(346,515,o),
(235,515,cs),
(122,515,o),
(20,438,o),
(20,230,cs),
(20,92,o),
(96,-15,o),
(217,-15,cs),
(319,-15,o),
(371,99,o),
(390,156,c),
(398,148,l),
(398,-15,l),
(683,25,l),
(683,36,l),
(633,36,l),
(633,745,l)
);
},
{
closed = 1;
nodes = (
(362,467,o),
(398,429,o),
(398,341,cs),
(398,209,l),
(383,162,o),
(352,60,o),
(308,60,cs),
(276,60,o),
(260,111,o),
(260,260,cs),
(260,378,o),
(281,467,o),
(332,467,cs)
);
},
{
closed = 1;
nodes = (
(114,4,o),
(42,97,o),
(42,230,cs),
(42,393,o),
(116,495,o),
(235,495,cs),
(262,495,o),
(287,491,o),
(304,485,c),
(302,484,o),
(302,484,o),
(300,483,c),
(259,459,o),
(238,385,o),
(238,260,cs),
(238,116,o),
(258,44,o),
(297,44,c),
(299,44,o),
(300,44,o),
(303,44,c),
(285,20,o),
(252,5,o),
(217,5,cs)
);
},
{
closed = 1;
nodes = (
(418,694,l),
(613,722,l),
(613,36,l),
(418,8,l)
);
}
);
width = 693;
},
{
layerId = "DF54607F-DD82-41E6-B2E3-81CA6D0E5C47";
shapes = (
{
closed = 1;
nodes = (
(638,705,l),
(638,694,l),
(688,694,l),
(688,425,l),
(658,478,o),
(537,515,o),
(395,515,cs),
(178,515,o),
(25,397,o),
(25,230,cs),
(25,76,o),
(148,-15,o),
(357,-15,cs),
(525,-15,o),
(644,49,o),
(680,156,c),
(688,148,l),
(688,-15,l),
(1258,25,l),
(1258,36,l),
(1208,36,l),
(1208,745,l)
);
},
{
closed = 1;
nodes = (
(652,465,o),
(688,429,o),
(688,341,cs),
(688,209,l),
(673,162,o),
(642,80,o),
(598,80,cs),
(566,80,o),
(550,111,o),
(550,260,cs),
(550,378,o),
(571,465,o),
(622,465,cs)
);
},
{
closed = 1;
nodes = (
(167,7,o),
(47,93,o),
(47,231,cs),
(47,378,o),
(200,493,o),
(395,493,cs),
(466,493,o),
(527,485,o),
(578,469,c),
(577,469,o),
(576,468,o),
(575,467,c),
(545,441,o),
(528,366,o),
(528,260,cs),
(528,140,o),
(546,65,o),
(575,65,cs),
(578,65,o),
(580,65,o),
(582,65,c),
(533,28,o),
(452,7,o),
(357,7,cs)
);
},
{
closed = 1;
nodes = (
(710,690,l),
(1186,723,l),
(1186,41,l),
(710,8,l)
);
}
);
width = 1268;
},
{
layerId = "A5088515-37FF-452F-BD44-18A7A5EF88F0";
shapes = (
{
closed = 1;
nodes = (
(415,705,l),
(415,694,l),
(485,694,l),
(485,389,l),
(454,468,o),
(369,514,o),
(294,514,cs),
(160,514,o),
(65,404,o),
(65,249,cs),
(65,94,o),
(150,-15,o),
(271,-15,cs),
(367,-15,o),
(437,49,o),
(477,146,c),
(485,138,l),
(485,-15,l),
(569,25,l),
(569,35,l),
(499,35,l),
(499,745,l)
);
},
{
closed = 1;
nodes = (
(415,499,o),
(485,391,o),
(485,310,cs),
(485,220,l),
(458,117,o),
(390,-1,o),
(271,0,cs),
(155,1,o),
(76,104,o),
(80,249,cs),
(83,395,o),
(171,499,o),
(294,499,cs)
);
},
{
closed = 1;
nodes = (
(151,-10,o),
(70,97,o),
(70,249,cs),
(70,401,o),
(163,508,o),
(294,508,c),
(315,508,o),
(335,504,o),
(350,498,c),
(335,502,o),
(315,504,o),
(294,504,c),
(165,504,o),
(74,399,o),
(74,249,cs),
(74,100,o),
(153,-5,o),
(271,-6,cs),
(314,-6,o),
(345,4,o),
(382,29,c),
(352,7,o),
(315,-10,o),
(271,-10,cs)
);
},
{
closed = 1;
nodes = (
(490,735,l),
(494,737,l),
(494,-5,l),
(490,-7,l)
);
}
);
width = 619;
},
{
layerId = "35A90D60-3AD4-435C-9F8B-D1CA483F6F66";
shapes = (
{
closed = 1;
nodes = (
(718,715,l),
(718,704,l),
(838,704,l),
(838,369,l),
(783,462,o),
(630,514,o),
(460,514,cs),
(224,514,o),
(65,416,o),
(65,249,cs),
(65,83,o),
(224,-15,o),
(430,-15,cs),
(633,-15,o),
(759,72,o),
(827,167,c),
(838,161,l),
(838,-15,l),
(972,16,l),
(972,26,l),
(852,26,l),
(852,745,l)
);
},
{
closed = 1;
nodes = (
(713,499,o),
(838,391,o),
(838,310,cs),
(838,220,l),
(790,117,o),
(668,-1,o),
(430,0,cs),
(233,1,o),
(79,93,o),
(79,249,cs),
(79,406,o),
(233,499,o),
(460,499,cs)
);
},
{
closed = 1;
nodes = (
(214,-9,o),
(70,98,o),
(70,249,cs),
(70,408,o),
(220,508,o),
(460,508,c),
(501,508,o),
(535,505,o),
(576,498,c),
(523,502,o),
(497,504,o),
(460,504,c),
(223,504,o),
(74,406,o),
(74,249,cs),
(74,101,o),
(216,-4,o),
(430,-5,cs),
(513,-5,o),
(574,6,o),
(651,34,c),
(575,3,o),
(514,-9,o),
(430,-9,cs)
);
},
{
closed = 1;
nodes = (
(843,736,l),
(847,738,l),
(847,-6,l),
(843,-7,l)
);
}
);
width = 1042;
}
);
metricLeft = o;
metricRight = l;
unicode = 100;
},
{
color = 4;
glyphname = eth;
kernLeft = oo;
kernRight = o;
lastChange = "2022-08-05 06:04:53 +0000";
layers = (
{
layerId = "2660E96A-9963-4076-AFCB-E451BC6EE103";
shapes = (
{
closed = 1;
nodes = (
(510,-15,o),
(610,111,o),
(610,288,cs),
(610,514,o),
(417,715,o),
(172,745,c),
(162,733,l),
(249,666,o),
(308,594,o),
(338,517,c),
(335,514,l),
(329,515,o),
(322,515,o),
(316,515,cs),
(133,515,o),
(20,400,o),
(20,246,cs),
(20,111,o),
(113,-15,o),
(316,-15,cs)
);
},
{
closed = 1;
nodes = (
(265,-5,o),
(260,122,o),
(260,246,cs),
(260,379,o),
(267,505,o),
(316,505,cs),
(367,505,o),
(370,379,o),
(370,246,cs),
(370,120,o),
(361,-5,o),
(316,-5,cs)
);
},
{
closed = 1;
nodes = (
(434,711,l),
(429,721,l),
(211,576,l),
(220,568,l)
);
},
{
closed = 1;
nodes = (
(109,25,o),
(40,129,o),
(40,246,cs),
(40,379,o),
(123,475,o),
(269,492,c),
(242,442,o),
(240,342,o),
(240,246,cs),
(240,156,o),
(241,57,o),
(268,8,c)
);
},
{
closed = 1;
nodes = (
(387,58,o),
(390,155,o),
(390,246,cs),
(390,353,o),
(390,465,o),
(357,524,c),
(330,593,o),
(281,658,o),
(212,718,c),
(429,673,o),
(590,493,o),
(590,288,cs),
(590,133,o),
(515,25,o),
(362,8,c)
);
}
);
width = 630;
},
{
layerId = "DF54607F-DD82-41E6-B2E3-81CA6D0E5C47";
shapes = (
{
closed = 1;
nodes = (
(1096,-15,o),
(1314,111,o),
(1314,288,cs),
(1314,513,o),
(893,714,o),
(357,745,c),
(335,733,l),
(481,694,o),
(651,599,o),
(720,517,c),
(718,514,l),
(705,515,o),
(685,515,o),
(672,515,cs),
(272,515,o),
(25,400,o),
(25,246,cs),
(25,111,o),
(228,-15,o),
(672,-15,cs)
);
},
{
closed = 1;
nodes = (
(560,-5,o),
(549,122,o),
(549,246,cs),
(549,379,o),
(565,505,o),
(672,505,cs),
(783,505,o),
(790,379,o),
(790,246,cs),
(790,120,o),
(770,-5,o),
(672,-5,cs)
);
},
{
closed = 1;
nodes = (
(778,711,l),
(773,721,l),
(555,576,l),
(564,568,l)
);
},
{
closed = 1;
nodes = (
(210,21,o),
(45,131,o),
(45,246,cs),
(45,376,o),
(244,479,o),
(588,494,c),
(537,444,o),
(529,343,o),
(529,246,cs),
(529,155,o),
(536,55,o),
(587,6,c)
);
},
{
closed = 1;
nodes = (
(798,54,o),
(810,152,o),
(810,246,cs),
(810,353,o),
(805,467,o),
(735,530,c),
(679,596,o),
(560,671,o),
(439,719,c),
(930,674,o),
(1294,490,o),
(1294,288,cs),
(1294,133,o),
(1116,20,o),
(749,6,c)
);
}
);
width = 1339;
},
{
layerId = "A5088515-37FF-452F-BD44-18A7A5EF88F0";
shapes = (
{
closed = 1;
nodes = (
(415,-15,o),
(495,82,o),
(495,246,cs),
(495,479,o),
(372,658,o),
(154,745,c),
(146,735,l),
(278,684,o),
(390,583,o),
(435,463,c),
(428,459,l),
(388,496,o),
(338,515,o),
(279,515,cs),
(144,515,o),
(65,415,o),
(65,246,cs),
(65,82,o),
(144,-15,o),
(279,-15,cs)
);
},
{
closed = 1;
nodes = (
(153,0,o),
(79,91,o),
(79,246,cs),
(79,406,o),
(153,500,o),
(279,500,cs),
(406,500,o),
(481,406,o),
(481,246,cs),
(481,91,o),
(406,0,o),
(279,0,cs)
);
},
{
closed = 1;
nodes = (
(375,714,l),
(370,724,l),
(211,618,l),
(220,610,l)
);
},
{
closed = 1;
nodes = (
(112,44,o),
(70,126,o),
(70,246,cs),
(70,368,o),
(110,454,o),
(191,490,c),
(117,454,o),
(74,367,o),
(74,246,cs),
(74,127,o),
(119,45,o),
(191,10,c)
);
},
{
closed = 1;
nodes = (
(441,45,o),
(486,126,o),
(486,246,cs),
(486,322,o),
(469,384,o),
(441,461,c),
(397,582,o),
(288,684,o),
(156,737,c),
(372,652,o),
(490,476,o),
(490,246,cs),
(490,125,o),
(447,44,o),
(366,10,c)
);
}
);
width = 560;
},
{
layerId = "35A90D60-3AD4-435C-9F8B-D1CA483F6F66";
shapes = (
{
closed = 1;
nodes = (
(700,-15,o),
(845,82,o),
(845,246,cs),
(845,475,o),
(606,668,o),
(226,745,c),
(212,735,l),
(463,681,o),
(645,592,o),
(754,453,c),
(742,445,l),
(661,497,o),
(557,515,o),
(453,515,cs),
(208,515,o),
(65,415,o),
(65,246,cs),
(65,82,o),
(208,-15,o),
(453,-15,cs)
);
},
{
closed = 1;
nodes = (
(225,0,o),
(79,91,o),
(79,246,cs),
(79,406,o),
(225,500,o),
(453,500,cs),
(684,500,o),
(831,406,o),
(831,246,cs),
(831,91,o),
(684,0,o),
(453,0,cs)
);
},
{
closed = 1;
nodes = (
(548,714,l),
(543,724,l),
(384,618,l),
(393,610,l)
);
},
{
closed = 1;
nodes = (
(150,43,o),
(70,125,o),
(70,246,cs),
(70,367,o),
(145,454,o),
(289,490,c),
(157,454,o),
(74,368,o),
(74,246,cs),
(74,125,o),
(164,43,o),
(292,10,c)
);
},
{
closed = 1;
nodes = (
(745,43,o),
(836,125,o),
(836,246,cs),
(836,309,o),
(813,363,o),
(761,452,c),
(654,592,o),
(475,684,o),
(226,738,c),
(607,664,o),
(840,472,o),
(840,246,cs),
(840,125,o),
(758,43,o),
(614,10,c)
);
}
);
width = 910;
}
);
metricLeft = o;
metricRight = o;
unicode = 240;
},
{
color = 4;
glyphname = e;
kernLeft = oo;
kernRight = o;
lastChange = "2022-08-05 06:04:53 +0000";
layers = (
{
layerId = "2660E96A-9963-4076-AFCB-E451BC6EE103";
shapes = (
{
closed = 1;
nodes = (
(144,515,o),
(20,413,o),
(20,240,cs),
(20,119,o),
(113,-15,o),
(297,-15,cs),
(371,-15,o),
(492,-1,o),
(563,148,c),
(549,157,l),
(522,93,o),
(452,53,o),
(403,53,cs),
(299,53,o),
(257,178,o),
(259,276,cs),
(258,451,o),
(274,505,o),
(314,505,cs),
(362,505,o),
(365,431,o),
(364,296,c),
(255,276,l),
(255,266,l),
(581,266,l),
(581,393,o),
(501,515,o),
(315,515,cs)
);
},
{
closed = 1;
nodes = (
(40,386,o),
(128,474,o),
(263,491,c),
(244,455,o),
(238,387,o),
(239,276,cs),
(237,173,o),
(283,33,o),
(403,33,cs),
(417,33,o),
(432,36,o),
(447,41,c),
(403,14,o),
(366,5,o),
(297,5,cs),
(153,5,o),
(40,108,o),
(40,240,cs)
);
},
{
closed = 1;
nodes = (
(384,402,o),
(380,459,o),
(365,491,c),
(495,474,o),
(554,387,o),
(560,286,c),
(384,286,l)
);
}
);
width = 601;
},
{
layerId = "DF54607F-DD82-41E6-B2E3-81CA6D0E5C47";
shapes = (
{
closed = 1;
nodes = (
(280,515,o),
(25,413,o),
(25,240,cs),
(25,80,o),
(234,-15,o),
(587,-15,cs),
(920,-15,o),
(1094,46,o),
(1193,148,c),
(1179,157,l),
(1088,59,o),
(900,30,o),
(745,75,cs),
(627,110,o),
(547,196,o),
(549,276,cs),
(548,451,o),
(574,505,o),
(614,505,cs),
(673,505,o),
(675,430,o),
(674,296,c),
(545,276,l),
(545,266,l),
(1201,266,l),
(1201,423,o),
(1007,515,o),
(645,515,cs)
);
},
{
closed = 1;
nodes = (
(47,385,o),
(246,477,o),
(558,491,c),
(537,454,o),
(526,386,o),
(527,276,cs),
(525,185,o),
(613,91,o),
(739,54,cs),
(792,39,o),
(848,32,o),
(904,33,c),
(809,14,o),
(721,7,o),
(587,7,cs),
(255,7,o),
(47,97,o),
(47,240,cs)
);
},
{
closed = 1;
nodes = (
(694,382,o),
(696,454,o),
(675,493,c),
(993,489,o),
(1162,414,o),
(1179,288,c),
(693,288,l)
);
}
);
width = 1226;
},
{
layerId = "A5088515-37FF-452F-BD44-18A7A5EF88F0";
shapes = (
{
closed = 1;
nodes = (
(166,515,o),
(65,404,o),
(65,248,cs),
(65,94,o),
(163,-15,o),
(302,-15,cs),
(415,-15,o),
(493,31,o),
(540,125,c),
(533,135,l),
(485,44,o),
(409,-1,o),
(302,-1,cs),
(171,-1,o),
(79,102,o),
(79,248,cs),
(79,396,o),
(175,500,o),
(310,500,cs),
(437,500,o),
(513,419,o),
(513,290,c),
(79,286,l),
(79,276,l),
(527,276,l),
(528,426,o),
(447,515,o),
(310,515,cs)
);
},
{
closed = 1;
nodes = (
(70,351,o),
(115,433,o),
(190,476,c),
(118,434,o),
(74,351,o),
(74,248,cs),
(74,99,o),
(168,-6,o),
(302,-6,cs),
(348,-6,o),
(388,0,o),
(413,12,c),
(386,-2,o),
(346,-10,o),
(302,-10,cs),
(165,-10,o),
(70,97,o),
(70,248,cs)
);
},
{
closed = 1;
nodes = (
(514,388,o),
(482,438,o),
(430,476,c),
(485,441,o),
(518,391,o),
(523,281,c),
(519,281,l)
);
}
);
width = 605;
},
{
layerId = "35A90D60-3AD4-435C-9F8B-D1CA483F6F66";
shapes = (
{
closed = 1;
nodes = (
(230,515,o),
(65,404,o),
(65,248,cs),
(65,94,o),
(225,-15,o),
(467,-15,cs),
(663,-15,o),
(796,33,o),
(878,127,c),
(868,135,l),
(784,44,o),
(652,-1,o),
(467,-1,cs),
(239,-1,o),
(79,102,o),
(79,248,cs),
(79,396,o),
(246,500,o),
(481,500,cs),
(701,500,o),
(843,419,o),
(843,290,c),
(79,286,l),
(79,276,l),
(857,276,l),
(859,426,o),
(718,515,o),
(481,515,cs)
);
},
{
closed = 1;
nodes = (
(70,351,o),
(147,434,o),
(272,476,c),
(153,432,o),
(74,352,o),
(74,248,cs),
(74,97,o),
(236,-6,o),
(467,-6,cs),
(544,-6,o),
(608,0,o),
(660,12,c),
(602,-3,o),
(538,-10,o),
(467,-10,cs),
(227,-10,o),
(70,98,o),
(70,248,cs)
);
},
{
closed = 1;
nodes = (
(848,390,o),
(769,458,o),
(654,487,c),
(772,459,o),
(853,390,o),
(853,280,c),
(848,280,l)
);
}
);
width = 943;
}
);
metricLeft = o;
metricRight = o;
unicode = 101;
},
{
color = 4;
glyphname = f;
kernLeft = f;
kernRight = f;
lastChange = "2022-08-05 06:04:53 +0000";
layers = (
{
layerId = "2660E96A-9963-4076-AFCB-E451BC6EE103";
shapes = (
{
closed = 1;
nodes = (
(345,0,l),
(345,10,l),
(295,20,l),
(295,485,l),
(385,485,l),
(385,500,l),
(295,500,l),
(284,584,o),
(268,631,o),
(268,671,cs),
(268,711,o),
(283,735,o),
(333,735,cs),
(362,735,o),
(374,733,o),
(374,726,cs),
(374,715,o),
(355,704,o),
(336,689,cs),
(317,673,o),
(297,653,o),
(297,624,cs),
(297,566,o),
(354,535,o),
(433,535,cs),
(510,535,o),
(566,566,o),
(566,624,cs),
(566,703,o),
(462,745,o),
(330,745,cs),
(194,745,o),
(110,709,o),
(79,637,cs),
(63,600,o),
(60,544,o),
(60,500,c),
(10,490,l),
(10,480,l),
(60,480,l),
(60,20,l),
(10,10,l),
(10,0,l)
);
},
{
closed = 1;
nodes = (
(252,708,o),
(248,691,o),
(248,671,cs),
(248,647,o),
(253,622,o),
(259,591,cs),
(264,565,o),
(270,535,o),
(275,500,c),
(275,20,l),
(80,20,l),
(80,500,l),
(80,531,o),
(81,591,o),
(97,629,cs),
(120,682,o),
(172,712,o),
(260,722,c)
);
},
{
closed = 1;
nodes = (
(317,649,o),
(337,666,o),
(356,682,cs),
(374,696,o),
(392,707,o),
(394,721,c),
(394,723,l),
(488,712,o),
(546,678,o),
(546,624,cs),
(546,578,o),
(505,555,o),
(433,555,cs),
(359,555,o),
(317,578,o),
(317,624,cs)
);
}
);
width = 416;
},
{
layerId = "DF54607F-DD82-41E6-B2E3-81CA6D0E5C47";
shapes = (
{
closed = 1;
nodes = (
(630,0,l),
(630,10,l),
(580,20,l),
(580,485,l),
(670,485,l),
(670,500,l),
(580,500,l),
(569,574,o),
(554,630,o),
(554,670,cs),
(554,710,o),
(569,734,o),
(618,734,cs),
(637,734,o),
(642,730,o),
(642,722,cs),
(642,712,o),
(627,699,o),
(610,684,cs),
(593,667,o),
(574,649,o),
(574,631,cs),
(574,562,o),
(679,538,o),
(875,538,cs),
(1029,538,o),
(1138,563,o),
(1138,620,cs),
(1138,705,o),
(897,745,o),
(615,745,cs),
(343,745,o),
(207,718,o),
(122,649,cs),
(81,616,o),
(61,552,o),
(60,500,c),
(10,490,l),
(10,480,l),
(60,480,l),
(60,20,l),
(10,10,l),
(10,0,l)
);
},
{
closed = 1;
nodes = (
(538,711,o),
(534,690,o),
(534,670,cs),
(534,643,o),
(540,610,o),
(547,573,cs),
(551,550,o),
(556,525,o),
(560,498,c),
(560,20,l),
(80,20,l),
(80,497,ls),
(80,546,o),
(97,606,o),
(139,639,cs),
(208,694,o),
(324,725,o),
(547,725,c)
);
},
{
closed = 1;
nodes = (
(594,646,o),
(614,662,o),
(631,678,cs),
(647,694,o),
(665,710,o),
(665,724,cs),
(665,728,l),
(918,728,o),
(1118,680,o),
(1118,620,cs),
(1118,581,o),
(1027,556,o),
(875,556,cs),
(680,556,o),
(594,579,o),
(594,631,cs)
);
}
);
width = 738;
},
{
layerId = "A5088515-37FF-452F-BD44-18A7A5EF88F0";
shapes = (
{
closed = 1;
nodes = (
(224,0,l),
(224,10,l),
(144,20,l),
(144,480,l),
(279,480,l),
(279,490,l),
(144,500,l),
(140,540,o),
(136,603,o),
(136,637,cs),
(136,704,o),
(162,734,o),
(221,734,cs),
(246,734,o),
(254,731,o),
(254,725,cs),
(254,720,o),
(246,712,o),
(237,701,cs),
(228,690,o),
(218,676,o),
(218,661,cs),
(218,636,o),
(244,623,o),
(270,623,cs),
(296,623,o),
(322,636,o),
(322,664,cs),
(322,713,o),
(279,745,o),
(221,745,cs),
(152,745,o),
(122,712,o),
(122,637,cs),
(122,602,o),
(127,541,o),
(130,500,c),
(60,490,l),
(60,480,l),
(130,480,l),
(130,20,l),
(60,10,l),
(60,0,l)
);
},
{
closed = 1;
nodes = (
(143,705,o),
(137,692,o),
(134,677,cs),
(132,665,o),
(131,652,o),
(131,637,c),
(131,585,o),
(136,535,o),
(139,500,c),
(139,5,l),
(135,5,l),
(135,500,l),
(132,535,o),
(127,585,o),
(127,637,c),
(127,674,o),
(136,699,o),
(152,715,c)
);
},
{
closed = 1;
nodes = (
(225,676,o),
(233,687,o),
(242,697,cs),
(251,708,o),
(261,718,o),
(261,729,cs),
(261,732,l),
(294,722,o),
(315,697,o),
(315,664,cs),
(315,640,o),
(294,630,o),
(270,630,cs),
(246,630,o),
(225,640,o),
(225,661,cs)
);
}
);
width = 342;
},
{
layerId = "35A90D60-3AD4-435C-9F8B-D1CA483F6F66";
shapes = (
{
closed = 1;
nodes = (
(445,0,l),
(445,10,l),
(258,20,l),
(258,480,l),
(524,480,l),
(524,490,l),
(258,500,l),
(249,544,o),
(232,611,o),
(232,649,cs),
(232,708,o),
(294,734,o),
(437,734,cs),
(497,734,o),
(515,731,o),
(515,725,cs),
(514,719,o),
(496,711,o),
(477,700,cs),
(459,689,o),
(441,676,o),
(441,661,cs),
(441,636,o),
(492,623,o),
(553,623,cs),
(623,623,o),
(664,638,o),
(664,664,cs),
(664,713,o),
(574,745,o),
(437,745,cs),
(285,745,o),
(218,716,o),
(218,649,cs),
(218,612,o),
(235,546,o),
(244,500,c),
(95,490,l),
(95,480,l),
(244,480,l),
(244,20,l),
(80,10,l),
(80,0,l)
);
},
{
closed = 1;
nodes = (
(255,708,o),
(245,699,o),
(239,690,cs),
(231,678,o),
(227,664,o),
(227,649,c),
(227,597,o),
(248,535,o),
(253,500,c),
(253,5,l),
(249,5,l),
(249,500,l),
(244,535,o),
(223,597,o),
(223,649,c),
(223,677,o),
(236,698,o),
(268,715,c)
);
},
{
closed = 1;
nodes = (
(448,675,o),
(466,687,o),
(485,697,cs),
(504,708,o),
(524,718,o),
(524,728,c),
(524,732,l),
(607,723,o),
(657,698,o),
(657,664,cs),
(657,643,o),
(622,630,o),
(553,630,cs),
(493,630,o),
(448,641,o),
(448,661,cs)
);
}
);
width = 604;
}
);
metricLeft = l;
unicode = 102;
},
